<?xml version="1.0" standalone="no"?>
<!DOCTYPE svg PUBLIC "-//W3C//DTD SVG 1.1//EN" "http://www.w3.org/Graphics/SVG/1.1/DTD/svg11.dtd" >
<svg xmlns="http://www.w3.org/2000/svg" xmlns:xlink="http://www.w3.org/1999/xlink" version="1.1">
<metadata>
Created by FontForge 20170812 at Tue Jan 20 12:29:49 2009
 By www-data
The Carlsberg font family was designed by Kontrapunkt A/S in 2006, 2008 and the copyright belongs to Carlsberg A/S
</metadata>
<defs>
<font id="CarlsbergSans-Black" horiz-adv-x="1188" >
  <font-face 
    font-family="Carlsberg Sans Black"
    font-weight="900"
    font-stretch="normal"
    units-per-em="2048"
    panose-1="2 11 10 4 2 2 2 2 2 4"
    ascent="1638"
    descent="-410"
    x-height="1055"
    cap-height="1489"
    bbox="-326 -500 2984 2032"
    underline-thickness="102"
    underline-position="-205"
    unicode-range="U+0020-FB02"
  />
<missing-glyph horiz-adv-x="1024" 
d="M25 1362h972v-1362h-972v1362zM512 768l330 498h-662zM123 186l14.5 20.5t37 55.5t52 80t60.5 92q71 111 166 248l-330 496v-992zM569 682l332 -498v994zM512 594l-332 -496h662z" />
    <glyph glyph-name="f_i" unicode="fi" horiz-adv-x="1389" 
d="M268 0q-43 0 -67.5 5t-36.5 19.5t-15.5 37t-3.5 59.5v659h-145v275h145v96q0 98 21.5 168t69 115t122 65.5t181.5 20.5q98 0 167.5 -12.5t133.5 -28.5l-27 -287q-27 4 -57 10q-27 4 -59.5 8t-69.5 4q-56 0 -80.5 -26.5t-24.5 -63.5v-69h277v-275h-267v-780h-264z
M918 1174v315h391v-315h-391zM1042 0q-43 0 -67.5 5t-36.5 19.5t-15 37t-3 59.5v934h264q43 0 67.5 -5.5t36.5 -19.5t15.5 -36.5t3.5 -59.5v-934h-265z" />
    <glyph glyph-name="f_l" unicode="fl" horiz-adv-x="1518" 
d="M268 0q-43 0 -67.5 5t-36.5 19.5t-15.5 37t-3.5 59.5v659h-145v275h145v96q0 98 21.5 168t69 115t122 65.5t181.5 20.5q98 0 167.5 -12.5t133.5 -28.5l-27 -287q-27 4 -57 10q-27 4 -59.5 8t-69.5 4q-56 0 -80.5 -26.5t-24.5 -63.5v-69h277v-275h-267v-780h-264zM1518 4
q-37 -8 -80 -14q-37 -4 -86 -8.5t-103 -4.5q-178 0 -253.5 90.5t-75.5 266.5v1155h264q43 0 67.5 -5t36.5 -19.5t15.5 -37t3.5 -59.5v-993q0 -39 18 -65.5t68 -26.5q16 0 33.5 1t33.5 3q17 2 33 4z" />
    <glyph glyph-name=".notdef" horiz-adv-x="1024" 
d="M25 1362h972v-1362h-972v1362zM512 768l330 498h-662zM123 186l14.5 20.5t37 55.5t52 80t60.5 92q71 111 166 248l-330 496v-992zM569 682l332 -498v994zM512 594l-332 -496h662z" />
    <glyph glyph-name=".null" horiz-adv-x="0" 
 />
    <glyph glyph-name="nonmarkingreturn" horiz-adv-x="573" 
 />
    <glyph glyph-name="space" unicode=" " horiz-adv-x="573" 
 />
    <glyph glyph-name="space" unicode="&#xa0;" horiz-adv-x="573" 
 />
    <glyph glyph-name="hungarumlaut" unicode="&#x2dd;" horiz-adv-x="1257" 
d="M401 1219q-28 -27 -58 -37.5t-73 -10.5h-229l248 269q28 30 57 40.5t72 10.5h295zM907 1219q-28 -27 -59 -37.5t-72 -10.5h-229l246 269q28 33 58 42t73 9h293z" />
    <glyph glyph-name="ogonek" unicode="&#x2db;" horiz-adv-x="567" 
d="M526 -430q-49 -25 -115.5 -38t-115.5 -13q-41 0 -86 9t-82 31.5t-61.5 62.5t-24.5 102q0 98 49 169.5t131 131.5l219 -5q-45 -43 -69.5 -81.5t-36.5 -69.5t-14.5 -54.5t-2.5 -37.5q0 -25 15.5 -38t38.5 -13q10 0 31.5 4t37.5 4q37 0 51.5 -23.5t20.5 -58.5z" />
    <glyph glyph-name="caron" unicode="&#x2c7;" horiz-adv-x="1038" 
d="M618 1163h-124q-41 0 -68 8.5t-64 38.5l-321 271h299q41 0 72.5 -7.5t60.5 -35.5l53 -54l54 54q28 28 60 35.5t73 7.5h284z" />
    <glyph glyph-name="dotlessi" unicode="&#x131;" horiz-adv-x="551" 
d="M205 0q-43 0 -67.5 5t-37 19.5t-15.5 37t-3 59.5v934h264q43 0 67.5 -5.5t37 -19.5t15.5 -36.5t3 -59.5v-934h-264z" />
    <glyph glyph-name="fraction" unicode="&#x2044;" horiz-adv-x="1245" 
d="M-20 -66l882 1491q29 48 62.5 72.5t87.5 24.5h254l-887 -1491q-29 -47 -62.5 -72t-87.5 -25h-249z" />
    <glyph glyph-name="Lslash" unicode="&#x141;" horiz-adv-x="1219" 
d="M258 0q-43 0 -67.5 5t-37 19.5t-15.5 37t-3 59.5v311l-145 -86v393l145 86v664h291q43 0 67.5 -5t37 -19.5t15.5 -37t3 -59.5v-346l256 152v-314q0 -35 -15.5 -65.5t-62.5 -59.5l-178 -106v-277h629v-352h-920z" />
    <glyph glyph-name="lslash" unicode="&#x142;" horiz-adv-x="690" 
d="M680 4q-37 -8 -80 -14q-37 -4 -86 -8.5t-102 -4.5q-179 0 -254.5 90.5t-75.5 266.5v137l-119 -63v360l119 66v655h264q43 0 67.5 -5t37 -19.5t15.5 -37t3 -59.5v-358l139 80v-293q0 -35 -14 -62.5t-64 -52.5l-61 -35v-272q0 -39 18.5 -65.5t67.5 -26.5q16 0 33.5 1
t34.5 3l32 4z" />
    <glyph glyph-name="Zcaron" unicode="&#x17d;" horiz-adv-x="1262" 
d="M61 0v174q0 47 16.5 86t37.5 72l503 817h-544v340h1089v-182q0 -47 -16.5 -86t-36.5 -70q-125 -205 -251 -402.5t-255 -402.5h578v-346h-1121zM729 1597h-124q-41 0 -68 8.5t-64 38.5l-321 271h299q41 0 72.5 -7.5t60.5 -35.5l53 -54l54 54q28 28 60 35.5t73 7.5h284z
" />
    <glyph glyph-name="zcaron" unicode="&#x17e;" horiz-adv-x="1006" 
d="M61 0v158q0 45 14.5 83t39.5 68l331 432h-372v314h860v-166q0 -82 -55 -144l-332 -432h397v-313h-883zM602 1163h-124q-41 0 -68 8.5t-64 38.5l-321 271h299q41 0 72.5 -7.5t60.5 -35.5l53 -54l54 54q28 28 60 35.5t73 7.5h284z" />
    <glyph glyph-name="ring" unicode="&#x2da;" horiz-adv-x="727" 
d="M700 1350q0 -117 -89 -181.5t-246 -64.5q-158 0 -247 64.5t-89 181.5q0 123 88 185t248 62q159 0 247 -62t88 -185zM475 1350q0 53 -31.5 76.5t-78.5 23.5q-48 0 -79.5 -23.5t-31.5 -76.5q0 -52 34 -76.5t77 -24.5q45 0 77.5 24.5t32.5 76.5z" />
    <glyph glyph-name="exclam" unicode="!" horiz-adv-x="559" 
d="M82 0v315h395v-315h-395zM209 401q-43 0 -67.5 5.5t-37 19.5t-15.5 36.5t-3 59.5v967h264q43 0 67.5 -5t37 -19.5t15.5 -37t3 -59.5v-967h-264z" />
    <glyph glyph-name="quotedbl" unicode="&#x22;" horiz-adv-x="958" 
d="M203 797q-58 0 -86.5 31.5t-32.5 103.5l-23 557h234q133 0 127 -113l-39 -579h-180zM676 797q-58 0 -86.5 31.5t-32.5 103.5l-22 557h233q133 0 127 -113l-39 -579h-180z" />
    <glyph glyph-name="numbersign" unicode="#" horiz-adv-x="1532" 
d="M905 809h-215l-61 -252h215zM1491 809h-240l-61 -252h162v-315h-242l-74 -285q-8 -33 -15 -54.5t-18.5 -34.5t-31 -19.5t-49.5 -6.5h-254l98 400h-217l-72 -285q-8 -33 -15 -54.5t-18.5 -34.5t-31 -19.5t-50.5 -6.5h-256l101 400h-166v315h242l63 252h-164v311h240
l67 254q9 33 16 54.5t18.5 35t30.5 19.5t50 6h256l-92 -369h215l64 254q8 33 15 54.5t18.5 35t30.5 19.5t50 6h262l-94 -369h162v-311z" />
    <glyph glyph-name="dollar" unicode="$" horiz-adv-x="1204" 
d="M535 -229q-43 0 -68 5t-37 19.5t-15 37t-3 58.5v91q-74 6 -137.5 16t-110.5 20q-55 11 -103 25l48 328q67 -17 139 -27q61 -10 137 -17.5t150 -7.5q114 0 154 44.5t40 103.5q0 65 -55.5 90t-145.5 41q-6 2 -40.5 8t-55.5 10q-184 37 -275 134.5t-91 277.5q0 64 16 134.5
t56 134t109.5 114.5t176.5 78v184h235q43 0 68 -5t37 -19.5t15 -37t3 -59.5v-51q64 -8 120 -22.5t101.5 -30.5t74 -29.5t36.5 -17.5l-100 -297q-19 -51 -56 -51q-18 0 -38.5 10t-53.5 33q-32 22 -92.5 50t-146.5 28q-76 0 -118 -40t-42 -108q0 -61 45 -87t152 -46l53 -10
q223 -43 324.5 -137.5t101.5 -276.5q0 -78 -17.5 -150.5t-60.5 -136t-114.5 -110.5t-180.5 -72v-229h-235z" />
    <glyph glyph-name="percent" unicode="%" horiz-adv-x="2060" 
d="M1257 1391q17 24 29 42.5t25.5 31t31 18.5t46.5 6h350l-955 -1391q-16 -24 -28.5 -42.5t-25.5 -31t-31.5 -18.5t-45.5 -6h-352zM979 1171q0 -184 -126 -274t-335 -90q-104 0 -190 22.5t-147.5 67.5t-95.5 113.5t-34 160.5q0 93 34 161.5t95.5 113.5t147.5 67.5t190 22.5
q209 0 335 -90t126 -275zM645 1171q0 146 -131 146q-63 0 -97 -34t-34 -112q0 -71 35 -109t96 -38q68 0 99.5 35t31.5 112zM2009 342q0 -184 -126 -274.5t-335 -90.5q-104 0 -190 23t-147.5 68t-95.5 113.5t-34 160.5t34 160.5t95.5 114t147.5 68t190 22.5q209 0 335 -90.5
t126 -274.5zM1677 340q0 145 -131 145q-63 0 -97 -33.5t-34 -111.5q0 -72 35 -109.5t96 -37.5q68 0 99.5 34.5t31.5 112.5z" />
    <glyph glyph-name="ampersand" unicode="&#x26;" horiz-adv-x="1665" 
d="M750 432q0 78 39.5 137.5t105.5 130.5l270 297q64 70 84.5 124.5t20.5 115.5h190q0 -35 -3 -65.5t-13 -62.5t-29.5 -65.5t-54.5 -74.5l-70 -82q80 -33 146 -86q55 -47 101 -125t46 -195q0 -110 -42 -203.5t-132 -162t-231.5 -107.5t-341.5 -39q-213 0 -353.5 37
t-225.5 101.5t-120 151.5t-35 190q0 71 20.5 125.5t54.5 95.5t76 70.5t85 52.5q27 14 27 34q0 23 -31 39q-72 37 -122 92.5t-50 161.5q0 123 53 200t136 121t185.5 60.5t198.5 16.5q92 0 168 -12.5t129 -26.5q64 -19 113 -39l-101 -291q-10 -29 -25 -40t-32 -11
q-18 0 -39.5 13t-58.5 32q-25 12 -64 21.5t-82 9.5q-20 0 -46.5 -4.5t-51 -15.5t-42 -31.5t-17.5 -53.5q0 -37 14 -59.5t39 -34.5t58.5 -16.5t74.5 -4.5h33v-307h-37q-45 0 -88 -8t-77 -27.5t-54.5 -51.5t-20.5 -77q0 -53 25 -87t68 -53t100 -26.5t123 -7.5q153 0 233 45
t80 131q0 43 -16.5 71t-34.5 44q-23 18 -49 29l-27 -29q-39 -43 -63.5 -85t-26.5 -83h-190z" />
    <glyph glyph-name="quotesingle" unicode="'" horiz-adv-x="485" 
d="M203 797q-58 0 -86.5 31.5t-32.5 103.5l-23 557h234q133 0 127 -113l-39 -579h-180z" />
    <glyph glyph-name="parenleft" unicode="(" horiz-adv-x="829" 
d="M727 -223q-186 0 -307 58.5t-191.5 170t-98.5 276t-28 380.5q0 186 28 347.5t98.5 281.5t191.5 189.5t307 69.5v-305q-72 -4 -116 -41t-69.5 -108.5t-34.5 -179t-9 -250.5q0 -140 10 -246.5t35.5 -179t70.5 -112.5t113 -44v-307z" />
    <glyph glyph-name="parenright" unicode=")" horiz-adv-x="829" 
d="M102 82q70 4 115 41t70.5 108.5t35 179t9.5 251.5q0 139 -10.5 245.5t-36 179t-70.5 112.5t-113 44v307q187 0 307.5 -58t191.5 -170t98.5 -276.5t27.5 -379.5q0 -187 -27.5 -348.5t-98.5 -281.5t-191.5 -189.5t-307.5 -69.5v305z" />
    <glyph glyph-name="asterisk" unicode="*" horiz-adv-x="809" 
d="M567 823q-28 -22 -49.5 -14t-40.5 43l-65 121l-103 -185l-153 109q-29 23 -29 44.5t29 49.5l92 96l-207 41l57 181q13 34 33.5 39.5t54.5 -11.5l127 -61l-26 213h188q37 0 48.5 -17.5t6.5 -56.5l-18 -137l188 88l62 -178q12 -35 -1 -52.5t-54 -23.5l-132 -25l142 -151z
" />
    <glyph glyph-name="plus" unicode="+" horiz-adv-x="1079" 
d="M494 63q-43 0 -68 5.5t-37 19.5t-15 36.5t-3 59.5v203h-320v322h320v323h215q43 0 67.5 -5t36.5 -19.5t15.5 -37t3.5 -59.5v-202h319v-322h-319v-324h-215z" />
    <glyph glyph-name="comma" unicode="," horiz-adv-x="584" 
d="M82 -211q24 23 44.5 50.5t34 56t21.5 56.5t13 48h-99v354h406v-168q0 -172 -60.5 -304t-199.5 -236z" />
    <glyph glyph-name="hyphen" unicode="-" horiz-adv-x="879" 
d="M72 387v322h735v-322h-735z" />
    <glyph glyph-name="period" unicode="." horiz-adv-x="569" 
d="M82 0v354h405v-354h-405z" />
    <glyph glyph-name="slash" unicode="/" horiz-adv-x="1051" 
d="M0 -182l643 1757q16 47 46 71.5t83 24.5h279l-648 -1757q-16 -47 -45.5 -71.5t-83.5 -24.5h-274z" />
    <glyph glyph-name="zero" unicode="0" horiz-adv-x="1432" 
d="M717 -29q-176 0 -299 47.5t-201 143.5t-113.5 240.5t-35.5 340.5q0 197 35.5 342.5t113.5 241.5t201 143.5t299 47.5q174 0 297 -47.5t200.5 -143.5t113.5 -241.5t36 -342.5q0 -196 -36 -340.5t-113.5 -240.5t-200.5 -143.5t-297 -47.5zM715 299q78 0 122 28.5t66.5 85
t28.5 140.5t6 192q0 107 -7 191t-29.5 141.5t-66.5 87t-120 29.5q-74 0 -118 -28.5t-66.5 -86t-29.5 -140.5t-7 -194q0 -106 7 -189t30.5 -140.5t66.5 -87t117 -29.5z" />
    <glyph glyph-name="one" unicode="1" horiz-adv-x="717" 
d="M330 0q-43 0 -67.5 5t-37 19.5t-15.5 37t-3 59.5v1028h-187v340h486q43 0 67.5 -5t37 -19.5t15.5 -37t3 -59.5v-1368h-299z" />
    <glyph glyph-name="two" unicode="2" horiz-adv-x="1212" 
d="M190 0q-43 0 -67.5 5t-36.5 19.5t-15 37t-3 59.5v252q0 88 23.5 148.5t68.5 105.5t108.5 80.5t143.5 74.5q82 41 141 70t96 54.5t54.5 54t17.5 71.5q0 70 -48 107t-167 37q-66 0 -127.5 -10.5t-110.5 -20.5q-57 -15 -108 -31l-72 316q62 22 133 43q62 16 145 30.5
t179 14.5q127 0 238.5 -24t194.5 -76t130 -136t47 -207q0 -108 -27.5 -181t-74.5 -124t-109.5 -88t-132.5 -74q-74 -39 -132 -64.5t-100 -48t-64.5 -47t-22.5 -61.5v-39h643v-348h-945z" />
    <glyph glyph-name="three" unicode="3" horiz-adv-x="1214" 
d="M80 385q49 -18 106 -31q50 -10 113 -19t133 -9q84 0 140.5 8t89 25.5t46 45t13.5 66.5q0 78 -88 108.5t-301 30.5h-25v303h37q98 0 163.5 7.5t103.5 22.5t54.5 43t16.5 71q0 67 -59.5 92t-161.5 25q-60 0 -117 -9.5t-104 -19.5q-54 -12 -103 -27l-74 316q64 22 136 41
q61 16 138 29.5t161 13.5q108 0 217.5 -17.5t196.5 -62.5t141.5 -123t54.5 -201q0 -106 -50 -178t-122 -109q-16 -8 -23.5 -16t-7.5 -25q0 -18 27 -32q43 -23 81 -44.5t66.5 -55t46 -87t21.5 -135.5q0 -102 -41 -186t-124 -143.5t-209 -92.5t-294 -33q-106 0 -193 13.5
t-149 29.5q-74 21 -131 46z" />
    <glyph glyph-name="four" unicode="4" horiz-adv-x="1257" 
d="M891 0q-43 0 -67.5 5t-37 19.5t-15.5 37t-3 59.5v63h-598q-43 0 -67.5 5.5t-37 19.5t-15.5 36.5t-3 59.5v281q0 86 25.5 155.5t68.5 128t98.5 108.5t112.5 95q60 47 117 92t102 94.5t73 105.5t28 124h311q43 0 67.5 -4t38 -16.5t17.5 -34t4 -58.5q0 -71 -33 -131.5
t-86 -115t-118.5 -102.5t-131.5 -95q-53 -39 -102 -78t-86 -80t-59.5 -87t-22.5 -97v-58h297v209h279q43 0 67.5 -5t36.5 -19.5t15 -37t3 -58.5v-621h-278z" />
    <glyph glyph-name="five" unicode="5" horiz-adv-x="1270" 
d="M127 385q55 -18 121 -31q55 -12 129 -21t158 -9q71 0 119 14t77 39.5t41 60.5t12 74q0 59 -37.5 98t-136.5 39q-53 0 -107 -4t-101.5 -8t-84 -8t-55.5 -4q-43 0 -67.5 5t-37 19.5t-15.5 37t-3 58.5v744h983v-340h-585v-178q28 2 57 6q24 4 53 6t55 2q146 0 242 -41
t153.5 -106.5t81 -148.5t23.5 -165q0 -78 -23.5 -173t-91 -178t-192.5 -139.5t-328 -56.5q-123 0 -219 13.5t-162 29.5q-77 21 -135 46z" />
    <glyph glyph-name="six" unicode="6" horiz-adv-x="1327" 
d="M866 479q0 90 -50 134t-138 44q-94 0 -139 -45t-45 -125q0 -88 49 -140t135 -52q98 0 143 52t45 132zM1280 475q0 -117 -42 -211t-119 -158.5t-188.5 -99.5t-248.5 -35q-164 0 -279.5 45t-190.5 127t-109.5 198t-34.5 255q0 274 58 448.5t186 272.5t328 135t482 37v-340
q-147 0 -260.5 -9.5t-191.5 -38t-121 -82.5t-49 -145q26 23 69 44q35 16 91.5 29.5t134.5 13.5q84 0 171 -28t156.5 -87.5t113.5 -151.5t44 -219z" />
    <glyph glyph-name="seven" unicode="7" horiz-adv-x="1098" 
d="M285 0q-43 0 -67.5 5t-37 19.5t-15.5 37t-3 59.5v59q0 94 5 180t27.5 164t67.5 146.5t125 128.5q66 49 115 85t82.5 70.5t50 72.5t16.5 91v31h-624v340h1044v-356q0 -93 -23.5 -165.5t-66.5 -135t-105.5 -120t-140.5 -118.5q-55 -45 -86 -90t-45 -95.5t-17 -105.5
t-3 -123v-180h-299z" />
    <glyph glyph-name="eight" unicode="8" horiz-adv-x="1378" 
d="M1331 426q0 -121 -48 -208t-133 -142.5t-203 -82t-257 -26.5t-257 26.5t-204 82t-134 142.5t-48 208q0 66 17.5 117t48 91t69.5 68.5t82 51.5q27 14 27 34q0 23 -31 39q-72 37 -120 101.5t-48 163.5q0 112 46 193t126 133t189.5 76t236.5 24q125 0 234.5 -24t189.5 -76
t126 -133t46 -193q0 -99 -48 -163.5t-120 -101.5q-31 -16 -31 -39q0 -20 27 -34q43 -23 82 -51.5t69.5 -68.5t48 -91t17.5 -117zM905 457q0 90 -51 137t-164 47q-112 0 -164.5 -48t-52.5 -136q0 -92 59.5 -133t157.5 -41t156.5 41t58.5 133zM858 1081q0 80 -45 114t-123 34
t-125 -35t-47 -115q0 -71 39 -107t133 -36t131 37t37 108z" />
    <glyph glyph-name="nine" unicode="9" horiz-adv-x="1327" 
d="M834 1001q0 89 -49.5 141t-135.5 52q-98 0 -143 -52t-45 -132q0 -90 50 -134.5t138 -44.5q94 0 139.5 45.5t45.5 124.5zM1260 893q0 -275 -58.5 -449t-186.5 -272t-328 -135t-482 -37v340q147 0 261 9t191.5 38t120.5 83t49 144q-30 -24 -71 -43q-37 -16 -91.5 -29.5
t-132.5 -13.5q-83 0 -170.5 28t-157 87t-113.5 151.5t-44 219.5q0 116 42 210.5t119 159t187.5 99.5t249.5 35q162 0 278.5 -45.5t191.5 -127t110 -197.5t35 -255z" />
    <glyph glyph-name="colon" unicode=":" horiz-adv-x="569" 
d="M82 0v354h405v-354h-405zM82 700v355h405v-355h-405z" />
    <glyph glyph-name="semicolon" unicode=";" horiz-adv-x="569" 
d="M82 700v355h405v-355h-405zM68 -211q24 23 44.5 50.5t34 56t21.5 56.5t12 48h-98v354h405v-168q0 -172 -60 -304t-200 -236z" />
    <glyph glyph-name="less" unicode="&#x3c;" horiz-adv-x="1108" 
d="M92 418v272l924 363v-260q0 -60 -24.5 -82.5t-82.5 -36.5l-381 -115l385 -125q64 -22 83.5 -50t19.5 -75v-262z" />
    <glyph glyph-name="equal" unicode="=" horiz-adv-x="1102" 
d="M92 623v317h918v-317h-918zM1010 168h-918v317h918v-317z" />
    <glyph glyph-name="greater" unicode="&#x3e;" horiz-adv-x="1108" 
d="M92 27v260q0 59 24.5 81.5t82.5 37.5l381 114l-385 125q-66 21 -84.5 49.5t-18.5 75.5v262l924 -370v-273z" />
    <glyph glyph-name="question" unicode="?" horiz-adv-x="1163" 
d="M270 0v315h396v-315h-396zM397 401q-43 0 -67.5 5.5t-36.5 19.5t-15.5 36.5t-3.5 59.5v21q0 98 64.5 166.5t212.5 144.5q47 25 75.5 45.5t45 42t21.5 44t5 46.5q0 60 -51 99.5t-123 39.5q-86 0 -138 -23.5t-85 -45.5q-33 -23 -53.5 -33t-38.5 -10q-16 0 -31.5 12
t-23.5 39l-93 297q5 2 40.5 19.5t99 38t149.5 37t191 16.5q127 0 234.5 -28t184 -83t119.5 -137t43 -191q0 -166 -58 -258t-173 -145q-51 -25 -93 -44.5t-73 -44t-47 -59t-16 -88.5v-39h-265z" />
    <glyph glyph-name="at" unicode="@" horiz-adv-x="2345" 
d="M2273 645q0 -194 -59.5 -319t-165.5 -199t-252.5 -102.5t-318.5 -28.5q-64 0 -76 39q-10 35 -33 35q-16 0 -31.5 -8.5t-31.5 -18.5q-31 -16 -90.5 -38.5t-159.5 -22.5q-90 0 -171 29.5t-141.5 91t-96.5 154.5t-36 220t37 221.5t98.5 155.5t141.5 92t168 31
q92 0 154.5 -20.5t95.5 -41.5q12 -6 29.5 -16t33.5 -10t23.5 11t13.5 22q10 16 27.5 26t58.5 10h217v-593q0 -35 3 -47.5t26 -12.5q24 0 53 16.5t53.5 55.5t42 103.5t17.5 162.5q0 133 -39 240.5t-120 184.5t-205 118t-294 41q-160 0 -305 -48.5t-256 -143.5t-176.5 -235.5
t-65.5 -322.5q0 -203 68 -333t174.5 -204.5t238.5 -102t263 -27.5q92 0 164.5 11t127 26.5t89.5 31t51 25.5q33 18 53.5 30.5t38.5 12.5q16 0 31.5 -12.5t23.5 -38.5l76 -267q-100 -32 -215 -55q-98 -20 -224 -36.5t-261 -16.5q-205 0 -397.5 47t-342 157.5t-239.5 294
t-90 457.5q0 207 74.5 395.5t221 332t362.5 228.5t497 85q284 0 484 -69t325 -187.5t181 -277.5t56 -339zM1325 637q0 14 -8 18q-10 9 -43 20t-74 11q-78 0 -133 -48t-55 -159q0 -96 41 -151.5t141 -55.5q59 0 88 13.5t35 17.5t7 10t1 11v313z" />
    <glyph glyph-name="A" unicode="A" horiz-adv-x="1581" 
d="M797 1104l-154 -516h299zM1241 0q-53 0 -82 24.5t-47 71.5l-63 164h-517l-67 -164q-21 -47 -48.5 -71.5t-80.5 -24.5h-336l555 1489h408q53 0 81.5 -24.5t47.5 -71.5l501 -1393h-352z" />
    <glyph glyph-name="B" unicode="B" horiz-adv-x="1405" 
d="M102 1489q222 10 353 11t190 1q172 0 295 -19.5t201 -68.5t113.5 -134t35.5 -214q0 -53 -9 -90t-26.5 -64.5t-43 -50t-60.5 -45.5q-31 -18 -31 -39q0 -20 27 -35q43 -22 75.5 -46.5t55 -60.5t34 -86t11.5 -122q0 -131 -35 -215t-113.5 -133t-208.5 -68.5t-321 -19.5
q-41 0 -100.5 1t-119.5 2t-114.5 3t-85.5 4q-43 2 -67.5 8t-36.5 19.5t-15.5 35t-3.5 58.5v1368zM840 903q28 0 38.5 6t14.5 19q6 18 11 51t5 74q0 43 -9 67.5t-36.5 39t-77 18.5t-129.5 4h-95.5t-47.5 -2v-277h326zM514 616v-301h154q82 0 133 4.5t78.5 19.5t38 42t10.5 74
q0 53 -6.5 88t-10.5 49q-4 12 -16 18t-41 6h-340z" />
    <glyph glyph-name="C" unicode="C" horiz-adv-x="1337" 
d="M1268 49q-72 -20 -154 -35q-70 -14 -159 -24t-183 -10q-172 0 -301 40.5t-215 133t-130 239t-44 357.5q0 204 51 349.5t142.5 239t216 136.5t272.5 43q102 0 196.5 -17.5t166 -39t116.5 -41t49 -21.5l-114 -293q-23 -55 -64 -55q-27 0 -45 10t-47 33q-47 36 -108.5 55.5
t-149.5 19.5q-53 0 -100.5 -20.5t-81 -68.5t-53 -129t-19.5 -201q0 -123 15.5 -204t51 -129t92 -66.5t136.5 -18.5q76 0 150.5 7t134.5 17q69 11 133 25z" />
    <glyph glyph-name="D" unicode="D" horiz-adv-x="1487" 
d="M522 330q31 -2 74 -2h72q100 0 162.5 14t98.5 59t48 128t12 221q0 137 -12 219t-48 127t-98.5 59t-162.5 14h-80.5t-65.5 -4v-835zM102 1497q107 2 224.5 3t287.5 1q166 0 289 -16.5t211 -52t144.5 -93t89 -141.5t45 -196.5t12.5 -256.5q0 -215 -31 -360t-117 -233.5
t-240.5 -126t-402.5 -37.5q-45 0 -100 1t-108.5 3t-101.5 4t-79 4q-43 2 -67.5 8t-36.5 19.5t-15.5 35t-3.5 58.5v1376z" />
    <glyph glyph-name="E" unicode="E" horiz-adv-x="1286" 
d="M225 0q-43 0 -67.5 5t-36.5 19.5t-15.5 37t-3.5 59.5v1368h1080v-340h-664v-221h617v-340h-617v-242h686v-346h-979z" />
    <glyph glyph-name="F" unicode="F" horiz-adv-x="1233" 
d="M516 1149v-221h619v-340h-619v-588h-291q-43 0 -67.5 5t-36.5 19.5t-15.5 37t-3.5 59.5v1368h1080v-340h-666z" />
    <glyph glyph-name="G" unicode="G" horiz-adv-x="1473" 
d="M1163 0q-53 0 -78.5 16.5t-48.5 38.5q-32 33 -49 33q-12 0 -27.5 -11t-46.5 -34q-18 -14 -83.5 -40t-157.5 -26q-137 0 -247 43t-185.5 135.5t-116.5 234.5t-41 341q0 211 48 360.5t142.5 245t233.5 138.5t321 43q103 0 198 -19.5t169 -42t120 -43t50 -22.5l-121 -295
q-20 -58 -61 -58q-29 0 -74 33q-78 57 -143.5 83t-147.5 26q-74 0 -130 -22.5t-93 -73t-55.5 -133.5t-18.5 -203q0 -123 14.5 -207t49 -134.5t92 -73t141.5 -22.5q45 0 75 9.5t52 19.5q29 14 29 43v457h295q43 0 67.5 -5.5t36.5 -19.5t15.5 -36.5t3.5 -59.5v-719h-228z" />
    <glyph glyph-name="H" unicode="H" horiz-adv-x="1546" 
d="M1151 0q-43 0 -67.5 5t-37 19.5t-15.5 37t-3 59.5v467h-508v-588h-295q-43 0 -67.5 5t-36.5 19.5t-15.5 37t-3.5 59.5v1368h295q43 0 67.5 -5t37 -19.5t15.5 -37t3 -59.5v-440h508v561h293q43 0 67.5 -5t37 -19.5t15.5 -37t3 -59.5v-1368h-293z" />
    <glyph glyph-name="I" unicode="I" horiz-adv-x="627" 
d="M225 0q-43 0 -67.5 5t-36.5 19.5t-15.5 37t-3.5 59.5v1368h299q43 0 68 -5t37 -19.5t15 -37t3 -59.5v-1368h-299z" />
    <glyph glyph-name="J" unicode="J" horiz-adv-x="985" 
d="M883 436q0 -141 -35 -231t-97.5 -140.5t-146.5 -70t-182 -19.5q-86 0 -156.5 7.5t-120.5 17.5q-59 10 -104 27l47 327l74 -16q33 -6 71.5 -10t77.5 -4q84 0 117 35.5t33 111.5v1018h299q43 0 67.5 -5t37 -19.5t15.5 -37t3 -59.5v-932z" />
    <glyph glyph-name="K" unicode="K" horiz-adv-x="1509" 
d="M1116 0q-55 0 -85 19.5t-64 72.5l-320 520h-127v-612h-295q-43 0 -67.5 5t-36.5 19.5t-15.5 37t-3.5 59.5v1368h295q43 0 67.5 -5t37 -19.5t15.5 -37t3 -59.5v-436h131l264 465q17 28 30 45.5t29.5 28t37 14.5t51.5 4h393l-444 -696l518 -793h-414z" />
    <glyph glyph-name="L" unicode="L" horiz-adv-x="1186" 
d="M225 0q-43 0 -67.5 5t-36.5 19.5t-15.5 37t-3.5 59.5v1368h291q43 0 67.5 -5t37 -19.5t15.5 -37t3 -59.5v-1016h629v-352h-920z" />
    <glyph glyph-name="M" unicode="M" horiz-adv-x="2062" 
d="M1698 0q-45 0 -72 9t-41 27.5t-19 48.5t-10 71l-67 796l-205 -952h-403q-35 0 -56.5 10t-35 29.5t-21.5 48.5t-16 66l-181 800q-16 -202 -34.5 -399t-34.5 -399q-4 -43 -9.5 -73t-19.5 -48.5t-39.5 -26.5t-71.5 -8h-270l172 1489h455q35 0 56.5 -10.5t34.5 -29.5
t21.5 -48t18.5 -66l205 -891q6 31 18 92.5t28.5 140.5t36 170t38.5 181q45 211 98 461h416q39 0 63.5 -10.5t37.5 -31t19.5 -49t10.5 -65.5l149 -1333h-272z" />
    <glyph glyph-name="N" unicode="N" horiz-adv-x="1616" 
d="M1100 0q-113 0 -174 109q-31 55 -72 128.5t-84 157.5t-87 172t-82 169t-67.5 148.5t-44.5 112.5v-997h-264q-43 0 -67.5 5t-36.5 19.5t-15.5 37t-3.5 59.5v1368h433q63 0 101 -24.5t73 -80.5q14 -22 46.5 -84.5t74.5 -146.5t89.5 -181.5t89.5 -190.5t75.5 -173t48.5 -129
v1010h258q43 0 67.5 -5t36.5 -19.5t15 -37t3 -59.5v-1368h-413z" />
    <glyph glyph-name="O" unicode="O" horiz-adv-x="1587" 
d="M797 -33q-367 0 -541 191.5t-174 582.5q0 394 174 585.5t541 191.5q364 0 536 -191.5t172 -585.5q0 -391 -172 -582.5t-536 -191.5zM795 309q77 0 131.5 21.5t88.5 72t49 133t15 207.5q0 123 -16 206t-51 134.5t-88.5 74t-128.5 22.5q-74 0 -127.5 -21.5t-88 -72
t-51 -134.5t-16.5 -209q0 -122 16.5 -205t51 -133.5t88 -73t127.5 -22.5z" />
    <glyph glyph-name="P" unicode="P" horiz-adv-x="1323" 
d="M657 805q66 0 108 7t65.5 27.5t31.5 56.5t8 93q0 58 -8 93.5t-31.5 55t-65.5 26.5t-108 7h-69t-66 -4v-362h135zM225 0q-43 0 -67.5 5t-36.5 19.5t-15.5 37t-3.5 59.5v1374q56 2 113 3t120.5 2t136.5 1h161q180 0 305 -24.5t200.5 -83t109.5 -154.5t34 -240
q0 -147 -31.5 -247.5t-106.5 -160t-200 -85t-311 -25.5h-111v-481h-297z" />
    <glyph glyph-name="Q" unicode="Q" horiz-adv-x="1587" 
d="M1556 -432q-26 -21 -61 -35q-29 -12 -71 -22.5t-91 -10.5q-92 0 -164.5 20.5t-136 45t-122 45t-126.5 20.5q-41 0 -72.5 -7t-54.5 -17q-26 -10 -45 -25l-67 332q14 12 37 23q18 10 42.5 19t57.5 17q-309 29 -454.5 218.5t-145.5 551.5q0 394 173 584.5t540 190.5
q364 0 537 -190.5t173 -584.5q0 -366 -149.5 -556.5t-464.5 -215.5q63 -12 117.5 -31.5t104.5 -40t100.5 -35t105.5 -14.5q41 0 71.5 7.5t53.5 17.5q24 10 45 25zM795 309q77 0 131.5 21.5t88.5 72t49 133t15 207.5q0 123 -16 206t-51 134.5t-88.5 74t-128.5 22.5
q-74 0 -127.5 -21.5t-88 -72t-51 -134.5t-16.5 -209q0 -122 16.5 -205t51 -133.5t88 -73t127.5 -22.5z" />
    <glyph glyph-name="R" unicode="R" horiz-adv-x="1391" 
d="M1034 0q-43 0 -66.5 5t-35.5 19.5t-15.5 37t-5.5 59.5l-14 301q-4 55 -21.5 79.5t-76.5 24.5h-281v-526h-293q-43 0 -67.5 5t-36.5 19.5t-15.5 37t-3.5 59.5v1366q136 4 273 8t287 4q174 0 295.5 -19.5t198.5 -71.5t112 -141t35 -229q0 -219 -140 -290q-30 -17 -30 -39
q0 -21 26 -35q43 -23 70.5 -41.5t45 -47t25 -73.5t11.5 -121l14 -391h-291zM815 817q31 0 39 6t14 25q13 35 20 68.5t7 72.5q0 33 -6 62.5t-25.5 51t-57.5 35t-99 13.5h-117t-72 -2v-332h297z" />
    <glyph glyph-name="S" unicode="S" horiz-adv-x="1194" 
d="M109 371q67 -17 139 -27q61 -10 137 -17.5t150 -7.5q114 0 154 44.5t40 103.5q0 65 -55.5 90t-145.5 41q-6 2 -40.5 8t-55.5 10q-184 37 -275 134.5t-91 277.5q0 78 23.5 164t87 156.5t172 116.5t278.5 46q104 0 191 -16t151.5 -36.5t102.5 -38t42 -19.5l-100 -297
q-19 -51 -56 -51q-18 0 -38.5 10t-53.5 33q-32 22 -92.5 50t-146.5 28q-76 0 -118 -40t-42 -108q0 -61 45 -87t152 -46l53 -10q223 -41 324.5 -136.5t101.5 -277.5q0 -94 -26.5 -183t-94.5 -158t-183.5 -111t-293.5 -42q-94 0 -181.5 10.5t-154.5 22.5q-80 15 -148 35z" />
    <glyph glyph-name="T" unicode="T" horiz-adv-x="1366" 
d="M596 0q-43 0 -67.5 5t-37 19.5t-15.5 37t-3 59.5v1028h-453v340h1326v-340h-451v-1149h-299z" />
    <glyph glyph-name="U" unicode="U" horiz-adv-x="1483" 
d="M1182 0q-54 0 -79.5 16.5t-47.5 38.5q-31 31 -54 31q-20 0 -69 -29q-55 -32 -116.5 -56t-162.5 -24q-149 0 -256.5 35t-177 111t-103.5 192.5t-34 280.5v893h293q43 0 67.5 -5t37 -19.5t15.5 -37t3 -59.5v-745q0 -80 9 -138.5t36.5 -96.5t76 -56.5t128.5 -18.5
q65 0 104 9.5t70 23.5q32 16 38.5 26.5t6.5 24.5v1092h290q43 0 68 -5t37 -19.5t15 -37t3 -59.5v-1368h-198z" />
    <glyph glyph-name="V" unicode="V" horiz-adv-x="1524" 
d="M649 0q-65 0 -116.5 28.5t-73.5 94.5l-479 1366h311q131 0 176 -115l289 -923l286 923q45 115 177 115h317l-516 -1489h-371z" />
    <glyph glyph-name="W" unicode="W" horiz-adv-x="2161" 
d="M1350 0q-43 0 -68 8t-39 26.5t-20 48.5t-13 71l-139 907l-178 -1061h-436q-39 0 -62.5 10t-37 29.5t-22.5 48.5t-18 66l-329 1335h331q41 0 66 -8t38 -26.5t20.5 -48.5t15.5 -71l168 -905l172 1059h442q43 0 66.5 -9.5t38 -28.5t21.5 -48t13 -68l150 -907l166 907
q8 41 14 71t20.5 48.5t39 26.5t67.5 8h324l-371 -1489h-440z" />
    <glyph glyph-name="X" unicode="X" horiz-adv-x="1495" 
d="M1077 0q-53 0 -76.5 24.5t-52.5 71.5l-203 342l-200 -342q-29 -47 -52.5 -71.5t-76.5 -24.5h-416l492 743l-492 746h416q30 0 48.5 -6t32 -18.5t23.5 -31t25 -42.5l198 -336l193 336q14 24 24.5 42.5t23.5 31t31.5 18.5t49.5 6h416l-480 -741l494 -748h-418z" />
    <glyph glyph-name="Y" unicode="Y" horiz-adv-x="1421" 
d="M629 0q-43 0 -67.5 5t-37 19.5t-15.5 37t-3 59.5v348l-531 1020h353q61 0 95 -18.5t62 -77.5l236 -514l233 510q29 59 61 79.5t97 20.5h330l-520 -1004v-485h-293z" />
    <glyph glyph-name="Z" unicode="Z" horiz-adv-x="1262" 
d="M61 0v174q0 47 16.5 86t37.5 72l503 817h-544v340h1089v-182q0 -47 -16.5 -86t-36.5 -70q-125 -205 -251 -402.5t-255 -402.5h578v-346h-1121z" />
    <glyph glyph-name="bracketleft" unicode="[" horiz-adv-x="770" 
d="M246 -223q-43 0 -67.5 5t-37 19.5t-15.5 37t-3 59.5v1652h545v-307h-156v-1159h156v-307h-422z" />
    <glyph glyph-name="backslash" unicode="\" horiz-adv-x="1094" 
d="M793 -182q-54 0 -83.5 24.5t-45.5 71.5l-664 1757h299q53 0 82 -24.5t47 -71.5l666 -1757h-301z" />
    <glyph glyph-name="bracketright" unicode="]" horiz-adv-x="770" 
d="M102 -223v307h156v1159h-156v307h422q43 0 67.5 -5t37 -19.5t15.5 -37t3 -58.5v-1653h-545z" />
    <glyph glyph-name="asciicircum" unicode="^" horiz-adv-x="1524" 
d="M1038 713l-278 405l-295 -405h-383l575 788h228l557 -788h-404z" />
    <glyph glyph-name="underscore" unicode="_" horiz-adv-x="1300" 
d="M-20 -281v238h1341v-238h-1341z" />
    <glyph glyph-name="grave" unicode="`" horiz-adv-x="877" 
d="M555 1171q-41 0 -69.5 10.5t-61.5 32.5l-383 275h356q37 0 66 -7t63 -38l310 -273h-281z" />
    <glyph glyph-name="a" unicode="a" horiz-adv-x="1245" 
d="M944 0q-41 0 -59.5 12.5t-28.5 28.5q-6 10 -13 23.5t-24 13.5q-16 0 -33.5 -11.5t-29.5 -19.5q-35 -22 -98.5 -46t-155.5 -24q-90 0 -172 33t-143.5 99.5t-98.5 170t-37 244.5q0 144 37 248.5t99.5 172t144.5 100t170 32.5q92 0 155.5 -23.5t98.5 -45.5q12 -9 29.5 -20
t33.5 -11q17 0 24 13.5t13 23.5q10 16 28.5 28.5t59.5 12.5h219v-1055h-219zM776 694q0 15 -8 21q-10 8 -44 21.5t-75 13.5q-80 0 -135 -48.5t-55 -173.5q0 -108 41 -165.5t143 -57.5q59 0 89 15.5t36 19.5t7 11t1 11v332z" />
    <glyph glyph-name="b" unicode="b" horiz-adv-x="1245" 
d="M82 0v1489h264q45 0 69.5 -5t37 -19.5t14.5 -37t2 -59.5v-328q0 -43 20 -43q11 0 33 13q47 28 106.5 47.5t114.5 19.5q91 0 172.5 -32.5t143 -99t98.5 -170t37 -245.5q0 -143 -37 -247.5t-99.5 -172t-144.5 -100.5t-170 -33q-92 0 -155.5 24t-98.5 46q-12 8 -29.5 19.5
t-33.5 11.5t-23.5 -13.5t-13.5 -23.5q-10 -16 -28.5 -28.5t-59.5 -12.5h-219zM469 360q0 -14 8 -20q10 -8 44 -21.5t75 -13.5q80 0 135 48t55 173q0 109 -40.5 166.5t-143.5 57.5q-59 0 -89 -15.5t-36 -19.5t-7 -11.5t-1 -11.5v-332z" />
    <glyph glyph-name="c" unicode="c" horiz-adv-x="1061" 
d="M1008 33q-74 -17 -128.5 -27t-99.5 -16t-87 -9.5t-91 -3.5q-129 0 -230.5 32t-173 98.5t-109.5 169t-38 243.5q0 144 42 247t118 171t180.5 100.5t229.5 32.5q77 0 149 -13.5t127 -29.5q66 -20 123 -43l-80 -215q-14 -35 -32.5 -58.5t-55.5 -23.5q-29 0 -54.5 14.5
t-43.5 22.5q-27 10 -59.5 18.5t-67.5 8.5q-80 0 -126 -52.5t-46 -177.5q0 -110 42 -169.5t150 -59.5q96 0 174 17.5t156 31.5z" />
    <glyph glyph-name="d" unicode="d" horiz-adv-x="1245" 
d="M944 0q-41 0 -59.5 12.5t-28.5 28.5q-6 10 -13 23.5t-24 13.5q-16 0 -33.5 -11.5t-29.5 -19.5q-35 -22 -98.5 -46t-155.5 -24q-90 0 -172 33t-143.5 99.5t-98.5 170t-37 244.5q0 144 38 248.5t100.5 172t144.5 100t170 32.5q55 0 113.5 -19.5t105.5 -47.5q20 -13 33 -13
q20 0 20 43v449h264q45 0 70 -5t37 -19.5t14 -37t2 -59.5v-1368h-219zM776 694q0 15 -8 21q-10 8 -44 21.5t-75 13.5q-80 0 -135 -48.5t-55 -173.5q0 -108 41 -165.5t143 -57.5q59 0 89 15.5t36 19.5t7 11t1 11v332z" />
    <glyph glyph-name="e" unicode="e" horiz-adv-x="1202" 
d="M1106 27q-115 -23 -217.5 -36.5t-218.5 -13.5q-152 0 -267.5 30t-193.5 95.5t-118 170t-40 253.5q0 129 42 232.5t117 174.5t181.5 108.5t235.5 37.5q110 0 204.5 -22.5t163 -71.5t107.5 -127t39 -186q0 -92 -29 -147.5t-76 -88.5q-30 -22 -75.5 -35.5t-101.5 -22.5
t-120.5 -12.5t-130.5 -3.5h-57t-49 3q-25 0 -47 2q8 -66 66.5 -87.5t189.5 -21.5q65 0 129.5 7t115.5 18q60 10 115 24zM446 584h76t66 2q59 2 98 7t59 21q17 13 26 29t9 45q0 47 -30.5 80t-106.5 33q-88 0 -142.5 -55.5t-54.5 -161.5z" />
    <glyph glyph-name="f" unicode="f" horiz-adv-x="858" 
d="M289 0q-43 0 -67.5 5t-37 19.5t-15.5 37t-3 59.5v659h-146v275h146v96q0 98 21.5 168t68.5 115t122 65.5t181 20.5q98 0 168 -12.5t133 -28.5l-26 -287q-27 4 -58 10q-26 4 -59 8t-70 4q-55 0 -79.5 -26.5t-24.5 -63.5v-69h276v-275h-266v-780h-264z" />
    <glyph glyph-name="g" unicode="g" horiz-adv-x="1245" 
d="M778 14q0 43 -22 43q-13 0 -33 -12q-47 -29 -106.5 -48.5t-114.5 -19.5q-90 0 -172 33t-143.5 99.5t-98.5 170t-37 244.5q0 144 37 248.5t99.5 172t144.5 100t170 32.5q92 0 155.5 -23.5t98.5 -45.5q12 -9 29.5 -20t33.5 -11q17 0 24 13.5t13 23.5q10 16 28.5 28.5
t59.5 12.5h219v-1028q0 -250 -137 -369t-373 -119q-110 0 -193 25.5t-136 56.5q-66 37 -109 84l174 201q23 -23 60 -39q28 -17 73 -28t105 -11q69 0 110 34t41 101v51zM776 694q0 15 -8 21q-10 8 -44 21.5t-75 13.5q-80 0 -135 -48.5t-55 -173.5q0 -108 41 -165.5t143 -57.5
q59 0 89 15.5t36 19.5t7 11t1 11v332z" />
    <glyph glyph-name="h" unicode="h" horiz-adv-x="1206" 
d="M870 0q-43 0 -67.5 5t-36.5 19.5t-15 37t-3 59.5v491q0 84 -37 111t-107 27q-59 0 -90 -15.5t-37 -19.5t-7 -11.5t-1 -11.5v-692h-264q-43 0 -67.5 5t-37 19.5t-15.5 37t-3 59.5v1368h264q43 0 67.5 -5t37 -19.5t15.5 -37t3 -59.5v-328q0 -43 20 -43q11 0 33 13
q47 28 106.5 47.5t114.5 19.5q76 0 147 -16.5t125 -62.5t87 -128t33 -213v-657h-265z" />
    <glyph glyph-name="i" unicode="i" horiz-adv-x="551" 
d="M80 1174v315h391v-315h-391zM205 0q-43 0 -67.5 5t-37 19.5t-15.5 37t-3 59.5v934h264q43 0 67.5 -5.5t37 -19.5t15.5 -36.5t3 -59.5v-934h-264z" />
    <glyph glyph-name="j" unicode="j" horiz-adv-x="578" 
d="M106 1174v315h392v-315h-392zM-78 -147q15 -3 33 -5q14 -2 32.5 -3t35.5 -1q49 0 67.5 27t18.5 66v1118h264q43 0 67.5 -5.5t36.5 -19.5t15.5 -36.5t3.5 -59.5v-1038q0 -177 -76 -267t-254 -90q-53 0 -102.5 4t-86.5 8q-43 7 -79 15z" />
    <glyph glyph-name="k" unicode="k" horiz-adv-x="1217" 
d="M881 0q-41 0 -79 15.5t-67 64.5l-176 321h-92v-401h-262q-43 0 -67.5 5t-37 19.5t-16.5 37t-4 59.5v1368h264q43 0 67.5 -5t37 -19.5t15.5 -37t3 -59.5v-627h92l119 234q22 41 62 60.5t81 19.5h342l-289 -475l343 -580h-336z" />
    <glyph glyph-name="l" unicode="l" horiz-adv-x="690" 
d="M680 4q-37 -8 -80 -14q-37 -4 -86 -8.5t-102 -4.5q-179 0 -254.5 90.5t-75.5 266.5v1155h264q43 0 67.5 -5t37 -19.5t15.5 -37t3 -59.5v-993q0 -39 18.5 -65.5t67.5 -26.5q16 0 33.5 1t34.5 3l32 4z" />
    <glyph glyph-name="m" unicode="m" horiz-adv-x="1831" 
d="M1495 0q-43 0 -67.5 5t-37 19.5t-15.5 37t-3 59.5v491q0 84 -37 110t-98 26q-41 0 -72.5 -13.5t-42.5 -21.5q-8 -6 -8 -21v-692h-264q-43 0 -67.5 5t-37 19.5t-15.5 37t-3 59.5v491q0 84 -37 110t-98 26q-41 0 -73 -13.5t-42 -21.5q-8 -6 -8 -21v-692h-264q-43 0 -67.5 5
t-37 19.5t-15.5 37t-3 59.5v934h219q41 0 59.5 -12.5t28.5 -28.5q6 -10 13.5 -23.5t23.5 -13.5t33.5 11t29.5 20q35 22 93.5 45.5t140.5 23.5q63 0 110.5 -9t81 -22.5t54 -27.5t30.5 -23q7 -4 18 -16t23 -12q17 0 32 11t28 19q35 23 102.5 51.5t165.5 28.5q76 0 147.5 -16.5
t125 -62.5t86 -128t32.5 -213v-657h-264z" />
    <glyph glyph-name="n" unicode="n" horiz-adv-x="1206" 
d="M870 0q-43 0 -67.5 5t-36.5 19.5t-15 37t-3 59.5v491q0 84 -37 111t-107 27q-59 0 -90 -15.5t-37 -19.5t-7 -11.5t-1 -11.5v-692h-264q-43 0 -67.5 5t-37 19.5t-15.5 37t-3 59.5v934h219q41 0 59.5 -12.5t28.5 -28.5q6 -10 13.5 -23.5t23.5 -13.5t33.5 11t29.5 20
q35 22 98.5 45.5t155.5 23.5q76 0 147 -16.5t125 -62.5t87 -128t33 -213v-657h-265z" />
    <glyph glyph-name="o" unicode="o" horiz-adv-x="1278" 
d="M1227 526q0 -268 -153.5 -408.5t-434.5 -140.5q-135 0 -243.5 36t-185.5 106.5t-118 173t-41 237.5q0 269 153.5 409t434.5 140q135 0 244.5 -35.5t185.5 -106.5t117 -173t41 -238zM823 528q0 115 -42 174.5t-142 59.5t-142 -59.5t-42 -174.5q0 -114 42 -173.5t142 -59.5
t142 59.5t42 173.5z" />
    <glyph glyph-name="p" unicode="p" horiz-adv-x="1231" 
d="M205 -365q-45 0 -69.5 5.5t-37 19.5t-14.5 36.5t-2 59.5v1299h219q41 0 59.5 -12.5t28.5 -28.5q6 -10 13.5 -23.5t23.5 -13.5t33.5 11t29.5 20q35 22 98.5 45.5t155.5 23.5q91 0 172.5 -32.5t143 -99t98.5 -170t37 -245.5q0 -143 -38 -247.5t-100.5 -172t-144.5 -100.5
t-170 -33q-55 0 -113.5 19.5t-105.5 48.5q-22 12 -33 12q-20 0 -20 -43v-379h-264zM469 360q0 -14 8 -20q10 -8 44 -21.5t75 -13.5q80 0 135 48t55 173q0 109 -40.5 166.5t-143.5 57.5q-59 0 -89 -15.5t-36 -19.5t-7 -11.5t-1 -11.5v-332z" />
    <glyph glyph-name="q" unicode="q" horiz-adv-x="1245" 
d="M899 -365q-45 0 -69.5 5.5t-37 19.5t-14.5 36.5t-2 59.5v258q0 43 -20 43q-13 0 -33 -12q-47 -29 -106.5 -48.5t-114.5 -19.5q-90 0 -172 33t-143.5 99.5t-98.5 170t-37 244.5q0 144 37 248.5t99.5 172t144.5 100t170 32.5q92 0 155.5 -23.5t98.5 -45.5q12 -9 29.5 -20
t33.5 -11q17 0 24 13.5t13 23.5q10 16 28.5 28.5t59.5 12.5h219v-1420h-264zM776 694q0 15 -8 21q-10 8 -44 21.5t-75 13.5q-80 0 -135 -48.5t-55 -173.5q0 -108 41 -165.5t143 -57.5q59 0 89 15.5t36 19.5t7 11t1 11v332z" />
    <glyph glyph-name="r" unicode="r" horiz-adv-x="834" 
d="M205 0q-43 0 -67.5 5t-37 19.5t-15.5 37t-3 59.5v934h219q41 0 59.5 -12.5t28.5 -28.5q6 -10 13.5 -23.5t23.5 -13.5t33.5 11t29.5 20q35 22 91.5 45.5t148.5 23.5q12 0 24.5 -1t22.5 -3t23 -4v-350q-23 6 -49 14q-23 4 -54.5 9.5t-66.5 5.5q-70 0 -106 -13.5t-46 -21.5
q-8 -6 -8 -21v-692h-264z" />
    <glyph glyph-name="s" unicode="s" horiz-adv-x="1022" 
d="M72 334q69 -17 172.5 -35t222.5 -18q72 0 99.5 14t27.5 49q0 18 -10.5 29.5t-32 17.5t-57 11.5t-86.5 13.5q-86 12 -156 30.5t-119 52t-75.5 86t-26.5 132.5q0 69 24.5 135t86 116t165 79.5t260.5 29.5q109 0 213.5 -22.5t192.5 -53.5l-92 -243q-21 -56 -64 -56
q-16 0 -32.5 7.5t-34.5 17.5q-37 23 -86.5 36t-102.5 13q-139 0 -139 -63q0 -35 31.5 -45.5t128.5 -22.5q106 -14 182 -35.5t125 -56.5t72.5 -89t23.5 -132q0 -355 -532 -355q-99 0 -201 13.5t-213 36.5z" />
    <glyph glyph-name="t" unicode="t" horiz-adv-x="942" 
d="M891 18q-64 -16 -133.5 -28.5t-167.5 -12.5q-107 0 -181.5 20.5t-121.5 66t-68.5 115t-21.5 167.5v434h-146v275h146v188l387 82v-270h264v-275h-264v-407q0 -37 24.5 -63.5t79.5 -26.5q37 0 68.5 3t56.5 7q27 6 51 12z" />
    <glyph glyph-name="u" unicode="u" horiz-adv-x="1198" 
d="M897 0q-41 0 -59.5 12.5t-28.5 28.5q-6 10 -13.5 23.5t-23.5 13.5t-33.5 -11.5t-29.5 -19.5q-35 -22 -96.5 -46t-153.5 -24q-74 0 -143.5 16.5t-124 62.5t-87 128t-32.5 213v658h264q43 0 67.5 -5.5t37 -19.5t15.5 -36.5t3 -59.5v-490q0 -84 34.5 -110.5t104.5 -26.5
q59 0 88 14.5t35 20.5t7 12t1 11v690h264q43 0 67.5 -5.5t37 -19.5t15.5 -36.5t3 -59.5v-934h-219z" />
    <glyph glyph-name="v" unicode="v" horiz-adv-x="1180" 
d="M477 0q-41 0 -67.5 9t-44 24.5t-28.5 37t-20 44.5l-342 940h310q43 0 67.5 -7.5t39 -20.5t21.5 -32.5t13 -42.5l156 -583l153 583q6 23 13.5 42.5t21.5 32.5t39 20.5t68 7.5h303l-381 -1055h-322z" />
    <glyph glyph-name="w" unicode="w" horiz-adv-x="1759" 
d="M1108 0q-43 0 -68.5 7t-41 20.5t-21.5 33t-10 41.5l-97 605l-129 -707h-354q-43 0 -67.5 7t-39 20.5t-21.5 33t-13 41.5l-271 953h277q43 0 68.5 -7.5t40 -20.5t21.5 -32.5t11 -42.5l119 -604l139 707h330q43 0 68.5 -7.5t40 -20.5t21.5 -32.5t11 -42.5l113 -604l113 604
q8 45 32.5 74t108.5 29h270l-295 -1055h-356z" />
    <glyph glyph-name="x" unicode="x" horiz-adv-x="1198" 
d="M868 0q-41 0 -80.5 15.5t-64.5 64.5l-123 250l-123 -250q-24 -49 -64 -64.5t-81 -15.5h-330l309 526l-311 529h328q41 0 81 -15.5t64 -64.5l127 -248l121 248q24 49 64 64.5t81 15.5h328l-309 -529l313 -526h-330z" />
    <glyph glyph-name="y" unicode="y" horiz-adv-x="1198" 
d="M731 14q0 43 -22 43q-13 0 -33 -12q-47 -29 -106.5 -48.5t-114.5 -19.5q-72 0 -141.5 16.5t-123 62.5t-86 128t-32.5 213v658h264q43 0 67.5 -5.5t37 -19.5t15.5 -36.5t3 -59.5v-490q0 -84 34.5 -110.5t104.5 -26.5q59 0 88 14.5t35 20.5t7 12t1 11v690h264
q43 0 67.5 -5.5t37 -19.5t15.5 -36.5t3 -59.5v-907q0 -250 -137 -369t-373 -119q-110 0 -193 25.5t-137 56.5q-65 37 -108 84l174 201q23 -23 59 -39q29 -17 74 -28t105 -11q69 0 110 34t41 101v51z" />
    <glyph glyph-name="z" unicode="z" horiz-adv-x="1006" 
d="M61 0v158q0 45 14.5 83t39.5 68l331 432h-372v314h860v-166q0 -82 -55 -144l-332 -432h397v-313h-883z" />
    <glyph glyph-name="braceleft" unicode="{" horiz-adv-x="782" 
d="M434 -223q-98 0 -153.5 23.5t-82 61.5t-32.5 84t-6 91v362q0 41 -20.5 75t-78.5 50v279q58 16 78.5 50t20.5 75v362q0 45 9 91t38 84t83 61.5t144 23.5h246v-307h-123q-22 0 -22 -24v-228q0 -106 -16.5 -178t-88.5 -108q-16 -9 -23.5 -17t-7.5 -24q0 -27 31 -41
q72 -37 88.5 -109t16.5 -178v-227q0 -25 22 -25h123v-307h-246z" />
    <glyph glyph-name="bar" unicode="|" horiz-adv-x="535" 
d="M205 -365q-43 0 -67.5 5.5t-37 19.5t-15.5 36.5t-3 59.5v1938h248q43 0 67.5 -5.5t36.5 -19.5t15.5 -36.5t3.5 -59.5v-1938h-248z" />
    <glyph glyph-name="braceright" unicode="}" horiz-adv-x="782" 
d="M102 -223v307h123q23 0 23 25v227q0 106 16.5 178t87.5 109q31 14 31 41q0 16 -7 24t-24 17q-71 36 -87.5 108t-16.5 178v228q0 24 -23 24h-123v307h246q90 0 144.5 -23.5t83 -61.5t38 -84t9.5 -91v-362q0 -41 20.5 -75t77.5 -50v-279q-57 -16 -77.5 -50t-20.5 -75v-362
q0 -45 -6.5 -91t-33 -84t-82 -61.5t-153.5 -23.5h-246z" />
    <glyph glyph-name="asciitilde" unicode="~" horiz-adv-x="1315" 
d="M1233 453q-113 -70 -212 -87.5t-165 -17.5q-70 0 -126 17.5t-108.5 37t-104.5 37t-111 17.5q-44 0 -78.5 -3t-71.5 -14.5t-78 -33t-96 -56.5v330q113 70 212 87t165 17q69 0 125.5 -17t108.5 -36.5t104.5 -37t111.5 -17.5q43 0 78 3t72 14.5t78 33t96 55.5v-329z" />
    <glyph glyph-name="Euro" unicode="&#x20ac;" horiz-adv-x="1378" 
d="M1313 49q-58 -20 -125 -37q-60 -14 -140.5 -24.5t-175.5 -10.5q-139 0 -251.5 27t-195.5 86.5t-138.5 152.5t-81.5 226h-164v236h141l-2 45l2 51h-141v235h172q33 127 93.5 218.5t145.5 149.5t189 86t223 28q97 0 180.5 -13.5t148 -30t102.5 -30.5t42 -17l-114 -294
q-21 -52 -56 -52q-18 0 -41.5 12.5t-52.5 30.5q-51 33 -103 44.5t-106 11.5q-65 0 -120.5 -33t-90.5 -111h336v-235h-379l-2 -51l2 -45h379v-236h-344q31 -84 93.5 -115.5t166.5 -31.5q101 0 188 14t175 35z" />
    <glyph glyph-name="quotesinglbase" unicode="&#x201a;" horiz-adv-x="563" 
d="M61 -211q25 23 45.5 50.5t34 56t21.5 56.5t12 48h-98v354h405v-168q0 -172 -60.5 -304t-199.5 -236z" />
    <glyph glyph-name="florin" unicode="&#x192;" horiz-adv-x="801" 
d="M-78 -147q15 -3 33 -5q14 -2 32.5 -3t35.5 -1q49 0 67.5 27t18.5 66v843h-146v275h146v96q0 98 21.5 168t68.5 115t121.5 65.5t181.5 20.5q98 0 167.5 -12.5t133.5 -28.5l-27 -287q-26 4 -57 10q-27 4 -59.5 8t-69.5 4q-55 0 -80 -26.5t-25 -63.5v-69h277v-275h-266v-884
q0 -177 -76 -267t-254 -90q-53 0 -102.5 4t-86.5 8q-43 7 -79 15z" />
    <glyph glyph-name="quotedblbase" unicode="&#x201e;" horiz-adv-x="1090" 
d="M61 -211q25 23 45.5 50.5t34 56t21.5 56.5t12 48h-98v354h405v-168q0 -172 -60.5 -304t-199.5 -236zM588 -211q24 23 44.5 50.5t34 56t21.5 56.5t12 48h-98v354h406v-168q0 -172 -60.5 -304t-199.5 -236z" />
    <glyph glyph-name="ellipsis" unicode="&#x2026;" horiz-adv-x="1708" 
d="M82 0v354h405v-354h-405zM651 0v354h406v-354h-406zM1221 0v354h405v-354h-405z" />
    <glyph glyph-name="dagger" unicode="&#x2020;" horiz-adv-x="1130" 
d="M514 -365q-43 0 -67.5 5.5t-37 19.5t-15.5 36.5t-3 59.5v961h-371v323h371v449h227q44 0 68.5 -5t36.5 -19.5t15 -37t3 -59.5v-328h369v-323h-369v-1082h-227z" />
    <glyph glyph-name="daggerdbl" unicode="&#x2021;" horiz-adv-x="1133" 
d="M514 -365q-43 0 -67.5 5.5t-37 19.5t-15.5 36.5t-3 59.5v328h-368v324h368v309h-371v323h371v449h227q44 0 68.5 -5t36.5 -19.5t15 -37t3 -59.5v-328h369v-323h-369v-309h371v-324h-371v-449h-227z" />
    <glyph glyph-name="circumflex" unicode="&#x2c6;" horiz-adv-x="1038" 
d="M698 1171q-41 0 -72.5 7.5t-60.5 35.5l-53 54l-53 -54q-29 -28 -60.5 -35.5t-72.5 -7.5h-285l379 318h125q41 0 67.5 -8t63.5 -39l321 -271h-299z" />
    <glyph glyph-name="perthousand" unicode="&#x2030;" horiz-adv-x="3035" 
d="M1257 1391q17 24 29 42.5t25.5 31t31 18.5t46.5 6h350l-955 -1391q-16 -24 -28.5 -42.5t-25.5 -31t-31.5 -18.5t-45.5 -6h-352zM979 1171q0 -184 -126 -274t-335 -90q-104 0 -190 22.5t-147.5 67.5t-95.5 113.5t-34 160.5q0 93 34 161.5t95.5 113.5t147.5 67.5t190 22.5
q209 0 335 -90t126 -275zM645 1171q0 146 -131 146q-63 0 -97 -34t-34 -112q0 -71 35 -109t96 -38q68 0 99.5 35t31.5 112zM2009 342q0 -184 -126 -274.5t-335 -90.5q-104 0 -190 23t-147.5 68t-95.5 113.5t-34 160.5t34 160.5t95.5 114t147.5 68t190 22.5q209 0 335 -90.5
t126 -274.5zM1677 340q0 145 -131 145q-63 0 -97 -33.5t-34 -111.5q0 -72 35 -109.5t96 -37.5q68 0 99.5 34.5t31.5 112.5zM2984 342q0 -184 -126 -274.5t-335 -90.5q-104 0 -190 23t-147.5 68t-95.5 113.5t-34 160.5t34 160.5t95.5 114t147.5 68t190 22.5q209 0 335 -90.5
t126 -274.5zM2652 340q0 145 -131 145q-63 0 -97 -33.5t-34 -111.5q0 -72 35 -109.5t96 -37.5q68 0 99.5 34.5t31.5 112.5z" />
    <glyph glyph-name="Scaron" unicode="&#x160;" horiz-adv-x="1194" 
d="M109 371q67 -17 139 -27q61 -10 137 -17.5t150 -7.5q114 0 154 44.5t40 103.5q0 65 -55.5 90t-145.5 41q-6 2 -40.5 8t-55.5 10q-184 37 -275 134.5t-91 277.5q0 78 23.5 164t87 156.5t172 116.5t278.5 46q104 0 191 -16t151.5 -36.5t102.5 -38t42 -19.5l-100 -297
q-19 -51 -56 -51q-18 0 -38.5 10t-53.5 33q-32 22 -92.5 50t-146.5 28q-76 0 -118 -40t-42 -108q0 -61 45 -87t152 -46l53 -10q223 -41 324.5 -136.5t101.5 -277.5q0 -94 -26.5 -183t-94.5 -158t-183.5 -111t-293.5 -42q-94 0 -181.5 10.5t-154.5 22.5q-80 15 -148 35z
M700 1597h-124q-41 0 -68 8.5t-64 38.5l-321 271h299q41 0 72.5 -7.5t60.5 -35.5l53 -54l54 54q28 28 60 35.5t73 7.5h284z" />
    <glyph glyph-name="guilsinglleft" unicode="&#x2039;" horiz-adv-x="838" 
d="M477 207q-59 0 -95 14.5t-69 63.5l-272 415l287 422q28 43 67 56.5t99 13.5h272l-334 -473l344 -512h-299z" />
    <glyph glyph-name="OE" unicode="&#x152;" horiz-adv-x="2038" 
d="M958 1161q-26 2 -55 4q-24 2 -53 3t-55 1q-74 0 -127.5 -19.5t-88 -68.5t-51 -131t-16.5 -207q0 -122 16.5 -203t51 -130.5t88 -70t127.5 -20.5q32 0 62 1.5t52 3.5q27 2 49 6v831zM1225 0q-54 0 -111 -4t-114.5 -8t-109.5 -8.5t-93 -4.5q-367 0 -541 187.5t-174 578.5
q0 394 174 580t541 186q41 0 93 -3t109.5 -6t113.5 -6t108 -3h712v-340h-559v-234h512v-340h-512v-229h582v-346h-731z" />
    <glyph glyph-name="quoteleft" unicode="&#x2018;" horiz-adv-x="563" 
d="M82 805v168q0 172 60.5 304t199.5 236l160 -143q-25 -22 -45.5 -50t-33.5 -56.5t-22.5 -56t-11.5 -48.5h98v-354h-405z" />
    <glyph glyph-name="quoteright" unicode="&#x2019;" horiz-adv-x="563" 
d="M61 924q25 22 45.5 49.5t34 56.5t21.5 56.5t12 48.5h-98v354h405v-168q0 -172 -60.5 -304t-199.5 -237z" />
    <glyph glyph-name="quotedblleft" unicode="&#x201c;" horiz-adv-x="1090" 
d="M608 805v168q0 172 60.5 304t199.5 236l160 -143q-24 -22 -44.5 -50t-34 -56.5t-22.5 -56t-12 -48.5h99v-354h-406zM82 805v168q0 172 60.5 304t199.5 236l160 -143q-25 -22 -45.5 -50t-33.5 -56.5t-22.5 -56t-11.5 -48.5h98v-354h-405z" />
    <glyph glyph-name="quotedblright" unicode="&#x201d;" horiz-adv-x="1090" 
d="M61 924q25 22 45.5 49.5t34 56.5t21.5 56.5t12 48.5h-98v354h405v-168q0 -172 -60.5 -304t-199.5 -237zM588 924q24 22 44.5 49.5t34 56.5t21.5 56.5t12 48.5h-98v354h406v-168q0 -172 -60.5 -304t-199.5 -237z" />
    <glyph glyph-name="bullet" unicode="&#x2022;" horiz-adv-x="797" 
d="M399 473q-51 0 -99 17.5t-85 51t-59.5 85t-22.5 118.5q0 70 22.5 121.5t59.5 85t85 50t99 16.5q52 0 100 -16.5t85 -50t58.5 -85t21.5 -121.5q0 -67 -21.5 -118.5t-58.5 -85t-85 -51t-100 -17.5z" />
    <glyph glyph-name="endash" unicode="&#x2013;" horiz-adv-x="1210" 
d="M82 385v324h1046v-324h-1046z" />
    <glyph glyph-name="emdash" unicode="&#x2014;" horiz-adv-x="2003" 
d="M82 385v324h1839v-324h-1839z" />
    <glyph glyph-name="tilde" unicode="&#x2dc;" horiz-adv-x="778" 
d="M737 1321q0 -29 -8 -46.5t-33 -39.5q-41 -35 -91 -50.5t-87 -15.5q-51 0 -89 12.5t-68.5 27t-57.5 26.5t-57 12q-17 0 -34 -2t-41 -11t-55.5 -25.5t-74.5 -47.5v168q0 29 9 46.5t32 39.5q41 35 92 50.5t88 15.5q51 0 89 -12.5t69 -27t58.5 -26.5t58.5 -12q16 0 33.5 2
t40 11t53 25.5t73.5 47.5v-168z" />
    <glyph glyph-name="trademark" unicode="&#x2122;" horiz-adv-x="1741" 
d="M377 723q-41 0 -57.5 16.5t-16.5 57.5v487h-221v205h655v-205h-221v-561h-139zM1513 723q-43 0 -56 15.5t-17 49.5l-33 367l-115 -426h-112q-41 0 -55.5 19.5t-28.5 60.5l-82 340l-31 -358q-8 -68 -72 -68h-145l92 766h191q34 0 48.5 -11.5t24.5 -45.5l90 -363l111 420
h178q43 0 56.5 -17.5t17.5 -52.5l84 -696h-146z" />
    <glyph glyph-name="scaron" unicode="&#x161;" horiz-adv-x="1022" 
d="M72 334q69 -17 172.5 -35t222.5 -18q72 0 99.5 14t27.5 49q0 18 -10.5 29.5t-32 17.5t-57 11.5t-86.5 13.5q-86 12 -156 30.5t-119 52t-75.5 86t-26.5 132.5q0 69 24.5 135t86 116t165 79.5t260.5 29.5q109 0 213.5 -22.5t192.5 -53.5l-92 -243q-21 -56 -64 -56
q-16 0 -32.5 7.5t-34.5 17.5q-37 23 -86.5 36t-102.5 13q-139 0 -139 -63q0 -35 31.5 -45.5t128.5 -22.5q106 -14 182 -35.5t125 -56.5t72.5 -89t23.5 -132q0 -355 -532 -355q-99 0 -201 13.5t-213 36.5zM608 1163h-124q-41 0 -68 8.5t-64 38.5l-321 271h299q41 0 72.5 -7.5
t60.5 -35.5l53 -54l54 54q28 28 60 35.5t73 7.5h284z" />
    <glyph glyph-name="guilsinglright" unicode="&#x203a;" horiz-adv-x="838" 
d="M72 207l334 473l-345 512h299q60 0 96 -14.5t68 -63.5l273 -416l-287 -422q-29 -43 -68 -56t-98 -13h-272z" />
    <glyph glyph-name="oe" unicode="&#x153;" horiz-adv-x="1960" 
d="M639 295q100 0 142 59.5t42 173.5q0 115 -42 174.5t-142 59.5t-142 -59.5t-42 -174.5q0 -114 42 -173.5t142 -59.5zM1204 584q119 0 194 4t105 26q17 13 26 29t9 45q0 47 -30.5 80t-106.5 33q-88 0 -142.5 -55.5t-54.5 -161.5zM1864 27q-115 -23 -217.5 -36.5
t-219.5 -13.5q-135 0 -238.5 23t-170.5 74q-21 14 -37 14q-8 0 -15.5 -2t-17.5 -10q-59 -41 -148 -70t-182 -29q-272 0 -419.5 141.5t-147.5 411.5q0 269 153.5 409t434.5 140q68 0 150.5 -22.5t160.5 -69.5q29 -14 39 -14q25 0 35 8q51 31 95 50.5t86 29.5t85 14t94 4
q111 0 205 -22.5t163 -71.5t107.5 -127t38.5 -186q0 -113 -46 -175.5t-120.5 -92t-171 -36t-194.5 -6.5h-57.5t-48.5 3q-25 0 -48 2q9 -66 67 -87.5t189 -21.5q66 0 130.5 7t115.5 18q60 10 115 24z" />
    <glyph glyph-name="Ydieresis" unicode="&#x178;" horiz-adv-x="1421" 
d="M629 0q-43 0 -67.5 5t-37 19.5t-15.5 37t-3 59.5v348l-531 1020h353q61 0 95 -18.5t62 -77.5l236 -514l233 510q29 59 61 79.5t97 20.5h330l-520 -1004v-485h-293zM309 1630v291h338v-291h-338zM770 1630v291h338v-291h-338z" />
    <glyph glyph-name="exclamdown" unicode="&#xa1;" horiz-adv-x="553" 
d="M82 809v315h395v-315h-395zM209 -365q-43 0 -67.5 5.5t-37 19.5t-15.5 36.5t-3 59.5v967h264q43 0 67.5 -5t37 -19.5t15.5 -37t3 -59.5v-967h-264z" />
    <glyph glyph-name="cent" unicode="&#xa2;" horiz-adv-x="1061" 
d="M504 -229q-43 0 -67.5 5t-37 19.5t-15.5 37t-3 58.5v115q-158 47 -244 172t-86 342q0 215 92.5 342t249.5 176v226h236q43 0 67.5 -5.5t36.5 -19.5t15.5 -36.5t3.5 -59.5v-82q55 -10 104 -22.5t86 -24.5q43 -15 78 -29l-80 -215q-14 -35 -32.5 -58.5t-55.5 -23.5
q-29 0 -54.5 14.5t-43.5 22.5q-27 10 -59.5 18.5t-67.5 8.5q-80 0 -126 -52.5t-46 -177.5q0 -110 42 -169.5t150 -59.5q96 0 174 17.5t156 31.5l31 -309q-93 -21 -154 -31t-115 -16v-215h-235z" />
    <glyph glyph-name="sterling" unicode="&#xa3;" horiz-adv-x="1243" 
d="M51 0v322h176q13 65 18 110t5 109q0 4 -1 28.5t-3 44.5h-160v320h129q-4 29 -5 52.5t-1 47.5q0 232 127 358t407 126q109 0 191 -13.5t139 -29.5q68 -19 115 -41l-105 -275q-20 -51 -57 -51q-18 0 -41.5 13.5t-56.5 31.5q-41 23 -82 35t-103 12q-75 0 -112 -39t-37 -131
q0 -35 6 -96h356v-320h-331q2 -20 3 -44.5t1 -61.5q0 -41 -4 -90t-15 -96h613v-322h-1172z" />
    <glyph glyph-name="currency" unicode="&#xa4;" horiz-adv-x="1241" 
d="M836 252q-48 -23 -102 -36t-113 -13q-46 0 -101 13t-110 42l-142 -139l-186 194l137 133q-22 48 -35.5 100t-13.5 107q0 58 12.5 112t34.5 99l-135 133l186 195l142 -143q53 26 111.5 40.5t99.5 14.5q49 0 105 -11.5t108 -37.5l139 137l186 -197l-137 -135
q27 -49 38 -101t11 -106q0 -55 -14.5 -108t-38.5 -101l141 -131l-186 -194zM621 471q75 0 128.5 54.5t53.5 129.5q0 41 -15.5 74t-41 56.5t-58.5 37t-65 13.5q-41 0 -75 -14.5t-58.5 -39t-38 -57.5t-13.5 -70t14.5 -70.5t39 -58t58.5 -40t71 -15.5z" />
    <glyph glyph-name="yen" unicode="&#xa5;" horiz-adv-x="1384" 
d="M905 270v-270h-293q-43 0 -67.5 5t-36.5 19.5t-15.5 37t-3.5 59.5v149h-387v297h344l-61 138h-283v296h152l-213 488h342q61 0 100 -17.5t58 -78.5l164 -535l161 531q19 63 55.5 81.5t102.5 18.5h319l-213 -488h152v-296h-281l-61 -138h342v-297h-377z" />
    <glyph glyph-name="brokenbar" unicode="&#xa6;" horiz-adv-x="496" 
d="M205 852q-43 0 -67.5 5t-37 19.5t-15.5 37t-3 59.5v723h248q43 0 67.5 -5t36.5 -19.5t15.5 -37t3.5 -59.5v-723h-248zM205 -365q-43 0 -67.5 5.5t-37 19.5t-15.5 36.5t-3 59.5v723h248q43 0 67.5 -5t36.5 -19.5t15.5 -37t3.5 -59.5v-723h-248z" />
    <glyph glyph-name="section" unicode="&#xa7;" horiz-adv-x="1133" 
d="M700 623q0 71 -118 104q-19 4 -38.5 10t-29.5 11q-39 -43 -39 -101q0 -55 39 -77.5t111 -41.5q10 -4 25.5 -7t23.5 -7q26 47 26 109zM1051 643q0 -65 -28 -136t-69 -124q47 -49 65.5 -106.5t18.5 -126.5q0 -197 -131 -300.5t-401 -103.5q-43 0 -99.5 8t-115 21.5
t-112.5 30t-97 34.5l53 271q41 -11 92.5 -24t103.5 -23.5t98 -17.5t77 -7q80 0 129 19.5t49 78.5q0 35 -27.5 61.5t-119.5 47.5q-103 22 -180.5 52t-130 73t-78 101t-25.5 138q0 60 25.5 135.5t80.5 135.5q-77 100 -77 227q0 66 19 138.5t73.5 133t151 99.5t247.5 39
q62 0 168.5 -17.5t222.5 -62.5l-84 -221q-20 -56 -63 -56q-17 0 -33 7.5t-35 17.5q-37 22 -82 35.5t-92 13.5q-76 0 -107.5 -27.5t-31.5 -79.5q0 -57 40 -77.5t118 -40.5q206 -54 296.5 -138t90.5 -229z" />
    <glyph glyph-name="dieresis" unicode="&#xa8;" horiz-adv-x="881" 
d="M41 1196v291h338v-291h-338zM502 1196v291h338v-291h-338z" />
    <glyph glyph-name="copyright" unicode="&#xa9;" horiz-adv-x="1710" 
d="M1628 743q0 -159 -59.5 -300.5t-162.5 -247t-244.5 -167t-307.5 -61.5t-307 58.5t-244.5 162t-162 245.5t-58.5 310q0 160 58.5 301.5t162 246t244.5 166t307 61.5t307.5 -58.5t244.5 -161t162.5 -245t59.5 -310.5zM1438 743q0 131 -45 241t-123 189.5t-185.5 123.5
t-230.5 44t-229.5 -44t-185.5 -123.5t-123 -189.5t-44 -241t44 -240.5t123 -189.5t185.5 -125t229.5 -45t230.5 44t185.5 124t123 190.5t45 241.5zM1145 362q-66 -18 -143.5 -32.5t-137.5 -14.5q-194 0 -289.5 100.5t-95.5 332.5q0 110 28 191t79 134t119.5 79t152.5 26
q64 0 118 -11.5t95 -23.5q47 -15 86 -33l-53 -158q-10 -28 -37 -28q-16 0 -26.5 5t-26.5 17q-35 23 -67 34t-85 11q-78 0 -130 -55t-52 -188q0 -138 45 -193t156 -55q49 0 110.5 10t126.5 25z" />
    <glyph glyph-name="ordfeminine" unicode="&#xaa;" horiz-adv-x="831" 
d="M469 1198q0 19 -12 29q-15 10 -41 10q-39 0 -66.5 -34t-27.5 -113q0 -70 22.5 -109t65.5 -39q24 0 41 8q6 4 12 10.5t6 20.5v217zM635 698q-17 0 -38.5 6.5t-31.5 16.5q-24 22 -39.5 21t-42.5 -17q-32 -20 -64 -26.5t-73 -6.5q-55 0 -111.5 22.5t-101.5 72t-73.5 124
t-28.5 179.5q0 104 30.5 178.5t79.5 124t111.5 73t128.5 23.5q55 0 129 -41q35 -18 55 2q17 16 39.5 20.5t54.5 4.5h91v-777h-115z" />
    <glyph glyph-name="guillemotleft" unicode="&#xab;" horiz-adv-x="1456" 
d="M477 207q-59 0 -95 14.5t-69 63.5l-272 415l287 422q28 43 67 56.5t99 13.5h272l-334 -473l344 -512h-299zM1096 207q-60 0 -95.5 14.5t-68.5 63.5l-273 426l287 411q29 43 68 56.5t98 13.5h272l-333 -473l344 -512h-299z" />
    <glyph glyph-name="logicalnot" unicode="&#xac;" horiz-adv-x="1102" 
d="M795 143q-43 0 -68 5.5t-37 19.5t-15 36.5t-3 59.5v125h-580v318h795q43 0 67.5 -5.5t37 -19.5t15.5 -36.5t3 -59.5v-443h-215z" />
    <glyph glyph-name="minus" unicode="&#x2212;" horiz-adv-x="1020" 
d="M51 389v318h918v-318h-918z" />
    <glyph glyph-name="registered" unicode="&#xae;" horiz-adv-x="1710" 
d="M1628 743q0 -159 -59.5 -300.5t-162.5 -247t-244.5 -167t-307.5 -61.5t-307 58.5t-244.5 162t-162 245.5t-58.5 310q0 160 58.5 301.5t162 246t244.5 166t307 61.5t307.5 -58.5t244.5 -161t162.5 -245t59.5 -310.5zM1438 743q0 131 -45 241t-123 189.5t-185.5 123.5
t-230.5 44t-229.5 -44t-185.5 -123.5t-123 -189.5t-44 -241t44 -240.5t123 -189.5t185.5 -125t229.5 -45t230.5 44t185.5 124t123 190.5t45 241.5zM1169 922q0 -125 -77 -166q-17 -8 -17 -23q0 -10 15 -18q24 -13 38.5 -24t21.5 -26.5t10 -42t5 -69.5l9 -201h-121
q-35 0 -53.5 9.5t-20.5 46.5l-4 153q-2 41 -20.5 58.5t-65.5 17.5h-152v-285h-127q-39 0 -52 13.5t-13 54.5v743q20 0 59 1t80 2t77 2t48 1q102 0 171 -11t111 -39.5t60 -77t18 -119.5zM977 909q0 45 -27.5 65.5t-118.5 20.5q-30 0 -52.5 -1t-41.5 -1v-182h174q33 0 41 8
q13 12 19 30.5t6 59.5z" />
    <glyph glyph-name="macron" unicode="&#xaf;" horiz-adv-x="733" 
d="M41 1217v221h651v-221h-651z" />
    <glyph glyph-name="degree" unicode="&#xb0;" horiz-adv-x="862" 
d="M801 1161q0 -80 -26.5 -146.5t-76 -112.5t-117 -71.5t-149.5 -25.5t-150.5 20.5t-117.5 64.5t-76 111.5t-27 159.5q0 80 27 145.5t76 112.5t117.5 73t150.5 26t149.5 -21.5t117 -66t76 -112t26.5 -157.5zM432 1042q100 0 100 119t-100 119q-102 0 -102 -119t102 -119z
" />
    <glyph glyph-name="plusminus" unicode="&#xb1;" horiz-adv-x="1161" 
d="M750 684v-231h-215q-43 0 -68 5t-37 19.5t-15 37t-3 58.5v111h-320v301h320v232h215q43 0 67.5 -5.5t36.5 -19.5t15.5 -36.5t3.5 -59.5v-111h319v-301h-319zM92 0v317h977v-317h-977z" />
    <glyph glyph-name="two.superior" unicode="&#xb2;" horiz-adv-x="807" 
d="M172 639q-61 0 -75.5 17.5t-14.5 70.5v127q0 53 14.5 91t40 67.5t62.5 52t84 45.5q92 45 124.5 66.5t32.5 52.5q0 28 -20.5 41.5t-73.5 13.5q-35 0 -72.5 -6t-66.5 -14q-37 -9 -68 -19l-51 215q41 17 86 29q39 10 89 19.5t104 9.5q73 0 138.5 -14.5t115 -45.5t77 -82
t27.5 -125q0 -59 -14.5 -100t-41 -71.5t-65.5 -54.5t-88 -44q-78 -33 -117 -55.5t-39 -46.5v-11h355v-229h-543z" />
    <glyph glyph-name="three.superior" unicode="&#xb3;" horiz-adv-x="840" 
d="M139 895q33 -12 68 -21q29 -8 65.5 -13t75.5 -5q80 0 108.5 16.5t28.5 47.5q0 30 -43 41.5t-149 11.5h-35v213h43q94 0 128 10t34 45q0 23 -26.5 35t-71.5 12q-29 0 -63 -6t-62 -12q-35 -8 -70 -19l-51 211q41 15 86 27q39 10 86 19.5t94 9.5q64 0 128.5 -11.5t115.5 -38
t82.5 -71.5t31.5 -113q0 -65 -27.5 -103t-72.5 -61l-12 -8t-6 -14q0 -11 18 -19q80 -39 100.5 -87t20.5 -115q0 -111 -96.5 -181.5t-292.5 -70.5q-60 0 -112 9t-91 19q-45 13 -84 31z" />
    <glyph glyph-name="acute" unicode="&#xb4;" horiz-adv-x="877" 
d="M455 1214q-33 -22 -63 -32.5t-68 -10.5h-283l309 273q35 31 63.5 38t67.5 7h355z" />
    <glyph glyph-name="mu" unicode="&#xb5;" horiz-adv-x="1198" 
d="M897 0q-41 0 -59.5 12.5t-28.5 28.5q-6 10 -13.5 23.5t-23.5 13.5t-33.5 -11.5t-29.5 -19.5q-35 -24 -84.5 -47t-118.5 -23q-21 0 -47 7v-349h-264q-45 0 -70 5.5t-37 19.5t-14 36.5t-2 59.5v1299h264q43 0 67.5 -5.5t37 -19.5t15.5 -36.5t3 -59.5v-490
q0 -84 34.5 -110.5t104.5 -26.5q59 0 88 14.5t35 20.5t7 12t1 11v690h264q43 0 67.5 -5.5t37 -19.5t15.5 -36.5t3 -59.5v-934h-219z" />
    <glyph glyph-name="paragraph" unicode="&#xb6;" horiz-adv-x="1430" 
d="M1014 -182q-43 0 -43 47v1509h-119v-1257q0 -76 -8 -134.5t-32 -97.5t-63.5 -58.5t-101.5 -19.5q-41 0 -73.5 3.5t-77.5 11.5l10 100q41 -4 56.5 -5t25.5 -1q76 0 104.5 42t28.5 136v588q-127 2 -217 26.5t-147.5 73.5t-84 128t-26.5 194q0 113 28.5 189.5t92 122.5
t162 66.5t237.5 20.5q102 0 177 -2t159 -4v-1679h-88z" />
    <glyph glyph-name="periodcentered" unicode="&#xb7;" horiz-adv-x="504" 
d="M43 563v355h406v-355h-406z" />
    <glyph glyph-name="cedilla" unicode="&#xb8;" horiz-adv-x="565" 
d="M72 -309q4 22 13 34.5t38 12.5q16 0 34.5 -6t35.5 -6q14 0 34.5 7t20.5 38q0 12 -17.5 29.5t-80.5 17.5l36 235l230 6l-17 -143q62 -18 93.5 -55t31.5 -115q0 -47 -15 -88t-49 -71.5t-90.5 -49t-138.5 -18.5q-41 0 -98 6t-92 22z" />
    <glyph glyph-name="one.superior" unicode="&#xb9;" horiz-adv-x="543" 
d="M274 625q-61 0 -75.5 17t-14.5 71v542h-102v234h289q63 0 76.5 -18.5t13.5 -71.5v-774h-187z" />
    <glyph glyph-name="ordmasculine" unicode="&#xba;" horiz-adv-x="815" 
d="M401 692q-180 0 -275 103.5t-95 294.5q0 188 101 293.5t282 105.5q180 0 275 -103.5t95 -295.5q0 -191 -101 -294.5t-282 -103.5zM408 944q47 0 67.5 36t20.5 110q0 75 -20.5 111t-67.5 36q-48 0 -68.5 -36t-20.5 -111q0 -74 20.5 -110t68.5 -36z" />
    <glyph glyph-name="guillemotright" unicode="&#xbb;" horiz-adv-x="1456" 
d="M690 207l334 473l-344 512h299q59 0 95 -14.5t69 -63.5l272 -416l-287 -422q-28 -43 -67 -56t-98 -13h-273zM72 207l334 473l-345 512h299q60 0 96 -14.5t68 -63.5l273 -426l-287 -412q-29 -43 -68 -56t-98 -13h-272z" />
    <glyph glyph-name="onequarter" unicode="&#xbc;" horiz-adv-x="1776" 
d="M254 625q-61 0 -75.5 17t-14.5 71v542h-103v234h289q64 0 77 -18.5t13 -71.5v-774h-186zM186 -66l883 1491q29 48 62.5 72.5t87.5 24.5h254l-887 -1491q-29 -47 -63 -72t-87 -25h-250zM1518 0q-62 0 -76.5 18.5t-14.5 71.5v12h-305q-61 0 -75.5 17.5t-14.5 70.5v125
q0 58 17.5 106t45 89t63.5 74.5t71 62.5q55 43 101 92t46 125h193q61 0 76.5 -14t15.5 -70q0 -39 -17.5 -73.5t-45 -66.5t-62.5 -59.5t-70 -50.5q-69 -47 -118.5 -91t-49.5 -93v-22h129v129h177q61 0 75.5 -17.5t14.5 -70.5v-365h-176z" />
    <glyph glyph-name="onehalf" unicode="&#xbd;" horiz-adv-x="1898" 
d="M254 625q-61 0 -75.5 17t-14.5 71v542h-103v234h289q64 0 77 -18.5t13 -71.5v-774h-186zM1264 0q-62 0 -76 17.5t-14 70.5v127q0 53 14 91t39.5 67.5t62.5 52.5t84 45q92 45 125 66.5t33 52.5q0 28 -20.5 41.5t-73.5 13.5q-35 0 -73 -6t-67 -14q-36 -9 -67 -19l-51 215
q41 17 86 29q39 10 89 19.5t103 9.5q74 0 139.5 -14.5t114.5 -45.5t77 -82t28 -125q0 -59 -14.5 -100t-41 -71.5t-65.5 -54.5t-88 -44q-78 -33 -117 -55.5t-39 -46.5v-11h354v-229h-542zM168 -66l883 1491q28 48 62 72.5t87 24.5h254l-887 -1491q-28 -47 -62 -72t-87 -25
h-250z" />
    <glyph glyph-name="threequarters" unicode="&#xbe;" horiz-adv-x="1909" 
d="M371 -66l882 1491q29 48 63 72.5t87 24.5h254l-887 -1491q-29 -47 -62.5 -72t-86.5 -25h-250zM113 895q32 -12 67 -21q29 -8 66 -13t76 -5q79 0 108 16.5t29 47.5q0 30 -43 41.5t-150 11.5h-35v213h43q95 0 128.5 10t33.5 45q0 23 -26.5 35t-71.5 12q-29 0 -62.5 -6
t-62.5 -12q-35 -8 -70 -19l-51 211q41 15 86 27q39 10 86 19.5t94 9.5q64 0 128.5 -11.5t115.5 -38t83 -71.5t32 -113q0 -65 -27.5 -103t-73.5 -61l-12 -8t-6 -14q0 -11 18 -19q80 -39 100.5 -87t20.5 -115q0 -111 -96 -181.5t-293 -70.5q-59 0 -111.5 9t-91.5 19
q-45 13 -84 31zM1651 0q-62 0 -76 18.5t-14 71.5v12h-306q-61 0 -75.5 17.5t-14.5 70.5v125q0 58 17.5 106t45 89t63.5 74.5t71 62.5q55 43 101 92t46 125h193q61 0 76.5 -14t15.5 -70q0 -39 -17.5 -73.5t-45 -66.5t-62.5 -59.5t-70 -50.5q-69 -47 -118 -91t-49 -93v-22h129
v129h176q61 0 75.5 -17.5t14.5 -70.5v-365h-176z" />
    <glyph glyph-name="questiondown" unicode="&#xbf;" horiz-adv-x="1163" 
d="M498 813v315h395v-315h-395zM1102 -279q-4 -2 -41 -19t-99.5 -37.5t-148.5 -37t-190 -16.5q-127 0 -234.5 27.5t-184.5 83t-120 137.5t-43 190q0 166 58.5 258t172.5 146q52 24 94 43.5t72.5 44t47 59.5t16.5 88v39h264q43 0 67.5 -5t37 -19.5t15.5 -37t3 -59.5v-20
q0 -99 -64.5 -167.5t-212.5 -144.5q-47 -24 -75.5 -44.5t-45 -42t-21.5 -44t-5 -47.5q0 -59 51 -99t123 -40q86 0 138 23.5t85 46.5q33 22 53.5 32.5t38.5 10.5q17 0 32 -12.5t24 -39.5z" />
    <glyph glyph-name="Agrave" unicode="&#xc0;" horiz-adv-x="1581" 
d="M797 1104l-154 -516h299zM1241 0q-53 0 -82 24.5t-47 71.5l-63 164h-517l-67 -164q-21 -47 -48.5 -71.5t-80.5 -24.5h-336l555 1489h408q53 0 81.5 -24.5t47.5 -71.5l501 -1393h-352zM743 1605q-41 0 -69.5 10.5t-61.5 32.5l-383 275h356q37 0 66 -7t63 -38l310 -273
h-281z" />
    <glyph glyph-name="Aacute" unicode="&#xc1;" horiz-adv-x="1581" 
d="M797 1104l-154 -516h299zM1241 0q-53 0 -82 24.5t-47 71.5l-63 164h-517l-67 -164q-21 -47 -48.5 -71.5t-80.5 -24.5h-336l555 1489h408q53 0 81.5 -24.5t47.5 -71.5l501 -1393h-352zM979 1648q-33 -22 -63 -32.5t-68 -10.5h-283l309 273q35 31 63.5 38t67.5 7h355z" />
    <glyph glyph-name="Acircumflex" unicode="&#xc2;" horiz-adv-x="1581" 
d="M797 1104l-154 -516h299zM1241 0q-53 0 -82 24.5t-47 71.5l-63 164h-517l-67 -164q-21 -47 -48.5 -71.5t-80.5 -24.5h-336l555 1489h408q53 0 81.5 -24.5t47.5 -71.5l501 -1393h-352zM968 1605q-41 0 -72.5 7.5t-60.5 35.5l-53 54l-53 -54q-29 -28 -60.5 -35.5
t-72.5 -7.5h-285l379 318h125q41 0 67.5 -8t63.5 -39l321 -271h-299z" />
    <glyph glyph-name="Atilde" unicode="&#xc3;" horiz-adv-x="1581" 
d="M797 1104l-154 -516h299zM1241 0q-53 0 -82 24.5t-47 71.5l-63 164h-517l-67 -164q-21 -47 -48.5 -71.5t-80.5 -24.5h-336l555 1489h408q53 0 81.5 -24.5t47.5 -71.5l501 -1393h-352zM1138 1755q0 -29 -8 -46.5t-33 -39.5q-41 -35 -91 -50.5t-87 -15.5q-51 0 -89 12.5
t-68.5 27t-57.5 26.5t-57 12q-17 0 -34 -2t-41 -11t-55.5 -25.5t-74.5 -47.5v168q0 29 9 46.5t32 39.5q41 35 92 50.5t88 15.5q51 0 89 -12.5t69 -27t58.5 -26.5t58.5 -12q16 0 33.5 2t40 11t53 25.5t73.5 47.5v-168z" />
    <glyph glyph-name="Adieresis" unicode="&#xc4;" horiz-adv-x="1581" 
d="M797 1104l-154 -516h299zM1241 0q-53 0 -82 24.5t-47 71.5l-63 164h-517l-67 -164q-21 -47 -48.5 -71.5t-80.5 -24.5h-336l555 1489h408q53 0 81.5 -24.5t47.5 -71.5l501 -1393h-352zM391 1630v291h338v-291h-338zM852 1630v291h338v-291h-338z" />
    <glyph glyph-name="Aring" unicode="&#xc5;" horiz-adv-x="1581" 
d="M797 1104l-154 -516h299zM1241 0q-53 0 -82 24.5t-47 71.5l-63 164h-517q-12 -37 -32.5 -83t-34.5 -81q-21 -47 -48.5 -71.5t-80.5 -24.5h-336l492 1319q-15 14 -25 35q-10 16 -17.5 38.5t-7.5 51.5q0 129 97.5 193.5t257.5 64.5q159 0 256.5 -61.5t97.5 -196.5
q0 -29 -6 -48.5t-15 -33.5q-8 -16 -18 -27l481 -1335h-352zM907 1421q0 54 -31.5 77.5t-78.5 23.5t-79 -23.5t-32 -77.5q0 -51 34 -75.5t77 -24.5q45 0 77.5 24.5t32.5 75.5z" />
    <glyph glyph-name="AE" unicode="&#xc6;" horiz-adv-x="2103" 
d="M1147 0q-43 0 -67.5 5t-37 19.5t-15.5 37t-3 59.5v463h-4q-199 0 -317.5 -57.5t-153.5 -151.5q-6 -19 -18.5 -59t-24.5 -83t-23.5 -81.5t-17.5 -55.5q-21 -47 -48.5 -71.5t-80.5 -24.5h-336l391 1239q25 76 56.5 125t87 76.5t141.5 38t219 10.5h1104v-340h-559v-234h512
v-340h-512v-229h581v-346h-874zM936 1157q-45 0 -76 -5t-53.5 -19.5t-37.5 -43t-30 -73.5l-75 -230q51 33 108 60q49 22 111.5 41.5t130.5 19.5h10v250h-88z" />
    <glyph glyph-name="Ccedilla" unicode="&#xc7;" horiz-adv-x="1339" 
d="M1270 49q-68 -20 -146 -35q-65 -14 -151 -24t-178 -13l-7 -61q62 -18 93.5 -55t31.5 -115q0 -47 -15 -88t-49 -71.5t-90.5 -49t-137.5 -18.5q-41 0 -98.5 6t-92.5 22l31 144q4 22 13 34.5t38 12.5q16 0 34.5 -6t35.5 -6q14 0 34.5 7t20.5 38q0 12 -17.5 29.5t-80.5 17.5
l26 178q-121 22 -211 76.5t-150.5 145.5t-91 223t-30.5 309q0 204 51 349.5t142.5 239t217 136.5t273.5 43q102 0 196.5 -17.5t166 -39t116.5 -41t49 -21.5l-114 -293q-23 -55 -64 -55q-26 0 -44.5 10t-47.5 33q-47 36 -108.5 55.5t-149.5 19.5q-55 0 -101.5 -20.5
t-81 -68.5t-54 -129t-19.5 -201q0 -123 15.5 -204t51 -129t92 -66.5t138.5 -18.5q76 0 150.5 7t134.5 17q69 11 133 25z" />
    <glyph glyph-name="Egrave" unicode="&#xc8;" horiz-adv-x="1286" 
d="M225 0q-43 0 -67.5 5t-36.5 19.5t-15.5 37t-3.5 59.5v1368h1080v-340h-664v-221h617v-340h-617v-242h686v-346h-979zM633 1605q-41 0 -69.5 10.5t-61.5 32.5l-383 275h356q37 0 66 -7t63 -38l310 -273h-281z" />
    <glyph glyph-name="Eacute" unicode="&#xc9;" horiz-adv-x="1286" 
d="M225 0q-43 0 -67.5 5t-36.5 19.5t-15.5 37t-3.5 59.5v1368h1080v-340h-664v-221h617v-340h-617v-242h686v-346h-979zM783 1648q-33 -22 -63 -32.5t-68 -10.5h-283l309 273q35 31 63.5 38t67.5 7h355z" />
    <glyph glyph-name="Ecircumflex" unicode="&#xca;" horiz-adv-x="1286" 
d="M225 0q-43 0 -67.5 5t-36.5 19.5t-15.5 37t-3.5 59.5v1368h1080v-340h-664v-221h617v-340h-617v-242h686v-346h-979zM821 1605q-41 0 -72.5 7.5t-60.5 35.5l-53 54l-53 -54q-29 -28 -60.5 -35.5t-72.5 -7.5h-285l379 318h125q41 0 67.5 -8t63.5 -39l321 -271h-299z" />
    <glyph glyph-name="Edieresis" unicode="&#xcb;" horiz-adv-x="1286" 
d="M225 0q-43 0 -67.5 5t-36.5 19.5t-15.5 37t-3.5 59.5v1368h1080v-340h-664v-221h617v-340h-617v-242h686v-346h-979zM244 1630v291h338v-291h-338zM705 1630v291h338v-291h-338z" />
    <glyph glyph-name="Igrave" unicode="&#xcc;" horiz-adv-x="627" 
d="M225 0q-43 0 -67.5 5t-36.5 19.5t-15.5 37t-3.5 59.5v1368h299q43 0 68 -5t37 -19.5t15 -37t3 -59.5v-1368h-299zM246 1605q-41 0 -69.5 10.5t-61.5 32.5l-383 275h356q37 0 66 -7t63 -38l310 -273h-281z" />
    <glyph glyph-name="Iacute" unicode="&#xcd;" horiz-adv-x="627" 
d="M225 0q-43 0 -67.5 5t-36.5 19.5t-15.5 37t-3.5 59.5v1368h299q43 0 68 -5t37 -19.5t15 -37t3 -59.5v-1368h-299zM504 1648q-33 -22 -63 -32.5t-68 -10.5h-283l309 273q35 31 63.5 38t67.5 7h355z" />
    <glyph glyph-name="Icircumflex" unicode="&#xce;" horiz-adv-x="627" 
d="M225 0q-43 0 -67.5 5t-36.5 19.5t-15.5 37t-3.5 59.5v1368h299q43 0 68 -5t37 -19.5t15 -37t3 -59.5v-1368h-299zM493 1605q-41 0 -72.5 7.5t-60.5 35.5l-53 54l-53 -54q-29 -28 -60.5 -35.5t-72.5 -7.5h-285l379 318h125q41 0 67.5 -8t63.5 -39l321 -271h-299z" />
    <glyph glyph-name="Idieresis" unicode="&#xcf;" horiz-adv-x="627" 
d="M225 0q-43 0 -67.5 5t-36.5 19.5t-15.5 37t-3.5 59.5v1368h299q43 0 68 -5t37 -19.5t15 -37t3 -59.5v-1368h-299zM-86 1630v291h338v-291h-338zM375 1630v291h338v-291h-338z" />
    <glyph glyph-name="Eth" unicode="&#xd0;" horiz-adv-x="1487" 
d="M102 588h-143v321h143v588q107 2 224.5 3t287.5 1q166 0 289 -16.5t211 -52t144.5 -93t89 -141.5t45 -196.5t12.5 -256.5q0 -215 -31 -360t-117 -233.5t-240.5 -126t-402.5 -37.5q-45 0 -100 1t-108.5 3t-101.5 4t-79 4q-43 2 -67.5 8t-36.5 19.5t-15.5 35t-3.5 58.5v467
zM522 588v-258q31 -2 74 -2h72q100 0 162.5 14t98.5 59t48 128t12 221q0 137 -12 219t-48 127t-98.5 59t-162.5 14h-80.5t-65.5 -4v-256h213v-321h-213z" />
    <glyph glyph-name="Ntilde" unicode="&#xd1;" horiz-adv-x="1616" 
d="M1100 0q-113 0 -174 109q-31 55 -72 128.5t-84 157.5t-87 172t-82 169t-67.5 148.5t-44.5 112.5v-997h-264q-43 0 -67.5 5t-36.5 19.5t-15.5 37t-3.5 59.5v1368h433q63 0 101 -24.5t73 -80.5q14 -22 46.5 -84.5t74.5 -146.5t89.5 -181.5t89.5 -190.5t75.5 -173t48.5 -129
v1010h258q43 0 67.5 -5t36.5 -19.5t15 -37t3 -59.5v-1368h-413zM1171 1755q0 -29 -8 -46.5t-33 -39.5q-41 -35 -91 -50.5t-87 -15.5q-51 0 -89 12.5t-68.5 27t-57.5 26.5t-57 12q-17 0 -34 -2t-41 -11t-55.5 -25.5t-74.5 -47.5v168q0 29 9 46.5t32 39.5q41 35 92 50.5
t88 15.5q51 0 89 -12.5t69 -27t58.5 -26.5t58.5 -12q16 0 33.5 2t40 11t53 25.5t73.5 47.5v-168z" />
    <glyph glyph-name="Ograve" unicode="&#xd2;" horiz-adv-x="1587" 
d="M797 -33q-367 0 -541 191.5t-174 582.5q0 394 174 585.5t541 191.5q364 0 536 -191.5t172 -585.5q0 -391 -172 -582.5t-536 -191.5zM795 309q77 0 131.5 21.5t88.5 72t49 133t15 207.5q0 123 -16 206t-51 134.5t-88.5 74t-128.5 22.5q-74 0 -127.5 -21.5t-88 -72
t-51 -134.5t-16.5 -209q0 -122 16.5 -205t51 -133.5t88 -73t127.5 -22.5zM743 1605q-41 0 -69.5 10.5t-61.5 32.5l-383 275h356q37 0 66 -7t63 -38l310 -273h-281z" />
    <glyph glyph-name="Oacute" unicode="&#xd3;" horiz-adv-x="1587" 
d="M797 -33q-367 0 -541 191.5t-174 582.5q0 394 174 585.5t541 191.5q364 0 536 -191.5t172 -585.5q0 -391 -172 -582.5t-536 -191.5zM795 309q77 0 131.5 21.5t88.5 72t49 133t15 207.5q0 123 -16 206t-51 134.5t-88.5 74t-128.5 22.5q-74 0 -127.5 -21.5t-88 -72
t-51 -134.5t-16.5 -209q0 -122 16.5 -205t51 -133.5t88 -73t127.5 -22.5zM953 1648q-33 -22 -63 -32.5t-68 -10.5h-283l309 273q35 31 63.5 38t67.5 7h355z" />
    <glyph glyph-name="Ocircumflex" unicode="&#xd4;" horiz-adv-x="1587" 
d="M797 -33q-367 0 -541 191.5t-174 582.5q0 394 174 585.5t541 191.5q364 0 536 -191.5t172 -585.5q0 -391 -172 -582.5t-536 -191.5zM795 309q77 0 131.5 21.5t88.5 72t49 133t15 207.5q0 123 -16 206t-51 134.5t-88.5 74t-128.5 22.5q-74 0 -127.5 -21.5t-88 -72
t-51 -134.5t-16.5 -209q0 -122 16.5 -205t51 -133.5t88 -73t127.5 -22.5zM972 1605q-41 0 -72.5 7.5t-60.5 35.5l-53 54l-53 -54q-29 -28 -60.5 -35.5t-72.5 -7.5h-285l379 318h125q41 0 67.5 -8t63.5 -39l321 -271h-299z" />
    <glyph glyph-name="Otilde" unicode="&#xd5;" horiz-adv-x="1587" 
d="M797 -33q-367 0 -541 191.5t-174 582.5q0 394 174 585.5t541 191.5q364 0 536 -191.5t172 -585.5q0 -391 -172 -582.5t-536 -191.5zM795 309q77 0 131.5 21.5t88.5 72t49 133t15 207.5q0 123 -16 206t-51 134.5t-88.5 74t-128.5 22.5q-74 0 -127.5 -21.5t-88 -72
t-51 -134.5t-16.5 -209q0 -122 16.5 -205t51 -133.5t88 -73t127.5 -22.5zM1140 1755q0 -29 -8 -46.5t-33 -39.5q-41 -35 -91 -50.5t-87 -15.5q-51 0 -89 12.5t-68.5 27t-57.5 26.5t-57 12q-17 0 -34 -2t-41 -11t-55.5 -25.5t-74.5 -47.5v168q0 29 9 46.5t32 39.5
q41 35 92 50.5t88 15.5q51 0 89 -12.5t69 -27t58.5 -26.5t58.5 -12q16 0 33.5 2t40 11t53 25.5t73.5 47.5v-168z" />
    <glyph glyph-name="Odieresis" unicode="&#xd6;" horiz-adv-x="1587" 
d="M797 -33q-367 0 -541 191.5t-174 582.5q0 394 174 585.5t541 191.5q364 0 536 -191.5t172 -585.5q0 -391 -172 -582.5t-536 -191.5zM795 309q77 0 131.5 21.5t88.5 72t49 133t15 207.5q0 123 -16 206t-51 134.5t-88.5 74t-128.5 22.5q-74 0 -127.5 -21.5t-88 -72
t-51 -134.5t-16.5 -209q0 -122 16.5 -205t51 -133.5t88 -73t127.5 -22.5zM393 1630v291h338v-291h-338zM854 1630v291h338v-291h-338z" />
    <glyph glyph-name="multiply" unicode="&#xd7;" horiz-adv-x="1075" 
d="M532 336l-243 -242l-205 205l242 244l-244 243l217 218l244 -244l243 241l205 -204l-241 -244l243 -244l-217 -217z" />
    <glyph glyph-name="Oslash" unicode="&#xd8;" horiz-adv-x="1587" 
d="M797 -33q-367 0 -541 191.5t-174 582.5q0 394 174 585.5t541 191.5q364 0 536 -191.5t172 -585.5q0 -391 -172 -582.5t-536 -191.5zM985 1120q-67 60 -190 60q-74 0 -129.5 -21.5t-91 -72t-54 -134.5t-18.5 -209q0 -168 33 -260zM621 356q34 -26 77 -36.5t97 -10.5
q77 0 132.5 21.5t91.5 72t53.5 133t17.5 207.5q0 150 -27 238z" />
    <glyph glyph-name="Ugrave" unicode="&#xd9;" horiz-adv-x="1483" 
d="M1182 0q-54 0 -79.5 16.5t-47.5 38.5q-31 31 -54 31q-20 0 -69 -29q-55 -32 -116.5 -56t-162.5 -24q-149 0 -256.5 35t-177 111t-103.5 192.5t-34 280.5v893h293q43 0 67.5 -5t37 -19.5t15.5 -37t3 -59.5v-745q0 -80 9 -138.5t36.5 -96.5t76 -56.5t128.5 -18.5
q65 0 104 9.5t70 23.5q32 16 38.5 26.5t6.5 24.5v1092h290q43 0 68 -5t37 -19.5t15 -37t3 -59.5v-1368h-198zM674 1605q-41 0 -69.5 10.5t-61.5 32.5l-383 275h356q37 0 66 -7t63 -38l310 -273h-281z" />
    <glyph glyph-name="Uacute" unicode="&#xda;" horiz-adv-x="1483" 
d="M1182 0q-54 0 -79.5 16.5t-47.5 38.5q-31 31 -54 31q-20 0 -69 -29q-55 -32 -116.5 -56t-162.5 -24q-149 0 -256.5 35t-177 111t-103.5 192.5t-34 280.5v893h293q43 0 67.5 -5t37 -19.5t15.5 -37t3 -59.5v-745q0 -80 9 -138.5t36.5 -96.5t76 -56.5t128.5 -18.5
q65 0 104 9.5t70 23.5q32 16 38.5 26.5t6.5 24.5v1092h290q43 0 68 -5t37 -19.5t15 -37t3 -59.5v-1368h-198zM891 1648q-33 -22 -63 -32.5t-68 -10.5h-283l309 273q35 31 63.5 38t67.5 7h355z" />
    <glyph glyph-name="Ucircumflex" unicode="&#xdb;" horiz-adv-x="1483" 
d="M1182 0q-54 0 -79.5 16.5t-47.5 38.5q-31 31 -54 31q-20 0 -69 -29q-55 -32 -116.5 -56t-162.5 -24q-149 0 -256.5 35t-177 111t-103.5 192.5t-34 280.5v893h293q43 0 67.5 -5t37 -19.5t15.5 -37t3 -59.5v-745q0 -80 9 -138.5t36.5 -96.5t76 -56.5t128.5 -18.5
q65 0 104 9.5t70 23.5q32 16 38.5 26.5t6.5 24.5v1092h290q43 0 68 -5t37 -19.5t15 -37t3 -59.5v-1368h-198zM903 1605q-41 0 -72.5 7.5t-60.5 35.5l-53 54l-53 -54q-29 -28 -60.5 -35.5t-72.5 -7.5h-285l379 318h125q41 0 67.5 -8t63.5 -39l321 -271h-299z" />
    <glyph glyph-name="Udieresis" unicode="&#xdc;" horiz-adv-x="1483" 
d="M1182 0q-54 0 -79.5 16.5t-47.5 38.5q-31 31 -54 31q-20 0 -69 -29q-55 -32 -116.5 -56t-162.5 -24q-149 0 -256.5 35t-177 111t-103.5 192.5t-34 280.5v893h293q43 0 67.5 -5t37 -19.5t15.5 -37t3 -59.5v-745q0 -80 9 -138.5t36.5 -96.5t76 -56.5t128.5 -18.5
q65 0 104 9.5t70 23.5q32 16 38.5 26.5t6.5 24.5v1092h290q43 0 68 -5t37 -19.5t15 -37t3 -59.5v-1368h-198zM313 1630v291h338v-291h-338zM774 1630v291h338v-291h-338z" />
    <glyph glyph-name="Yacute" unicode="&#xdd;" horiz-adv-x="1421" 
d="M629 0q-43 0 -67.5 5t-37 19.5t-15.5 37t-3 59.5v348l-531 1020h353q61 0 95 -18.5t62 -77.5l236 -514l233 510q29 59 61 79.5t97 20.5h330l-520 -1004v-485h-293zM850 1648q-33 -22 -63 -32.5t-68 -10.5h-283l309 273q35 31 63.5 38t67.5 7h355z" />
    <glyph glyph-name="Thorn" unicode="&#xde;" horiz-adv-x="1323" 
d="M225 0q-43 0 -67.5 5t-36.5 19.5t-15.5 37t-3.5 59.5v1368h299q43 0 67 -5t36 -19.5t15 -37t3 -59.5v-94h111q180 0 305 -24.5t200.5 -83t109.5 -155t34 -239.5q0 -147 -31.5 -247.5t-106.5 -160t-200 -85t-311 -25.5h-111v-254h-297zM657 578q66 0 108 7t65.5 27.5
t31.5 56.5t8 93t-8 93t-31.5 55.5t-65.5 26.5t-108 7h-69t-66 -4v-362h135z" />
    <glyph glyph-name="germandbls" unicode="&#xdf;" horiz-adv-x="1321" 
d="M678 301q20 -4 48 -4h38q63 0 79.5 34t16.5 107q0 54 -9 90.5t-20 46.5q-16 21 -73 21h-68v311h60q28 0 42.5 8.5t22.5 24.5q8 18 14.5 54t6.5 77q0 78 -33 105.5t-107 27.5q-47 0 -73.5 -12t-39 -33.5t-15.5 -50.5t-3 -61v-1047h-264q-43 0 -67.5 5t-37 19.5t-15.5 37
t-3 59.5v631h-139v303h139v102q0 76 24.5 141.5t85 114.5t162 77t255.5 28q110 0 202 -17.5t159 -62.5t103.5 -123t36.5 -197q0 -55 -5 -97t-19.5 -76t-40 -61.5t-64.5 -54.5q-30 -22 -30 -38q0 -21 26 -35q43 -23 76 -50.5t55.5 -67.5t33.5 -96.5t11 -135.5
q0 -107 -17.5 -185t-64.5 -129t-130 -75.5t-214 -24.5q-22 0 -67 4t-103 16z" />
    <glyph glyph-name="agrave" unicode="&#xe0;" horiz-adv-x="1245" 
d="M944 0q-41 0 -59.5 12.5t-28.5 28.5q-6 10 -13 23.5t-24 13.5q-16 0 -33.5 -11.5t-29.5 -19.5q-35 -22 -98.5 -46t-155.5 -24q-90 0 -172 33t-143.5 99.5t-98.5 170t-37 244.5q0 144 37 248.5t99.5 172t144.5 100t170 32.5q92 0 155.5 -23.5t98.5 -45.5q12 -9 29.5 -20
t33.5 -11q17 0 24 13.5t13 23.5q10 16 28.5 28.5t59.5 12.5h219v-1055h-219zM776 694q0 15 -8 21q-10 8 -44 21.5t-75 13.5q-80 0 -135 -48.5t-55 -173.5q0 -108 41 -165.5t143 -57.5q59 0 89 15.5t36 19.5t7 11t1 11v332zM637 1171q-41 0 -69.5 10.5t-61.5 32.5l-383 275
h356q37 0 66 -7t63 -38l310 -273h-281z" />
    <glyph glyph-name="aacute" unicode="&#xe1;" horiz-adv-x="1245" 
d="M944 0q-41 0 -59.5 12.5t-28.5 28.5q-6 10 -13 23.5t-24 13.5q-16 0 -33.5 -11.5t-29.5 -19.5q-35 -22 -98.5 -46t-155.5 -24q-90 0 -172 33t-143.5 99.5t-98.5 170t-37 244.5q0 144 37 248.5t99.5 172t144.5 100t170 32.5q92 0 155.5 -23.5t98.5 -45.5q12 -9 29.5 -20
t33.5 -11q17 0 24 13.5t13 23.5q10 16 28.5 28.5t59.5 12.5h219v-1055h-219zM776 694q0 15 -8 21q-10 8 -44 21.5t-75 13.5q-80 0 -135 -48.5t-55 -173.5q0 -108 41 -165.5t143 -57.5q59 0 89 15.5t36 19.5t7 11t1 11v332zM740 1214q-33 -22 -63 -32.5t-68 -10.5h-283
l309 273q35 31 63.5 38t67.5 7h355z" />
    <glyph glyph-name="acircumflex" unicode="&#xe2;" horiz-adv-x="1245" 
d="M944 0q-41 0 -59.5 12.5t-28.5 28.5q-6 10 -13 23.5t-24 13.5q-16 0 -33.5 -11.5t-29.5 -19.5q-35 -22 -98.5 -46t-155.5 -24q-90 0 -172 33t-143.5 99.5t-98.5 170t-37 244.5q0 144 37 248.5t99.5 172t144.5 100t170 32.5q92 0 155.5 -23.5t98.5 -45.5q12 -9 29.5 -20
t33.5 -11q17 0 24 13.5t13 23.5q10 16 28.5 28.5t59.5 12.5h219v-1055h-219zM776 694q0 15 -8 21q-10 8 -44 21.5t-75 13.5q-80 0 -135 -48.5t-55 -173.5q0 -108 41 -165.5t143 -57.5q59 0 89 15.5t36 19.5t7 11t1 11v332zM821 1171q-41 0 -72.5 7.5t-60.5 35.5l-53 54
l-53 -54q-29 -28 -60.5 -35.5t-72.5 -7.5h-285l379 318h125q41 0 67.5 -8t63.5 -39l321 -271h-299z" />
    <glyph glyph-name="atilde" unicode="&#xe3;" horiz-adv-x="1245" 
d="M944 0q-41 0 -59.5 12.5t-28.5 28.5q-6 10 -13 23.5t-24 13.5q-16 0 -33.5 -11.5t-29.5 -19.5q-35 -22 -98.5 -46t-155.5 -24q-90 0 -172 33t-143.5 99.5t-98.5 170t-37 244.5q0 144 37 248.5t99.5 172t144.5 100t170 32.5q92 0 155.5 -23.5t98.5 -45.5q12 -9 29.5 -20
t33.5 -11q17 0 24 13.5t13 23.5q10 16 28.5 28.5t59.5 12.5h219v-1055h-219zM776 694q0 15 -8 21q-10 8 -44 21.5t-75 13.5q-80 0 -135 -48.5t-55 -173.5q0 -108 41 -165.5t143 -57.5q59 0 89 15.5t36 19.5t7 11t1 11v332zM970 1321q0 -29 -8 -46.5t-33 -39.5
q-41 -35 -91 -50.5t-87 -15.5q-51 0 -89 12.5t-68.5 27t-57.5 26.5t-57 12q-17 0 -34 -2t-41 -11t-55.5 -25.5t-74.5 -47.5v168q0 29 9 46.5t32 39.5q41 35 92 50.5t88 15.5q51 0 89 -12.5t69 -27t58.5 -26.5t58.5 -12q16 0 33.5 2t40 11t53 25.5t73.5 47.5v-168z" />
    <glyph glyph-name="adieresis" unicode="&#xe4;" horiz-adv-x="1245" 
d="M944 0q-41 0 -59.5 12.5t-28.5 28.5q-6 10 -13 23.5t-24 13.5q-16 0 -33.5 -11.5t-29.5 -19.5q-35 -22 -98.5 -46t-155.5 -24q-90 0 -172 33t-143.5 99.5t-98.5 170t-37 244.5q0 144 37 248.5t99.5 172t144.5 100t170 32.5q92 0 155.5 -23.5t98.5 -45.5q12 -9 29.5 -20
t33.5 -11q17 0 24 13.5t13 23.5q10 16 28.5 28.5t59.5 12.5h219v-1055h-219zM776 694q0 15 -8 21q-10 8 -44 21.5t-75 13.5q-80 0 -135 -48.5t-55 -173.5q0 -108 41 -165.5t143 -57.5q59 0 89 15.5t36 19.5t7 11t1 11v332zM221 1196v291h338v-291h-338zM682 1196v291h338
v-291h-338z" />
    <glyph glyph-name="aring" unicode="&#xe5;" horiz-adv-x="1245" 
d="M944 0q-41 0 -59.5 12.5t-28.5 28.5q-6 10 -13 23.5t-24 13.5q-16 0 -33.5 -11.5t-29.5 -19.5q-35 -22 -98.5 -46t-155.5 -24q-90 0 -172 33t-143.5 99.5t-98.5 170t-37 244.5q0 144 37 248.5t99.5 172t144.5 100t170 32.5q92 0 155.5 -23.5t98.5 -45.5q12 -9 29.5 -20
t33.5 -11q17 0 24 13.5t13 23.5q10 16 28.5 28.5t59.5 12.5h219v-1055h-219zM776 694q0 15 -8 21q-10 8 -44 21.5t-75 13.5q-80 0 -135 -48.5t-55 -173.5q0 -108 41 -165.5t143 -57.5q59 0 89 15.5t36 19.5t7 11t1 11v332zM1020 1350q0 -117 -89 -181.5t-246 -64.5
q-158 0 -247 64.5t-89 181.5q0 123 88 185t248 62q159 0 247 -62t88 -185zM795 1350q0 53 -31.5 76.5t-78.5 23.5q-48 0 -79.5 -23.5t-31.5 -76.5q0 -52 34 -76.5t77 -24.5q45 0 77.5 24.5t32.5 76.5z" />
    <glyph glyph-name="ae" unicode="&#xe6;" horiz-adv-x="1851" 
d="M1755 27q-115 -23 -217 -36.5t-219 -13.5q-107 0 -177.5 11.5t-114.5 27t-65.5 31.5t-29.5 25q-14 14 -21.5 19t-21.5 5q-12 0 -19.5 -6t-23.5 -18q-12 -11 -35 -26t-62.5 -30.5t-99 -27t-143.5 -11.5q-90 0 -173 33t-145.5 99.5t-99.5 170t-37 244.5q0 144 38 248.5
t108.5 172t170 100t222.5 32.5q143 0 219 -28.5t119 -71.5q16 -16 25.5 -22.5t23.5 -6.5q12 0 22.5 8.5t20.5 20.5q6 8 25.5 24.5t57.5 34t95 30.5t139 13q224 0 338.5 -102.5t114.5 -288.5q0 -98 -41 -160.5t-111.5 -98.5t-169 -49t-211.5 -13h-131q2 -35 14.5 -56.5
t39 -33t70.5 -15.5t110 -4q65 0 129.5 7t116.5 18q59 10 114 24zM748 686q0 33 -25 43q-16 8 -46 14.5t-67 6.5q-80 0 -115.5 -48.5t-35.5 -173.5q0 -53 7 -95t26.5 -70.5t52.5 -43t84 -14.5q28 0 55 5t45 12q23 8 39 18l-8 31q-4 12 -6 32q-6 31 -6 95v188zM1430 678
q0 47 -31 85t-107 38q-59 0 -106 -35t-60 -100q-4 -21 -4 -35v-47h92q41 0 80 1t69 10t48.5 28.5t18.5 54.5z" />
    <glyph glyph-name="ccedilla" unicode="&#xe7;" horiz-adv-x="1061" 
d="M1008 33q-64 -13 -113 -23t-90 -16t-77 -9t-75 -5l-6 -64q62 -18 93.5 -55t31.5 -115q0 -47 -15.5 -88t-49 -71.5t-90 -49t-138.5 -18.5q-41 0 -98 6t-92 22l30 144q5 22 14 34.5t38 12.5q16 0 34.5 -6t34.5 -6q15 0 35.5 7t20.5 38q0 12 -17.5 29.5t-81.5 17.5l27 178
q-178 37 -275.5 165t-97.5 359q0 144 42 247t118 171t180.5 100.5t229.5 32.5q77 0 149 -13.5t127 -29.5q66 -20 123 -43l-80 -215q-14 -35 -32.5 -58.5t-55.5 -23.5q-29 0 -54.5 14.5t-43.5 22.5q-27 10 -59.5 18.5t-67.5 8.5q-80 0 -126 -52.5t-46 -177.5
q0 -110 42 -169.5t150 -59.5q96 0 174 17.5t156 31.5z" />
    <glyph glyph-name="egrave" unicode="&#xe8;" horiz-adv-x="1202" 
d="M1106 27q-115 -23 -217.5 -36.5t-218.5 -13.5q-152 0 -267.5 30t-193.5 95.5t-118 170t-40 253.5q0 129 42 232.5t117 174.5t181.5 108.5t235.5 37.5q110 0 204.5 -22.5t163 -71.5t107.5 -127t39 -186q0 -92 -29 -147.5t-76 -88.5q-30 -22 -75.5 -35.5t-101.5 -22.5
t-120.5 -12.5t-130.5 -3.5h-57t-49 3q-25 0 -47 2q8 -66 66.5 -87.5t189.5 -21.5q65 0 129.5 7t115.5 18q60 10 115 24zM446 584h76t66 2q59 2 98 7t59 21q17 13 26 29t9 45q0 47 -30.5 80t-106.5 33q-88 0 -142.5 -55.5t-54.5 -161.5zM569 1171q-41 0 -69.5 10.5
t-61.5 32.5l-383 275h356q37 0 66 -7t63 -38l310 -273h-281z" />
    <glyph glyph-name="eacute" unicode="&#xe9;" horiz-adv-x="1202" 
d="M1106 27q-115 -23 -217.5 -36.5t-218.5 -13.5q-152 0 -267.5 30t-193.5 95.5t-118 170t-40 253.5q0 129 42 232.5t117 174.5t181.5 108.5t235.5 37.5q110 0 204.5 -22.5t163 -71.5t107.5 -127t39 -186q0 -92 -29 -147.5t-76 -88.5q-30 -22 -75.5 -35.5t-101.5 -22.5
t-120.5 -12.5t-130.5 -3.5h-57t-49 3q-25 0 -47 2q8 -66 66.5 -87.5t189.5 -21.5q65 0 129.5 7t115.5 18q60 10 115 24zM446 584h76t66 2q59 2 98 7t59 21q17 13 26 29t9 45q0 47 -30.5 80t-106.5 33q-88 0 -142.5 -55.5t-54.5 -161.5zM776 1214q-33 -22 -63 -32.5
t-68 -10.5h-283l309 273q35 31 63.5 38t67.5 7h355z" />
    <glyph glyph-name="ecircumflex" unicode="&#xea;" horiz-adv-x="1202" 
d="M1106 27q-115 -23 -217.5 -36.5t-218.5 -13.5q-152 0 -267.5 30t-193.5 95.5t-118 170t-40 253.5q0 129 42 232.5t117 174.5t181.5 108.5t235.5 37.5q110 0 204.5 -22.5t163 -71.5t107.5 -127t39 -186q0 -92 -29 -147.5t-76 -88.5q-30 -22 -75.5 -35.5t-101.5 -22.5
t-120.5 -12.5t-130.5 -3.5h-57t-49 3q-25 0 -47 2q8 -66 66.5 -87.5t189.5 -21.5q65 0 129.5 7t115.5 18q60 10 115 24zM446 584h76t66 2q59 2 98 7t59 21q17 13 26 29t9 45q0 47 -30.5 80t-106.5 33q-88 0 -142.5 -55.5t-54.5 -161.5zM800 1171q-41 0 -72.5 7.5t-60.5 35.5
l-53 54l-53 -54q-29 -28 -60.5 -35.5t-72.5 -7.5h-285l379 318h125q41 0 67.5 -8t63.5 -39l321 -271h-299z" />
    <glyph glyph-name="edieresis" unicode="&#xeb;" horiz-adv-x="1202" 
d="M1106 27q-115 -23 -217.5 -36.5t-218.5 -13.5q-152 0 -267.5 30t-193.5 95.5t-118 170t-40 253.5q0 129 42 232.5t117 174.5t181.5 108.5t235.5 37.5q110 0 204.5 -22.5t163 -71.5t107.5 -127t39 -186q0 -92 -29 -147.5t-76 -88.5q-30 -22 -75.5 -35.5t-101.5 -22.5
t-120.5 -12.5t-130.5 -3.5h-57t-49 3q-25 0 -47 2q8 -66 66.5 -87.5t189.5 -21.5q65 0 129.5 7t115.5 18q60 10 115 24zM446 584h76t66 2q59 2 98 7t59 21q17 13 26 29t9 45q0 47 -30.5 80t-106.5 33q-88 0 -142.5 -55.5t-54.5 -161.5zM207 1196v291h338v-291h-338z
M668 1196v291h338v-291h-338z" />
    <glyph glyph-name="igrave" unicode="&#xec;" horiz-adv-x="551" 
d="M205 0q-43 0 -67.5 5t-37 19.5t-15.5 37t-3 59.5v934h264q43 0 67.5 -5.5t37 -19.5t15.5 -36.5t3 -59.5v-934h-264zM188 1171q-41 0 -69.5 10.5t-61.5 32.5l-383 275h356q37 0 66 -7t63 -38l310 -273h-281z" />
    <glyph glyph-name="iacute" unicode="&#xed;" horiz-adv-x="551" 
d="M205 0q-43 0 -67.5 5t-37 19.5t-15.5 37t-3 59.5v934h264q43 0 67.5 -5.5t37 -19.5t15.5 -36.5t3 -59.5v-934h-264zM477 1214q-33 -22 -63 -32.5t-68 -10.5h-283l309 273q35 31 63.5 38t67.5 7h355z" />
    <glyph glyph-name="icircumflex" unicode="&#xee;" horiz-adv-x="551" 
d="M205 0q-43 0 -67.5 5t-37 19.5t-15.5 37t-3 59.5v934h264q43 0 67.5 -5.5t37 -19.5t15.5 -36.5t3 -59.5v-934h-264zM462 1171q-41 0 -72.5 7.5t-60.5 35.5l-53 54l-53 -54q-29 -28 -60.5 -35.5t-72.5 -7.5h-285l379 318h125q41 0 67.5 -8t63.5 -39l321 -271h-299z" />
    <glyph glyph-name="idieresis" unicode="&#xef;" horiz-adv-x="551" 
d="M205 0q-43 0 -67.5 5t-37 19.5t-15.5 37t-3 59.5v934h264q43 0 67.5 -5.5t37 -19.5t15.5 -36.5t3 -59.5v-934h-264zM-123 1196v291h338v-291h-338zM338 1196v291h338v-291h-338z" />
    <glyph glyph-name="eth" unicode="&#xf0;" horiz-adv-x="1225" 
d="M805 1325q74 -78 141.5 -163t117.5 -182t80 -209t30 -243q0 -266 -143.5 -409.5t-418.5 -143.5q-278 0 -419.5 143.5t-141.5 409.5q0 127 41 219.5t109.5 153t161 89t196.5 28.5q10 0 42 -3t61 -14q-13 17 -33.5 38.5l-41 43t-39 39t-30.5 27.5l-108 -70l-154 166l92 64
l-33.5 33.5t-42.5 37.5l267 199l90 -78l131 92l162 -190zM616 289q89 0 126.5 51t37.5 160q0 125 -45 174q-18 20 -49 28.5t-70 8.5q-165 0 -165 -211q0 -35 6 -73t23.5 -68.5t50 -50t85.5 -19.5z" />
    <glyph glyph-name="ntilde" unicode="&#xf1;" horiz-adv-x="1206" 
d="M870 0q-43 0 -67.5 5t-36.5 19.5t-15 37t-3 59.5v491q0 84 -37 111t-107 27q-59 0 -90 -15.5t-37 -19.5t-7 -11.5t-1 -11.5v-692h-264q-43 0 -67.5 5t-37 19.5t-15.5 37t-3 59.5v934h219q41 0 59.5 -12.5t28.5 -28.5q6 -10 13.5 -23.5t23.5 -13.5t33.5 11t29.5 20
q35 22 98.5 45.5t155.5 23.5q76 0 147 -16.5t125 -62.5t87 -128t33 -213v-657h-265zM964 1321q0 -29 -8 -46.5t-33 -39.5q-41 -35 -91 -50.5t-87 -15.5q-51 0 -89 12.5t-68.5 27t-57.5 26.5t-57 12q-17 0 -34 -2t-41 -11t-55.5 -25.5t-74.5 -47.5v168q0 29 9 46.5t32 39.5
q41 35 92 50.5t88 15.5q51 0 89 -12.5t69 -27t58.5 -26.5t58.5 -12q16 0 33.5 2t40 11t53 25.5t73.5 47.5v-168z" />
    <glyph glyph-name="ograve" unicode="&#xf2;" horiz-adv-x="1278" 
d="M1227 526q0 -268 -153.5 -408.5t-434.5 -140.5q-135 0 -243.5 36t-185.5 106.5t-118 173t-41 237.5q0 269 153.5 409t434.5 140q135 0 244.5 -35.5t185.5 -106.5t117 -173t41 -238zM823 528q0 115 -42 174.5t-142 59.5t-142 -59.5t-42 -174.5q0 -114 42 -173.5t142 -59.5
t142 59.5t42 173.5zM610 1171q-41 0 -69.5 10.5t-61.5 32.5l-383 275h356q37 0 66 -7t63 -38l310 -273h-281z" />
    <glyph glyph-name="oacute" unicode="&#xf3;" horiz-adv-x="1278" 
d="M1227 526q0 -268 -153.5 -408.5t-434.5 -140.5q-135 0 -243.5 36t-185.5 106.5t-118 173t-41 237.5q0 269 153.5 409t434.5 140q135 0 244.5 -35.5t185.5 -106.5t117 -173t41 -238zM823 528q0 115 -42 174.5t-142 59.5t-142 -59.5t-42 -174.5q0 -114 42 -173.5t142 -59.5
t142 59.5t42 173.5zM776 1214q-33 -22 -63 -32.5t-68 -10.5h-283l309 273q35 31 63.5 38t67.5 7h355z" />
    <glyph glyph-name="ocircumflex" unicode="&#xf4;" horiz-adv-x="1278" 
d="M1227 526q0 -268 -153.5 -408.5t-434.5 -140.5q-135 0 -243.5 36t-185.5 106.5t-118 173t-41 237.5q0 269 153.5 409t434.5 140q135 0 244.5 -35.5t185.5 -106.5t117 -173t41 -238zM823 528q0 115 -42 174.5t-142 59.5t-142 -59.5t-42 -174.5q0 -114 42 -173.5t142 -59.5
t142 59.5t42 173.5zM817 1171q-41 0 -72.5 7.5t-60.5 35.5l-53 54l-53 -54q-29 -28 -60.5 -35.5t-72.5 -7.5h-285l379 318h125q41 0 67.5 -8t63.5 -39l321 -271h-299z" />
    <glyph glyph-name="otilde" unicode="&#xf5;" horiz-adv-x="1278" 
d="M1227 526q0 -268 -153.5 -408.5t-434.5 -140.5q-135 0 -243.5 36t-185.5 106.5t-118 173t-41 237.5q0 269 153.5 409t434.5 140q135 0 244.5 -35.5t185.5 -106.5t117 -173t41 -238zM823 528q0 115 -42 174.5t-142 59.5t-142 -59.5t-42 -174.5q0 -114 42 -173.5t142 -59.5
t142 59.5t42 173.5zM987 1321q0 -29 -8 -46.5t-33 -39.5q-41 -35 -91 -50.5t-87 -15.5q-51 0 -89 12.5t-68.5 27t-57.5 26.5t-57 12q-17 0 -34 -2t-41 -11t-55.5 -25.5t-74.5 -47.5v168q0 29 9 46.5t32 39.5q41 35 92 50.5t88 15.5q51 0 89 -12.5t69 -27t58.5 -26.5
t58.5 -12q16 0 33.5 2t40 11t53 25.5t73.5 47.5v-168z" />
    <glyph glyph-name="odieresis" unicode="&#xf6;" horiz-adv-x="1278" 
d="M1227 526q0 -268 -153.5 -408.5t-434.5 -140.5q-135 0 -243.5 36t-185.5 106.5t-118 173t-41 237.5q0 269 153.5 409t434.5 140q135 0 244.5 -35.5t185.5 -106.5t117 -173t41 -238zM823 528q0 115 -42 174.5t-142 59.5t-142 -59.5t-42 -174.5q0 -114 42 -173.5t142 -59.5
t142 59.5t42 173.5zM240 1196v291h338v-291h-338zM701 1196v291h338v-291h-338z" />
    <glyph glyph-name="divide" unicode="&#xf7;" horiz-adv-x="1063" 
d="M51 377v301h961v-301h-961zM344 764v291h373v-291h-373zM344 0v291h373v-291h-373z" />
    <glyph glyph-name="oslash" unicode="&#xf8;" horiz-adv-x="1278" 
d="M1227 526q0 -268 -153.5 -408.5t-434.5 -140.5q-135 0 -243.5 36t-185.5 106.5t-118 173t-41 237.5q0 269 153.5 409t434.5 140q135 0 244.5 -35.5t185.5 -106.5t117 -173t41 -238zM745 741q-43 25 -106 25q-104 0 -151.5 -60.5t-47.5 -177.5q0 -104 37 -161zM549 305
q35 -14 90 -14q104 0 151.5 60.5t47.5 176.5q0 90 -27 144z" />
    <glyph glyph-name="ugrave" unicode="&#xf9;" horiz-adv-x="1198" 
d="M897 0q-41 0 -59.5 12.5t-28.5 28.5q-6 10 -13.5 23.5t-23.5 13.5t-33.5 -11.5t-29.5 -19.5q-35 -22 -96.5 -46t-153.5 -24q-74 0 -143.5 16.5t-124 62.5t-87 128t-32.5 213v658h264q43 0 67.5 -5.5t37 -19.5t15.5 -36.5t3 -59.5v-490q0 -84 34.5 -110.5t104.5 -26.5
q59 0 88 14.5t35 20.5t7 12t1 11v690h264q43 0 67.5 -5.5t37 -19.5t15.5 -36.5t3 -59.5v-934h-219zM543 1171q-41 0 -69.5 10.5t-61.5 32.5l-383 275h356q37 0 66 -7t63 -38l310 -273h-281z" />
    <glyph glyph-name="uacute" unicode="&#xfa;" horiz-adv-x="1198" 
d="M897 0q-41 0 -59.5 12.5t-28.5 28.5q-6 10 -13.5 23.5t-23.5 13.5t-33.5 -11.5t-29.5 -19.5q-35 -22 -96.5 -46t-153.5 -24q-74 0 -143.5 16.5t-124 62.5t-87 128t-32.5 213v658h264q43 0 67.5 -5.5t37 -19.5t15.5 -36.5t3 -59.5v-490q0 -84 34.5 -110.5t104.5 -26.5
q59 0 88 14.5t35 20.5t7 12t1 11v690h264q43 0 67.5 -5.5t37 -19.5t15.5 -36.5t3 -59.5v-934h-219zM754 1214q-33 -22 -63 -32.5t-68 -10.5h-283l309 273q35 31 63.5 38t67.5 7h355z" />
    <glyph glyph-name="ucircumflex" unicode="&#xfb;" horiz-adv-x="1198" 
d="M897 0q-41 0 -59.5 12.5t-28.5 28.5q-6 10 -13.5 23.5t-23.5 13.5t-33.5 -11.5t-29.5 -19.5q-35 -22 -96.5 -46t-153.5 -24q-74 0 -143.5 16.5t-124 62.5t-87 128t-32.5 213v658h264q43 0 67.5 -5.5t37 -19.5t15.5 -36.5t3 -59.5v-490q0 -84 34.5 -110.5t104.5 -26.5
q59 0 88 14.5t35 20.5t7 12t1 11v690h264q43 0 67.5 -5.5t37 -19.5t15.5 -36.5t3 -59.5v-934h-219zM778 1171q-41 0 -72.5 7.5t-60.5 35.5l-53 54l-53 -54q-29 -28 -60.5 -35.5t-72.5 -7.5h-285l379 318h125q41 0 67.5 -8t63.5 -39l321 -271h-299z" />
    <glyph glyph-name="udieresis" unicode="&#xfc;" horiz-adv-x="1198" 
d="M897 0q-41 0 -59.5 12.5t-28.5 28.5q-6 10 -13.5 23.5t-23.5 13.5t-33.5 -11.5t-29.5 -19.5q-35 -22 -96.5 -46t-153.5 -24q-74 0 -143.5 16.5t-124 62.5t-87 128t-32.5 213v658h264q43 0 67.5 -5.5t37 -19.5t15.5 -36.5t3 -59.5v-490q0 -84 34.5 -110.5t104.5 -26.5
q59 0 88 14.5t35 20.5t7 12t1 11v690h264q43 0 67.5 -5.5t37 -19.5t15.5 -36.5t3 -59.5v-934h-219zM188 1196v291h338v-291h-338zM649 1196v291h338v-291h-338z" />
    <glyph glyph-name="yacute" unicode="&#xfd;" horiz-adv-x="1198" 
d="M731 14q0 43 -22 43q-13 0 -33 -12q-47 -29 -106.5 -48.5t-114.5 -19.5q-72 0 -141.5 16.5t-123 62.5t-86 128t-32.5 213v658h264q43 0 67.5 -5.5t37 -19.5t15.5 -36.5t3 -59.5v-490q0 -84 34.5 -110.5t104.5 -26.5q59 0 88 14.5t35 20.5t7 12t1 11v690h264
q43 0 67.5 -5.5t37 -19.5t15.5 -36.5t3 -59.5v-907q0 -250 -137 -369t-373 -119q-110 0 -193 25.5t-137 56.5q-65 37 -108 84l174 201q23 -23 59 -39q29 -17 74 -28t105 -11q69 0 110 34t41 101v51zM748 1214q-33 -22 -63 -32.5t-68 -10.5h-283l309 273q35 31 63.5 38
t67.5 7h355z" />
    <glyph glyph-name="thorn" unicode="&#xfe;" horiz-adv-x="1245" 
d="M205 -365q-45 0 -69.5 5.5t-37 19.5t-14.5 36.5t-2 59.5v1733h264q45 0 69.5 -5t37 -19.5t14.5 -37t2 -59.5v-328q0 -43 20 -43q11 0 33 13q47 28 106.5 47.5t114.5 19.5q91 0 172.5 -32.5t143 -99t98.5 -170t37 -245.5q0 -143 -37 -247.5t-99.5 -172t-144.5 -100.5
t-170 -33q-55 0 -114.5 19.5t-106.5 48.5q-22 12 -33 12q-20 0 -20 -43v-379h-264zM469 360q0 -14 8 -20q10 -8 44 -21.5t75 -13.5q80 0 135 48t55 173q0 109 -40.5 166.5t-143.5 57.5q-59 0 -89 -15.5t-36 -19.5t-7 -11.5t-1 -11.5v-332z" />
    <glyph glyph-name="ydieresis" unicode="&#xff;" horiz-adv-x="1198" 
d="M731 14q0 43 -22 43q-13 0 -33 -12q-47 -29 -106.5 -48.5t-114.5 -19.5q-72 0 -141.5 16.5t-123 62.5t-86 128t-32.5 213v658h264q43 0 67.5 -5.5t37 -19.5t15.5 -36.5t3 -59.5v-490q0 -84 34.5 -110.5t104.5 -26.5q59 0 88 14.5t35 20.5t7 12t1 11v690h264
q43 0 67.5 -5.5t37 -19.5t15.5 -36.5t3 -59.5v-907q0 -250 -137 -369t-373 -119q-110 0 -193 25.5t-137 56.5q-65 37 -108 84l174 201q23 -23 59 -39q29 -17 74 -28t105 -11q69 0 110 34t41 101v51zM199 1196v291h338v-291h-338zM660 1196v291h338v-291h-338z" />
    <glyph glyph-name="breve" unicode="&#x2d8;" horiz-adv-x="844" 
d="M803 1481q-10 -68 -41 -126.5t-81 -101.5t-116.5 -66.5t-148.5 -23.5q-174 0 -266.5 86t-108.5 232h192q48 0 72.5 -11.5t38.5 -42.5q14 -30 38 -39.5t42 -9.5t41.5 9.5t36.5 39.5q14 35 40.5 44.5t73.5 9.5h187z" />
    <glyph glyph-name="dotaccent" unicode="&#x2d9;" horiz-adv-x="436" 
d="M41 1196v301h354v-301h-354z" />
    <glyph glyph-name="notequal" unicode="&#x2260;" horiz-adv-x="1102" 
d="M537 168l-70 -168h-322l70 168h-123v297h248l74 178h-322v297h447l69 168h328l-72 -168h146v-297h-271l-75 -178h346v-297h-473z" />
    <glyph glyph-name="infinity" unicode="&#x221e;" horiz-adv-x="1667" 
d="M829 426q-30 -23 -68 -46.5t-80 -43t-87 -31.5t-88 -12q-103 0 -179.5 28.5t-129 79t-79 119t-26.5 150.5q0 84 26.5 154.5t78 121.5t127 80t174.5 29q55 0 105 -12.5t93 -32t79 -42t65 -42.5q28 20 65 43.5t79 42t88 31t95 12.5q90 0 165 -27t129.5 -76t84 -118.5
t29.5 -155.5q0 -84 -29.5 -154.5t-82 -122t-125 -80t-158.5 -28.5q-52 0 -102 12t-95 31.5t-84 43t-70 46.5zM1016 676q41 -51 79 -73.5t66 -22.5q39 0 64.5 25.5t25.5 72.5q0 45 -23.5 66.5t-58.5 21.5q-75 0 -153 -90zM651 672q-35 41 -75.5 67.5t-69.5 26.5
q-47 0 -70.5 -25.5t-23.5 -70.5q0 -49 29.5 -69.5t64.5 -20.5q29 0 70.5 28.5t74.5 63.5z" />
    <glyph glyph-name="lessequal" unicode="&#x2264;" horiz-adv-x="1108" 
d="M92 766v272l924 363v-260q0 -60 -24.5 -82.5t-82.5 -36.5l-381 -115l385 -125q64 -22 83.5 -49.5t19.5 -75.5v-262zM92 0v317h924v-317h-924z" />
    <glyph glyph-name="greaterequal" unicode="&#x2265;" horiz-adv-x="1108" 
d="M92 395v260q0 60 24.5 82.5t82.5 36.5l381 115l-385 125q-66 20 -84.5 49t-18.5 76v262l924 -371v-272zM92 0v317h924v-317h-924z" />
    <glyph glyph-name="partialdiff" unicode="&#x2202;" horiz-adv-x="1245" 
d="M1204 899q0 -82 -16.5 -182.5t-40.5 -181.5q-33 -105 -83 -206.5t-128 -182t-186.5 -130t-255.5 -49.5q-103 0 -180.5 33t-132 90t-82 137t-27.5 174q0 142 47 253.5t123.5 189.5t174 120t195.5 42q54 0 113 -14.5t106 -45.5q5 12 9 36t4 52q0 43 -17.5 76t-45 53.5
t-65.5 30.5t-77 10q-18 0 -49 -4t-68 -11t-78 -17.5t-77 -24.5l-99 264q37 21 86 40t103.5 34.5t110 24t104.5 8.5q114 0 212.5 -29t169 -99.5t110.5 -189.5t40 -301zM784 641q-14 25 -41.5 41t-66.5 16q-86 0 -149.5 -74.5t-63.5 -222.5q0 -47 20.5 -77.5t53.5 -30.5
q38 0 75 25.5t69 71.5t58.5 109.5t44.5 141.5z" />
    <glyph glyph-name="summation" unicode="&#x2211;" horiz-adv-x="1348" 
d="M61 -182v127q0 45 14.5 83t39.5 68l422 537l-385 555q-54 65 -54 151v150h1147v-315h-602l361 -539l-386 -492h668v-325h-1225z" />
    <glyph glyph-name="product" unicode="&#x220f;" horiz-adv-x="1495" 
d="M1114 -182q-43 0 -67.5 5t-37 19.5t-15.5 37t-3 59.5v1226h-491v-1347h-275q-43 0 -67.5 5t-36.5 19.5t-15.5 37t-3.5 59.5v1550h1168q43 0 67.5 -5t36.5 -19.5t15.5 -37t3.5 -59.5v-1550h-279z" />
    <glyph glyph-name="pi" unicode="&#x3c0;" horiz-adv-x="1427" 
d="M1356 35q-72 -29 -128.5 -42t-127.5 -13q-129 0 -199 74.5t-70 215.5v471h-200v-358q0 -123 -18.5 -223.5t-45.5 -159.5h-334q29 88 42.5 176t13.5 141v408q-35 -4 -78 -12t-84 -25l-86 279q86 41 207 64.5t270 23.5h836v-314h-183v-422q0 -26 12.5 -36.5t30.5 -10.5
q19 0 38.5 4.5t35.5 8.5z" />
    <glyph glyph-name="integral" unicode="&#x222b;" horiz-adv-x="1042" 
d="M123 -33q88 -26 133 -26q29 0 49.5 15t20.5 50v1143q0 178 106.5 273.5t286.5 95.5q65 0 127.5 -11.5t134.5 -40.5l-61 -280q-89 26 -134 26q-28 0 -48.5 -15t-20.5 -50v-1143q0 -178 -106.5 -273.5t-286.5 -95.5q-66 0 -128.5 11.5t-134.5 40.5z" />
    <glyph glyph-name="Omega" unicode="&#x2126;" horiz-adv-x="1591" 
d="M901 0v309q37 43 65.5 106.5t48 137.5t30 152.5t10.5 150.5q0 160 -56.5 242t-197.5 82q-129 0 -194.5 -78t-65.5 -248q0 -74 9 -152.5t27.5 -151.5t47 -134.5t69.5 -104.5v-311h-602v336h191q-164 213 -164 541q0 143 44 260.5t130 202.5t214 131.5t294 46.5
q180 0 309 -47.5t211 -131.5t120 -200.5t38 -257.5q0 -156 -47.5 -292t-124.5 -253h192v-336h-598z" />
    <glyph glyph-name="radical" unicode="&#x221a;" horiz-adv-x="1329" 
d="M672 -18q-41 0 -66.5 9t-43 24.5t-29 37t-21.5 43.5l-211 430l-102 -47l-148 262l424 228l209 -449l248 899q12 41 19 71t19.5 48t36 26.5t66.5 8.5h256l-455 -1591h-202z" />
    <glyph glyph-name="approxequal" unicode="&#x2248;" horiz-adv-x="1106" 
d="M1014 688q-90 -65 -158 -82.5t-119 -17.5q-55 0 -101 16.5t-87 35.5t-83 35.5t-89 16.5q-68 0 -132.5 -17.5t-152.5 -84.5v315q90 66 170 83.5t131 17.5q56 0 102 -16.5t88 -36t83 -36t90 -16.5q32 0 61 3t57.5 14.5t62.5 31t77 54.5v-316zM1014 236q-90 -66 -170 -83.5
t-131 -17.5q-56 0 -102 16.5t-87 36t-83 36t-89 16.5q-35 0 -62.5 -3.5t-57 -14.5t-63.5 -31.5t-77 -53.5v316q90 65 157.5 82.5t119.5 17.5q55 0 101 -16.5t88 -36t83 -35.5t90 -16q33 0 65.5 3t66.5 14t71 30.5t80 54.5v-315z" />
    <glyph glyph-name="Delta" unicode="&#x394;" horiz-adv-x="1593" 
d="M797 1104l-262 -776h505zM0 0l555 1489h408q53 0 82.5 -24.5t46.5 -71.5l501 -1393h-1593z" />
    <glyph glyph-name="Delta" unicode="&#x2206;" horiz-adv-x="1593" 
d="M797 1104l-262 -776h505zM0 0l555 1489h408q53 0 82.5 -24.5t46.5 -71.5l501 -1393h-1593z" />
    <glyph glyph-name="lozenge" unicode="&#x25ca;" horiz-adv-x="1296" 
d="M840 649l-195 367l-192 -365l196 -362zM623 -186q-41 0 -66 9t-41 24.5t-27.5 37t-25.5 43.5l-422 723l491 840h162q41 0 65.5 -9t42 -24.5t29 -37t23.5 -44.5l401 -725l-491 -837h-141z" />
    <glyph glyph-name="litre" unicode="&#x2113;" horiz-adv-x="1090" 
d="M1008 119q-25 -25 -62 -51.5t-83 -47t-103.5 -34t-120.5 -13.5q-90 0 -156.5 16.5t-112.5 55.5t-68.5 104.5t-22.5 161.5v95l-89 -91l-108 144l197 205v456q0 209 85 313.5t281 104.5q68 0 118 -19.5t84 -53t51 -79t17 -96.5q0 -147 -68.5 -285.5t-172.5 -267.5l-66 -80
v-321q0 -76 32 -96.5t75 -20.5q49 0 90 18.5t94 67.5zM608 969q51 80 81 156.5t30 140.5q0 32 -9.5 52.5t-29.5 20.5q-72 0 -72 -180v-190z" />
    <glyph glyph-name="estimated" unicode="&#x212e;" horiz-adv-x="1454" 
d="M362 655v-452q152 -146 359 -146q92 0 164.5 22.5t131 61.5t105.5 93.5t88 119.5q21 -10 39.5 -22.5t38.5 -24.5q-49 -74 -104.5 -135t-123 -104t-150.5 -68t-189 -25q-146 0 -263.5 54.5t-201.5 146.5t-129 216t-45 265q0 142 45 267t128 218t203 146t269 53
q152 0 270.5 -54t201.5 -147t127 -218t46 -267h-1010zM1087 1112q-69 66 -163.5 107t-198.5 41q-107 0 -199 -37t-164 -109v-377h725v375z" />
    <glyph glyph-name="uni2215" unicode="&#x2215;" horiz-adv-x="1245" 
d="M-20 -66l882 1491q29 48 62.5 72.5t87.5 24.5h254l-887 -1491q-29 -47 -62.5 -72t-87.5 -25h-249z" />
    <glyph glyph-name="uni00AD" unicode="&#xad;" horiz-adv-x="879" 
d="M72 387v322h735v-322h-735z" />
    <glyph glyph-name="uni03A9" unicode="&#x3a9;" horiz-adv-x="1591" 
d="M901 0v309q37 43 65.5 106.5t48 137.5t30 152.5t10.5 150.5q0 160 -56.5 242t-197.5 82q-129 0 -194.5 -78t-65.5 -248q0 -74 9 -152.5t27.5 -151.5t47 -134.5t69.5 -104.5v-311h-602v336h191q-164 213 -164 541q0 143 44 260.5t130 202.5t214 131.5t294 46.5
q180 0 309 -47.5t211 -131.5t120 -200.5t38 -257.5q0 -156 -47.5 -292t-124.5 -253h192v-336h-598z" />
    <glyph glyph-name="uni03BC" unicode="&#x3bc;" horiz-adv-x="1198" 
d="M897 0q-41 0 -59.5 12.5t-28.5 28.5q-6 10 -13.5 23.5t-23.5 13.5t-33.5 -11.5t-29.5 -19.5q-35 -24 -84.5 -47t-118.5 -23q-21 0 -47 7v-349h-264q-45 0 -70 5.5t-37 19.5t-14 36.5t-2 59.5v1299h264q43 0 67.5 -5.5t37 -19.5t15.5 -36.5t3 -59.5v-490
q0 -84 34.5 -110.5t104.5 -26.5q59 0 88 14.5t35 20.5t7 12t1 11v690h264q43 0 67.5 -5.5t37 -19.5t15.5 -36.5t3 -59.5v-934h-219z" />
    <glyph glyph-name="uni02C9" unicode="&#x2c9;" horiz-adv-x="733" 
d="M41 1217v221h651v-221h-651z" />
    <glyph glyph-name="uni2219" unicode="&#x2219;" horiz-adv-x="436" 
d="M41 1196v301h354v-301h-354z" />
    <glyph glyph-name="commaaccent" horiz-adv-x="584" 
d="M168 -387q43 18 58.5 44t15.5 73h-86v168h272v-99q0 -104 -48 -170.5t-181 -89.5z" />
    <glyph glyph-name="commaaccentalt" horiz-adv-x="584" 
d="M437 1610q-55 -56 -76 -166h64v-248h-277v121q0 252 181 395z" />
    <glyph glyph-name="caronalt" horiz-adv-x="584" 
d="M102 979q76 63 103 190h-88v320h344v-152q0 -153 -45 -273t-170 -214z" />
    <glyph glyph-name="Gbreve" unicode="&#x11e;" horiz-adv-x="1473" 
d="M1163 0q-53 0 -78.5 16.5t-48.5 38.5q-32 33 -49 33q-12 0 -27.5 -11t-46.5 -34q-18 -14 -83.5 -40t-157.5 -26q-137 0 -247 43t-185.5 135.5t-116.5 234.5t-41 341q0 211 48 360.5t142.5 245t233.5 138.5t321 43q103 0 198 -19.5t169 -42t120 -43t50 -22.5l-121 -295
q-20 -58 -61 -58q-29 0 -74 33q-78 57 -143.5 83t-147.5 26q-74 0 -130 -22.5t-93 -73t-55.5 -133.5t-18.5 -203q0 -123 14.5 -207t49 -134.5t92 -73t141.5 -22.5q45 0 75 9.5t52 19.5q29 14 29 43v457h295q43 0 67.5 -5.5t36.5 -19.5t15.5 -36.5t3.5 -59.5v-719h-228z
M1145 1915q-10 -68 -41 -126.5t-81 -101.5t-116.5 -66.5t-148.5 -23.5q-174 0 -266.5 86t-108.5 232h192q48 0 72.5 -11.5t38.5 -42.5q14 -30 38 -39.5t42 -9.5t41.5 9.5t36.5 39.5q14 35 40.5 44.5t73.5 9.5h187z" />
    <glyph glyph-name="gbreve" unicode="&#x11f;" horiz-adv-x="1245" 
d="M778 14q0 43 -22 43q-13 0 -33 -12q-47 -29 -106.5 -48.5t-114.5 -19.5q-90 0 -172 33t-143.5 99.5t-98.5 170t-37 244.5q0 144 37 248.5t99.5 172t144.5 100t170 32.5q92 0 155.5 -23.5t98.5 -45.5q12 -9 29.5 -20t33.5 -11q17 0 24 13.5t13 23.5q10 16 28.5 28.5
t59.5 12.5h219v-1028q0 -250 -137 -369t-373 -119q-110 0 -193 25.5t-136 56.5q-66 37 -109 84l174 201q23 -23 60 -39q28 -17 73 -28t105 -11q69 0 110 34t41 101v51zM776 694q0 15 -8 21q-10 8 -44 21.5t-75 13.5q-80 0 -135 -48.5t-55 -173.5q0 -108 41 -165.5t143 -57.5
q59 0 89 15.5t36 19.5t7 11t1 11v332zM1004 1481q-10 -68 -41 -126.5t-81 -101.5t-116.5 -66.5t-148.5 -23.5q-174 0 -266.5 86t-108.5 232h192q48 0 72.5 -11.5t38.5 -42.5q14 -30 38 -39.5t42 -9.5t41.5 9.5t36.5 39.5q14 35 40.5 44.5t73.5 9.5h187z" />
    <glyph glyph-name="uni015E" unicode="&#x15e;" horiz-adv-x="1194" 
d="M375 -309q6 30 16 38.5t30.5 8.5t39 -6t35.5 -6q55 0 55 45q0 12 -17.5 29.5t-80.5 17.5l24 159q-90 5 -220 26.5t-196 39.5l48 328q221 -52 426 -52q194 0 194 148q0 65 -58.5 91t-193.5 50.5t-222 69.5t-138 127t-51 223q0 225 145 354t409.5 129t493.5 -110l-100 -297
q-17 -51 -50.5 -51t-97.5 43q-112 78 -239 78q-76 0 -118 -40t-42 -104.5t45 -90.5t152 -46l53 -10q235 -45 330.5 -141.5t95.5 -272.5q0 -207 -111.5 -330t-320.5 -151l-9 -72q62 -18 93.5 -55t31.5 -115q0 -108 -74.5 -167.5t-210.5 -59.5t-198 28z" />
    <glyph glyph-name="uni015F" unicode="&#x15f;" horiz-adv-x="1022" 
d="M281 -309q6 30 16 38.5t30.5 8.5t39 -6t34.5 -6q56 0 56 45q0 12 -17.5 29.5t-81.5 17.5l25 162q-141 6 -344 47l33 307q227 -53 395 -53q72 0 99.5 14t27.5 43t-17.5 42t-80.5 23q-195 27 -282 54.5t-135 93t-48 166.5q0 176 134 268t402 92q185 0 406 -76l-92 -243
q-21 -56 -64 -56q-22 0 -67 25q-80 49 -189 49q-139 0 -139 -63q0 -31 24.5 -42.5t135.5 -25.5q235 -31 319 -100.5t84 -212.5q0 -295 -369 -344l-8 -72q62 -18 93.5 -55t31.5 -115q0 -108 -74.5 -167.5t-211 -59.5t-197.5 28z" />
    <glyph glyph-name="Cacute" unicode="&#x106;" horiz-adv-x="1337" 
d="M1268 49q-72 -20 -154 -35q-70 -14 -159 -24t-183 -10q-172 0 -301 40.5t-215 133t-130 239t-44 357.5q0 204 51 349.5t142.5 239t216 136.5t272.5 43q102 0 196.5 -17.5t166 -39t116.5 -41t49 -21.5l-114 -293q-23 -55 -64 -55q-27 0 -45 10t-47 33q-47 36 -108.5 55.5
t-149.5 19.5q-53 0 -100.5 -20.5t-81 -68.5t-53 -129t-19.5 -201q0 -123 15.5 -204t51 -129t92 -66.5t136.5 -18.5q76 0 150.5 7t134.5 17q69 11 133 25zM838 1648q-33 -22 -63 -32.5t-68 -10.5h-283l309 273q35 31 63.5 38t67.5 7h355z" />
    <glyph glyph-name="cacute" unicode="&#x107;" horiz-adv-x="1061" 
d="M1008 33q-74 -17 -128.5 -27t-99.5 -16t-87 -9.5t-91 -3.5q-129 0 -230.5 32t-173 98.5t-109.5 169t-38 243.5q0 144 42 247t118 171t180.5 100.5t229.5 32.5q77 0 149 -13.5t127 -29.5q66 -20 123 -43l-80 -215q-14 -35 -32.5 -58.5t-55.5 -23.5q-29 0 -54.5 14.5
t-43.5 22.5q-27 10 -59.5 18.5t-67.5 8.5q-80 0 -126 -52.5t-46 -177.5q0 -110 42 -169.5t150 -59.5q96 0 174 17.5t156 31.5zM680 1214q-33 -22 -63 -32.5t-68 -10.5h-283l309 273q35 31 63.5 38t67.5 7h355z" />
    <glyph glyph-name="Ccaron" unicode="&#x10c;" horiz-adv-x="1337" 
d="M1268 49q-72 -20 -154 -35q-70 -14 -159 -24t-183 -10q-172 0 -301 40.5t-215 133t-130 239t-44 357.5q0 204 51 349.5t142.5 239t216 136.5t272.5 43q102 0 196.5 -17.5t166 -39t116.5 -41t49 -21.5l-114 -293q-23 -55 -64 -55q-27 0 -45 10t-47 33q-47 36 -108.5 55.5
t-149.5 19.5q-53 0 -100.5 -20.5t-81 -68.5t-53 -129t-19.5 -201q0 -123 15.5 -204t51 -129t92 -66.5t136.5 -18.5q76 0 150.5 7t134.5 17q69 11 133 25zM837 1597h-124q-41 0 -68 8.5t-64 38.5l-321 271h299q41 0 72.5 -7.5t60.5 -35.5l53 -54l54 54q28 28 60 35.5t73 7.5
h284z" />
    <glyph glyph-name="ccaron" unicode="&#x10d;" horiz-adv-x="1061" 
d="M1008 33q-74 -17 -128.5 -27t-99.5 -16t-87 -9.5t-91 -3.5q-129 0 -230.5 32t-173 98.5t-109.5 169t-38 243.5q0 144 42 247t118 171t180.5 100.5t229.5 32.5q77 0 149 -13.5t127 -29.5q66 -20 123 -43l-80 -215q-14 -35 -32.5 -58.5t-55.5 -23.5q-29 0 -54.5 14.5
t-43.5 22.5q-27 10 -59.5 18.5t-67.5 8.5q-80 0 -126 -52.5t-46 -177.5q0 -110 42 -169.5t150 -59.5q96 0 174 17.5t156 31.5zM655 1163h-124q-41 0 -68 8.5t-64 38.5l-321 271h299q41 0 72.5 -7.5t60.5 -35.5l53 -54l54 54q28 28 60 35.5t73 7.5h284z" />
    <glyph glyph-name="Amacron" unicode="&#x100;" horiz-adv-x="1581" 
d="M797 1104l-154 -516h299zM1241 0q-53 0 -82 24.5t-47 71.5l-63 164h-517l-67 -164q-21 -47 -48.5 -71.5t-80.5 -24.5h-336l555 1489h408q53 0 81.5 -24.5t47.5 -71.5l501 -1393h-352zM467 1651v221h651v-221h-651z" />
    <glyph glyph-name="amacron" unicode="&#x101;" horiz-adv-x="1245" 
d="M944 0q-41 0 -59.5 12.5t-28.5 28.5q-6 10 -13 23.5t-24 13.5q-16 0 -33.5 -11.5t-29.5 -19.5q-35 -22 -98.5 -46t-155.5 -24q-90 0 -172 33t-143.5 99.5t-98.5 170t-37 244.5q0 144 37 248.5t99.5 172t144.5 100t170 32.5q92 0 155.5 -23.5t98.5 -45.5q12 -9 29.5 -20
t33.5 -11q17 0 24 13.5t13 23.5q10 16 28.5 28.5t59.5 12.5h219v-1055h-219zM776 694q0 15 -8 21q-10 8 -44 21.5t-75 13.5q-80 0 -135 -48.5t-55 -173.5q0 -108 41 -165.5t143 -57.5q59 0 89 15.5t36 19.5t7 11t1 11v332zM297 1217v221h651v-221h-651z" />
    <glyph glyph-name="Abreve" unicode="&#x102;" horiz-adv-x="1581" 
d="M797 1104l-154 -516h299zM1241 0q-53 0 -82 24.5t-47 71.5l-63 164h-517l-67 -164q-21 -47 -48.5 -71.5t-80.5 -24.5h-336l555 1489h408q53 0 81.5 -24.5t47.5 -71.5l501 -1393h-352zM1176 1915q-10 -68 -41 -126.5t-81 -101.5t-116.5 -66.5t-148.5 -23.5
q-174 0 -266.5 86t-108.5 232h192q48 0 72.5 -11.5t38.5 -42.5q14 -30 38 -39.5t42 -9.5t41.5 9.5t36.5 39.5q14 35 40.5 44.5t73.5 9.5h187z" />
    <glyph glyph-name="abreve" unicode="&#x103;" horiz-adv-x="1245" 
d="M944 0q-41 0 -59.5 12.5t-28.5 28.5q-6 10 -13 23.5t-24 13.5q-16 0 -33.5 -11.5t-29.5 -19.5q-35 -22 -98.5 -46t-155.5 -24q-90 0 -172 33t-143.5 99.5t-98.5 170t-37 244.5q0 144 37 248.5t99.5 172t144.5 100t170 32.5q92 0 155.5 -23.5t98.5 -45.5q12 -9 29.5 -20
t33.5 -11q17 0 24 13.5t13 23.5q10 16 28.5 28.5t59.5 12.5h219v-1055h-219zM776 694q0 15 -8 21q-10 8 -44 21.5t-75 13.5q-80 0 -135 -48.5t-55 -173.5q0 -108 41 -165.5t143 -57.5q59 0 89 15.5t36 19.5t7 11t1 11v332zM1004 1481q-10 -68 -41 -126.5t-81 -101.5
t-116.5 -66.5t-148.5 -23.5q-174 0 -266.5 86t-108.5 232h192q48 0 72.5 -11.5t38.5 -42.5q14 -30 38 -39.5t42 -9.5t41.5 9.5t36.5 39.5q14 35 40.5 44.5t73.5 9.5h187z" />
    <glyph glyph-name="Aogonek" unicode="&#x104;" horiz-adv-x="1581" 
d="M1593 0q-50 -18 -80.5 -47.5t-47 -62.5t-22 -63.5t-5.5 -49.5q0 -25 15 -38t38 -13q11 0 32 4t38 4q37 0 51 -23.5t20 -58.5l15 -82q-25 -12 -55 -21.5t-61 -16t-61 -10t-55 -3.5q-41 0 -86 9t-82.5 32t-61.5 62.5t-24 101.5q0 88 45.5 159.5t126.5 116.5h-92
q-54 0 -82 24t-47 72l-63 164h-517l-67 -164q-20 -48 -47.5 -72t-81.5 -24h-336l555 1489h408q53 0 81.5 -24.5t47.5 -71.5zM797 1104l-154 -516h299z" />
    <glyph glyph-name="aogonek" unicode="&#x105;" horiz-adv-x="1245" 
d="M776 694q0 5 -1 10.5t-7 10.5q-5 4 -17 10t-28 11.5t-35 9.5t-39 4q-40 0 -74.5 -11.5t-60 -37.5t-40.5 -68.5t-15 -104.5q0 -54 10 -95.5t31.5 -70t56.5 -43t86 -14.5q30 0 52 4.5t37.5 10.5t24 12t11.5 8q6 5 7 12t1 10v332zM502 -23q-91 0 -172.5 32.5t-143.5 99.5
t-98.5 170.5t-36.5 244.5q0 143 37.5 247t99.5 172t143.5 101t170.5 33q46 0 85 -7t71 -17t56.5 -22.5t41.5 -22.5q12 -8 29 -19.5t34 -11.5q16 0 23.5 13t13.5 24q9 16 28 28.5t60 12.5h219v-1055q-40 -25 -64.5 -55t-38.5 -60t-19 -58.5t-5 -49.5q0 -25 15.5 -38t38.5 -13
q11 0 31.5 4t37.5 4q37 0 51.5 -23.5t20.5 -58.5l14 -82q-24 -12 -54 -21.5t-61.5 -16t-61.5 -10t-54 -3.5q-42 0 -86.5 9t-82 32t-61.5 62.5t-24 101.5q0 88 36.5 152.5t102.5 117.5q8 6 14.5 13.5t6.5 21.5q0 17 -15 33t-53 16q-29 0 -52 -9.5t-44 -21.5
q-17 -10 -41.5 -22.5t-56.5 -23t-71 -17.5t-85 -7z" />
    <glyph glyph-name="Dcaron" unicode="&#x10e;" horiz-adv-x="1487" 
d="M522 330q31 -2 74 -2h72q100 0 162.5 14t98.5 59t48 128t12 221q0 137 -12 219t-48 127t-98.5 59t-162.5 14h-80.5t-65.5 -4v-835zM102 1497q107 2 224.5 3t287.5 1q166 0 289 -16.5t211 -52t144.5 -93t89 -141.5t45 -196.5t12.5 -256.5q0 -215 -31 -360t-117 -233.5
t-240.5 -126t-402.5 -37.5q-45 0 -100 1t-108.5 3t-101.5 4t-79 4q-43 2 -67.5 8t-36.5 19.5t-15.5 35t-3.5 58.5v1376zM786 1597h-124q-41 0 -68 8.5t-64 38.5l-321 271h299q41 0 72.5 -7.5t60.5 -35.5l53 -54l54 54q28 28 60 35.5t73 7.5h284z" />
    <glyph glyph-name="dcaron" unicode="&#x10f;" horiz-adv-x="1559" 
d="M944 0q-41 0 -59.5 12.5t-28.5 28.5q-6 10 -13 23.5t-24 13.5q-16 0 -33.5 -11.5t-29.5 -19.5q-35 -22 -98.5 -46t-155.5 -24q-90 0 -172 33t-143.5 99.5t-98.5 170t-37 244.5q0 144 38 248.5t100.5 172t144.5 100t170 32.5q55 0 113.5 -19.5t105.5 -47.5q20 -13 33 -13
q20 0 20 43v449h264q45 0 70 -5t37 -19.5t14 -37t2 -59.5v-1368h-219zM776 694q0 15 -8 21q-10 8 -44 21.5t-75 13.5q-80 0 -135 -48.5t-55 -173.5q0 -108 41 -165.5t143 -57.5q59 0 89 15.5t36 19.5t7 11t1 11v332zM1240 979q76 63 103 190h-88v320h344v-152
q0 -153 -45 -273t-170 -214z" />
    <glyph glyph-name="Dcroat" unicode="&#x110;" horiz-adv-x="1487" 
d="M102 588h-143v321h143v588q107 2 224.5 3t287.5 1q166 0 289 -16.5t211 -52t144.5 -93t89 -141.5t45 -196.5t12.5 -256.5q0 -215 -31 -360t-117 -233.5t-240.5 -126t-402.5 -37.5q-45 0 -100 1t-108.5 3t-101.5 4t-79 4q-43 2 -67.5 8t-36.5 19.5t-15.5 35t-3.5 58.5v467
zM522 588v-258q31 -2 74 -2h72q100 0 162.5 14t98.5 59t48 128t12 221q0 137 -12 219t-48 127t-98.5 59t-162.5 14h-80.5t-65.5 -4v-256h213v-321h-213z" />
    <glyph glyph-name="dcroat" unicode="&#x111;" horiz-adv-x="1245" 
d="M944 0q-42 0 -60.5 12t-27.5 29q-6 11 -13.5 24t-23.5 13q-17 0 -34 -11.5t-29 -19.5q-17 -11 -41.5 -23t-56.5 -22.5t-71 -17.5t-85 -7q-91 0 -172.5 32.5t-143.5 99.5t-98.5 170.5t-36.5 244.5q0 143 37.5 247t100.5 172t144.5 101t170.5 33q56 0 113.5 -19t105.5 -48
q20 -13 33 -13q20 0 20 43v136h-289v213h289v100h264q42 0 66 -5t36.5 -16.5t16 -30.5t4.5 -48h78v-213h-78v-1176h-219zM776 694q0 5 -1 10.5t-7 10.5q-5 4 -17 10t-28 11.5t-35 9.5t-39 4q-40 0 -74.5 -11.5t-60 -37.5t-40.5 -68.5t-15 -104.5q0 -54 10 -95.5t31.5 -70
t56.5 -43t86 -14.5q30 0 52 4.5t37.5 10.5t24 12t11.5 8q6 5 7 12t1 10v332z" />
    <glyph glyph-name="Emacron" unicode="&#x112;" horiz-adv-x="1286" 
d="M225 0q-43 0 -67.5 5t-36.5 19.5t-15.5 37t-3.5 59.5v1368h1080v-340h-664v-221h617v-340h-617v-242h686v-346h-979zM305 1651v221h651v-221h-651z" />
    <glyph glyph-name="emacron" unicode="&#x113;" horiz-adv-x="1202" 
d="M1106 27q-115 -23 -217.5 -36.5t-218.5 -13.5q-152 0 -267.5 30t-193.5 95.5t-118 170t-40 253.5q0 129 42 232.5t117 174.5t181.5 108.5t235.5 37.5q110 0 204.5 -22.5t163 -71.5t107.5 -127t39 -186q0 -92 -29 -147.5t-76 -88.5q-30 -22 -75.5 -35.5t-101.5 -22.5
t-120.5 -12.5t-130.5 -3.5h-57t-49 3q-25 0 -47 2q8 -66 66.5 -87.5t189.5 -21.5q65 0 129.5 7t115.5 18q60 10 115 24zM446 584h76t66 2q59 2 98 7t59 21q17 13 26 29t9 45q0 47 -30.5 80t-106.5 33q-88 0 -142.5 -55.5t-54.5 -161.5zM277 1217v221h651v-221h-651z" />
    <glyph glyph-name="Edotaccent" unicode="&#x116;" horiz-adv-x="1286" 
d="M225 0q-43 0 -67.5 5t-36.5 19.5t-15.5 37t-3.5 59.5v1368h1080v-340h-664v-221h617v-340h-617v-242h686v-346h-979zM487 1630v301h354v-301h-354z" />
    <glyph glyph-name="edotaccent" unicode="&#x117;" horiz-adv-x="1202" 
d="M1106 27q-115 -23 -217.5 -36.5t-218.5 -13.5q-152 0 -267.5 30t-193.5 95.5t-118 170t-40 253.5q0 129 42 232.5t117 174.5t181.5 108.5t235.5 37.5q110 0 204.5 -22.5t163 -71.5t107.5 -127t39 -186q0 -92 -29 -147.5t-76 -88.5q-30 -22 -75.5 -35.5t-101.5 -22.5
t-120.5 -12.5t-130.5 -3.5h-57t-49 3q-25 0 -47 2q8 -66 66.5 -87.5t189.5 -21.5q65 0 129.5 7t115.5 18q60 10 115 24zM446 584h76t66 2q59 2 98 7t59 21q17 13 26 29t9 45q0 47 -30.5 80t-106.5 33q-88 0 -142.5 -55.5t-54.5 -161.5zM424 1196v301h354v-301h-354z" />
    <glyph glyph-name="Eogonek" unicode="&#x118;" horiz-adv-x="1286" 
d="M1204 0q-54 -20 -84 -52.5t-45 -66t-18.5 -62.5t-3.5 -42q0 -25 15 -38t38 -13q11 0 32 4t38 4q37 0 51 -23.5t20 -58.5l15 -82q-25 -12 -55 -21.5t-61 -16t-61 -10t-55 -3.5q-41 0 -86 9t-82.5 32t-61.5 62.5t-24 101.5q0 88 45.5 160.5t126.5 115.5h-723
q-42 0 -66.5 5.5t-37 19t-16 37t-3.5 59.5v1368h1080v-340h-664v-221h617v-340h-617v-242h686v-346z" />
    <glyph glyph-name="eogonek" unicode="&#x119;" horiz-adv-x="1202" 
d="M928 -430q-25 -12 -55 -21.5t-61 -16t-61 -10t-55 -3.5q-41 0 -86 9t-82.5 32t-61.5 62.5t-24 101.5q0 80 33 142.5t92 115.5q-128 8 -224.5 43t-161 101t-97.5 164.5t-33 235.5q0 130 41.5 232.5t117.5 173.5t182 109t235 38q111 0 205.5 -22.5t163 -71.5t107 -126.5
t38.5 -186.5q0 -91 -29 -147.5t-76 -88.5q-30 -21 -76 -35.5t-102 -23t-120 -12t-130 -3.5q-30 0 -58 0.5t-49 1.5q-25 1 -46 3q4 -33 20 -54t46.5 -33.5t77.5 -17t112 -4.5q66 0 130 7.5t115 16.5q60 11 115 25l35 -280q-81 -16 -153.5 -26.5t-147.5 -16.5
q-32 -37 -49 -69.5t-25.5 -59t-10 -46.5t-1.5 -32q0 -25 15 -38t38 -13q11 0 32 4t38 4q37 0 51 -23.5t20 -58.5zM446 584h76t66 2q59 2 98 7.5t59 20.5q17 13 26 29.5t9 44.5q0 23 -7.5 43.5t-23.5 36t-42.5 24.5t-63.5 9q-44 0 -80 -14t-62 -41.5t-40.5 -68t-14.5 -93.5z
" />
    <glyph glyph-name="Ecaron" unicode="&#x11a;" horiz-adv-x="1286" 
d="M225 0q-43 0 -67.5 5t-36.5 19.5t-15.5 37t-3.5 59.5v1368h1080v-340h-664v-221h617v-340h-617v-242h686v-346h-979zM743 1597h-124q-41 0 -68 8.5t-64 38.5l-321 271h299q41 0 72.5 -7.5t60.5 -35.5l53 -54l54 54q28 28 60 35.5t73 7.5h284z" />
    <glyph glyph-name="ecaron" unicode="&#x11b;" horiz-adv-x="1202" 
d="M1106 27q-115 -23 -217.5 -36.5t-218.5 -13.5q-152 0 -267.5 30t-193.5 95.5t-118 170t-40 253.5q0 129 42 232.5t117 174.5t181.5 108.5t235.5 37.5q110 0 204.5 -22.5t163 -71.5t107.5 -127t39 -186q0 -92 -29 -147.5t-76 -88.5q-30 -22 -75.5 -35.5t-101.5 -22.5
t-120.5 -12.5t-130.5 -3.5h-57t-49 3q-25 0 -47 2q8 -66 66.5 -87.5t189.5 -21.5q65 0 129.5 7t115.5 18q60 10 115 24zM446 584h76t66 2q59 2 98 7t59 21q17 13 26 29t9 45q0 47 -30.5 80t-106.5 33q-88 0 -142.5 -55.5t-54.5 -161.5zM704 1163h-124q-41 0 -68 8.5
t-64 38.5l-321 271h299q41 0 72.5 -7.5t60.5 -35.5l53 -54l54 54q28 28 60 35.5t73 7.5h284z" />
    <glyph glyph-name="Gcommaaccent" unicode="&#x122;" horiz-adv-x="1473" 
d="M1163 0q-53 0 -78.5 16.5t-48.5 38.5q-32 33 -49 33q-12 0 -27.5 -11t-46.5 -34q-18 -14 -83.5 -40t-157.5 -26q-137 0 -247 43t-185.5 135.5t-116.5 234.5t-41 341q0 211 48 360.5t142.5 245t233.5 138.5t321 43q103 0 198 -19.5t169 -42t120 -43t50 -22.5l-121 -295
q-20 -58 -61 -58q-29 0 -74 33q-78 57 -143.5 83t-147.5 26q-74 0 -130 -22.5t-93 -73t-55.5 -133.5t-18.5 -203q0 -123 14.5 -207t49 -134.5t92 -73t141.5 -22.5q45 0 75 9.5t52 19.5q29 14 29 43v457h295q43 0 67.5 -5.5t36.5 -19.5t15.5 -36.5t3.5 -59.5v-719h-228z
M622 -387q43 18 58.5 44t15.5 73h-86v168h272v-99q0 -104 -48 -170.5t-181 -89.5z" />
    <glyph glyph-name="gcommaaccent" unicode="&#x123;" horiz-adv-x="1245" 
d="M778 14q0 43 -22 43q-13 0 -33 -12q-47 -29 -106.5 -48.5t-114.5 -19.5q-90 0 -172 33t-143.5 99.5t-98.5 170t-37 244.5q0 144 37 248.5t99.5 172t144.5 100t170 32.5q92 0 155.5 -23.5t98.5 -45.5q12 -9 29.5 -20t33.5 -11q17 0 24 13.5t13 23.5q10 16 28.5 28.5
t59.5 12.5h219v-1028q0 -250 -137 -369t-373 -119q-110 0 -193 25.5t-136 56.5q-66 37 -109 84l174 201q23 -23 60 -39q28 -17 73 -28t105 -11q69 0 110 34t41 101v51zM776 694q0 15 -8 21q-10 8 -44 21.5t-75 13.5q-80 0 -135 -48.5t-55 -173.5q0 -108 41 -165.5t143 -57.5
q59 0 89 15.5t36 19.5t7 11t1 11v332zM770 1610q-55 -56 -76 -166h64v-248h-277v121q0 252 181 395z" />
    <glyph glyph-name="Imacron" unicode="&#x12a;" horiz-adv-x="627" 
d="M225 0q-43 0 -67.5 5t-36.5 19.5t-15.5 37t-3.5 59.5v1368h299q43 0 68 -5t37 -19.5t15 -37t3 -59.5v-1368h-299zM-12 1651v221h651v-221h-651z" />
    <glyph glyph-name="imacron" unicode="&#x12b;" horiz-adv-x="551" 
d="M205 0q-43 0 -67.5 5t-37 19.5t-15.5 37t-3 59.5v934h264q43 0 67.5 -5.5t37 -19.5t15.5 -36.5t3 -59.5v-934h-264zM-51 1217v221h651v-221h-651z" />
    <glyph glyph-name="Iogonek" unicode="&#x12e;" horiz-adv-x="627" 
d="M524 0q-56 -14 -89.5 -43.5t-51.5 -63.5t-23.5 -66t-5.5 -50q0 -25 15.5 -38t38.5 -13q11 0 31.5 4t37.5 4q37 0 51.5 -23.5t20.5 -58.5l14 -82q-24 -12 -54 -21.5t-61.5 -16t-61.5 -10t-54 -3.5q-42 0 -86.5 9t-82 32t-61.5 62.5t-24 101.5q0 88 42.5 157t129.5 119h-23
q-43 0 -68 5.5t-37.5 19.5t-16 37.5t-3.5 58.5v1368h299q42 0 66.5 -5.5t37 -19t16 -37t3.5 -59.5v-1368z" />
    <glyph glyph-name="iogonek" unicode="&#x12f;" horiz-adv-x="551" 
d="M469 0q-52 -14 -83.5 -43.5t-48.5 -63t-22.5 -65.5t-5.5 -51q0 -25 15 -38t38 -13q11 0 32 4t38 4q37 0 51.5 -23.5t20.5 -58.5l14 -82q-24 -12 -54 -21.5t-61.5 -16t-61.5 -10t-54 -3.5q-42 0 -86.5 9t-82 32t-61.5 62.5t-24 101.5q0 48 12.5 89t35 74.5t52.5 61.5
t66 51h-29q-30 0 -47.5 7t-26.5 22t-11.5 37.5t-2.5 54.5v934h264q42 0 66.5 -5.5t37 -19t16 -37t3.5 -59.5v-934zM80 1174v315h391v-315h-391z" />
    <glyph glyph-name="Idotaccent" unicode="&#x130;" horiz-adv-x="627" 
d="M225 0q-43 0 -67.5 5t-36.5 19.5t-15.5 37t-3.5 59.5v1368h299q43 0 68 -5t37 -19.5t15 -37t3 -59.5v-1368h-299zM137 1630v301h354v-301h-354z" />
    <glyph glyph-name="Kcommaaccent" unicode="&#x136;" horiz-adv-x="1509" 
d="M1116 0q-55 0 -85 19.5t-64 72.5l-320 520h-127v-612h-295q-43 0 -67.5 5t-36.5 19.5t-15.5 37t-3.5 59.5v1368h295q43 0 67.5 -5t37 -19.5t15.5 -37t3 -59.5v-436h131l264 465q17 28 30 45.5t29.5 28t37 14.5t51.5 4h393l-444 -696l518 -793h-414zM630 -387
q43 18 58.5 44t15.5 73h-86v168h272v-99q0 -104 -48 -170.5t-181 -89.5z" />
    <glyph glyph-name="kcommaaccent" unicode="&#x137;" horiz-adv-x="1217" 
d="M881 0q-41 0 -79 15.5t-67 64.5l-176 321h-92v-401h-262q-43 0 -67.5 5t-37 19.5t-16.5 37t-4 59.5v1368h264q43 0 67.5 -5t37 -19.5t15.5 -37t3 -59.5v-627h92l119 234q22 41 62 60.5t81 19.5h342l-289 -475l343 -580h-336zM485 -387q43 18 58.5 44t15.5 73h-86v168h272
v-99q0 -104 -48 -170.5t-181 -89.5z" />
    <glyph glyph-name="Lacute" unicode="&#x139;" horiz-adv-x="1186" 
d="M225 0q-43 0 -67.5 5t-36.5 19.5t-15.5 37t-3.5 59.5v1368h291q43 0 67.5 -5t37 -19.5t15.5 -37t3 -59.5v-1016h629v-352h-920zM682 1648q-33 -22 -63 -32.5t-68 -10.5h-283l309 273q35 31 63.5 38t67.5 7h355z" />
    <glyph glyph-name="lacute" unicode="&#x13a;" horiz-adv-x="690" 
d="M680 4q-37 -8 -80 -14q-37 -4 -86 -8.5t-102 -4.5q-179 0 -254.5 90.5t-75.5 266.5v1155h264q43 0 67.5 -5t37 -19.5t15.5 -37t3 -59.5v-993q0 -39 18.5 -65.5t67.5 -26.5q16 0 33.5 1t34.5 3l32 4zM432 1654q-33 -22 -63 -32.5t-68 -10.5h-283l309 273q35 31 63.5 38
t67.5 7h355z" />
    <glyph glyph-name="Lcommaaccent" unicode="&#x13b;" horiz-adv-x="1186" 
d="M225 0q-43 0 -67.5 5t-36.5 19.5t-15.5 37t-3.5 59.5v1368h291q43 0 67.5 -5t37 -19.5t15.5 -37t3 -59.5v-1016h629v-352h-920zM469 -387q43 18 58.5 44t15.5 73h-86v168h272v-99q0 -104 -48 -170.5t-181 -89.5z" />
    <glyph glyph-name="lcommaaccent" unicode="&#x13c;" horiz-adv-x="690" 
d="M680 4q-37 -8 -80 -14q-37 -4 -86 -8.5t-102 -4.5q-179 0 -254.5 90.5t-75.5 266.5v1155h264q43 0 67.5 -5t37 -19.5t15.5 -37t3 -59.5v-993q0 -39 18.5 -65.5t67.5 -26.5q16 0 33.5 1t34.5 3l32 4zM233 -387q43 18 58.5 44t15.5 73h-86v168h272v-99q0 -104 -48 -170.5
t-181 -89.5z" />
    <glyph glyph-name="Lcaron" unicode="&#x13d;" horiz-adv-x="1186" 
d="M225 0q-43 0 -67.5 5t-36.5 19.5t-15.5 37t-3.5 59.5v1368h291q43 0 67.5 -5t37 -19.5t15.5 -37t3 -59.5v-1016h629v-352h-920zM618 979q76 63 103 190h-88v320h344v-152q0 -153 -45 -273t-170 -214z" />
    <glyph glyph-name="lcaron" unicode="&#x13e;" horiz-adv-x="864" 
d="M680 4q-37 -8 -80 -14q-37 -4 -86 -8.5t-102 -4.5q-179 0 -254.5 90.5t-75.5 266.5v1155h264q43 0 67.5 -5t37 -19.5t15.5 -37t3 -59.5v-993q0 -39 18.5 -65.5t67.5 -26.5q16 0 33.5 1t34.5 3l32 4zM546 979q76 63 103 190h-88v320h344v-152q0 -153 -45 -273t-170 -214z
" />
    <glyph glyph-name="Nacute" unicode="&#x143;" horiz-adv-x="1616" 
d="M1100 0q-113 0 -174 109q-31 55 -72 128.5t-84 157.5t-87 172t-82 169t-67.5 148.5t-44.5 112.5v-997h-264q-43 0 -67.5 5t-36.5 19.5t-15.5 37t-3.5 59.5v1368h433q63 0 101 -24.5t73 -80.5q14 -22 46.5 -84.5t74.5 -146.5t89.5 -181.5t89.5 -190.5t75.5 -173t48.5 -129
v1010h258q43 0 67.5 -5t36.5 -19.5t15 -37t3 -59.5v-1368h-413zM897 1648q-33 -22 -63 -32.5t-68 -10.5h-283l309 273q35 31 63.5 38t67.5 7h355z" />
    <glyph glyph-name="nacute" unicode="&#x144;" horiz-adv-x="1206" 
d="M870 0q-43 0 -67.5 5t-36.5 19.5t-15 37t-3 59.5v491q0 84 -37 111t-107 27q-59 0 -90 -15.5t-37 -19.5t-7 -11.5t-1 -11.5v-692h-264q-43 0 -67.5 5t-37 19.5t-15.5 37t-3 59.5v934h219q41 0 59.5 -12.5t28.5 -28.5q6 -10 13.5 -23.5t23.5 -13.5t33.5 11t29.5 20
q35 22 98.5 45.5t155.5 23.5q76 0 147 -16.5t125 -62.5t87 -128t33 -213v-657h-265zM693 1214q-33 -22 -63 -32.5t-68 -10.5h-283l309 273q35 31 63.5 38t67.5 7h355z" />
    <glyph glyph-name="Ncommaaccent" unicode="&#x145;" horiz-adv-x="1616" 
d="M1100 0q-113 0 -174 109q-31 55 -72 128.5t-84 157.5t-87 172t-82 169t-67.5 148.5t-44.5 112.5v-997h-264q-43 0 -67.5 5t-36.5 19.5t-15.5 37t-3.5 59.5v1368h433q63 0 101 -24.5t73 -80.5q14 -22 46.5 -84.5t74.5 -146.5t89.5 -181.5t89.5 -190.5t75.5 -173t48.5 -129
v1010h258q43 0 67.5 -5t36.5 -19.5t15 -37t3 -59.5v-1368h-413zM684 -387q43 18 58.5 44t15.5 73h-86v168h272v-99q0 -104 -48 -170.5t-181 -89.5z" />
    <glyph glyph-name="ncommaaccent" unicode="&#x146;" horiz-adv-x="1206" 
d="M870 0q-43 0 -67.5 5t-36.5 19.5t-15 37t-3 59.5v491q0 84 -37 111t-107 27q-59 0 -90 -15.5t-37 -19.5t-7 -11.5t-1 -11.5v-692h-264q-43 0 -67.5 5t-37 19.5t-15.5 37t-3 59.5v934h219q41 0 59.5 -12.5t28.5 -28.5q6 -10 13.5 -23.5t23.5 -13.5t33.5 11t29.5 20
q35 22 98.5 45.5t155.5 23.5q76 0 147 -16.5t125 -62.5t87 -128t33 -213v-657h-265zM479 -387q43 18 58.5 44t15.5 73h-86v168h272v-99q0 -104 -48 -170.5t-181 -89.5z" />
    <glyph glyph-name="Ncaron" unicode="&#x147;" horiz-adv-x="1616" 
d="M1100 0q-113 0 -174 109q-31 55 -72 128.5t-84 157.5t-87 172t-82 169t-67.5 148.5t-44.5 112.5v-997h-264q-43 0 -67.5 5t-36.5 19.5t-15.5 37t-3.5 59.5v1368h433q63 0 101 -24.5t73 -80.5q14 -22 46.5 -84.5t74.5 -146.5t89.5 -181.5t89.5 -190.5t75.5 -173t48.5 -129
v1010h258q43 0 67.5 -5t36.5 -19.5t15 -37t3 -59.5v-1368h-413zM907 1597h-124q-41 0 -68 8.5t-64 38.5l-321 271h299q41 0 72.5 -7.5t60.5 -35.5l53 -54l54 54q28 28 60 35.5t73 7.5h284z" />
    <glyph glyph-name="ncaron" unicode="&#x148;" horiz-adv-x="1206" 
d="M870 0q-43 0 -67.5 5t-36.5 19.5t-15 37t-3 59.5v491q0 84 -37 111t-107 27q-59 0 -90 -15.5t-37 -19.5t-7 -11.5t-1 -11.5v-692h-264q-43 0 -67.5 5t-37 19.5t-15.5 37t-3 59.5v934h219q41 0 59.5 -12.5t28.5 -28.5q6 -10 13.5 -23.5t23.5 -13.5t33.5 11t29.5 20
q35 22 98.5 45.5t155.5 23.5q76 0 147 -16.5t125 -62.5t87 -128t33 -213v-657h-265zM702 1163h-124q-41 0 -68 8.5t-64 38.5l-321 271h299q41 0 72.5 -7.5t60.5 -35.5l53 -54l54 54q28 28 60 35.5t73 7.5h284z" />
    <glyph glyph-name="Omacron" unicode="&#x14c;" horiz-adv-x="1587" 
d="M797 -33q-367 0 -541 191.5t-174 582.5q0 394 174 585.5t541 191.5q364 0 536 -191.5t172 -585.5q0 -391 -172 -582.5t-536 -191.5zM795 309q77 0 131.5 21.5t88.5 72t49 133t15 207.5q0 123 -16 206t-51 134.5t-88.5 74t-128.5 22.5q-74 0 -127.5 -21.5t-88 -72
t-51 -134.5t-16.5 -209q0 -122 16.5 -205t51 -133.5t88 -73t127.5 -22.5zM469 1651v221h651v-221h-651z" />
    <glyph glyph-name="omacron" unicode="&#x14d;" horiz-adv-x="1278" 
d="M1227 526q0 -268 -153.5 -408.5t-434.5 -140.5q-135 0 -243.5 36t-185.5 106.5t-118 173t-41 237.5q0 269 153.5 409t434.5 140q135 0 244.5 -35.5t185.5 -106.5t117 -173t41 -238zM823 528q0 115 -42 174.5t-142 59.5t-142 -59.5t-42 -174.5q0 -114 42 -173.5t142 -59.5
t142 59.5t42 173.5zM314 1217v221h651v-221h-651z" />
    <glyph glyph-name="Ohungarumlaut" unicode="&#x150;" horiz-adv-x="1587" 
d="M797 -33q-367 0 -541 191.5t-174 582.5q0 394 174 585.5t541 191.5q364 0 536 -191.5t172 -585.5q0 -391 -172 -582.5t-536 -191.5zM795 309q77 0 131.5 21.5t88.5 72t49 133t15 207.5q0 123 -16 206t-51 134.5t-88.5 74t-128.5 22.5q-74 0 -127.5 -21.5t-88 -72
t-51 -134.5t-16.5 -209q0 -122 16.5 -205t51 -133.5t88 -73t127.5 -22.5zM638 1653q-28 -27 -58 -37.5t-73 -10.5h-229l248 269q28 30 57 40.5t72 10.5h295zM1144 1653q-28 -27 -59 -37.5t-72 -10.5h-229l246 269q28 33 58 42t73 9h293z" />
    <glyph glyph-name="ohungarumlaut" unicode="&#x151;" horiz-adv-x="1278" 
d="M1227 526q0 -268 -153.5 -408.5t-434.5 -140.5q-135 0 -243.5 36t-185.5 106.5t-118 173t-41 237.5q0 269 153.5 409t434.5 140q135 0 244.5 -35.5t185.5 -106.5t117 -173t41 -238zM823 528q0 115 -42 174.5t-142 59.5t-142 -59.5t-42 -174.5q0 -114 42 -173.5t142 -59.5
t142 59.5t42 173.5zM482 1219q-28 -27 -58 -37.5t-73 -10.5h-229l248 269q28 30 57 40.5t72 10.5h295zM988 1219q-28 -27 -59 -37.5t-72 -10.5h-229l246 269q28 33 58 42t73 9h293z" />
    <glyph glyph-name="Racute" unicode="&#x154;" horiz-adv-x="1391" 
d="M1034 0q-43 0 -66.5 5t-35.5 19.5t-15.5 37t-5.5 59.5l-14 301q-4 55 -21.5 79.5t-76.5 24.5h-281v-526h-293q-43 0 -67.5 5t-36.5 19.5t-15.5 37t-3.5 59.5v1366q136 4 273 8t287 4q174 0 295.5 -19.5t198.5 -71.5t112 -141t35 -229q0 -219 -140 -290q-30 -17 -30 -39
q0 -21 26 -35q43 -23 70.5 -41.5t45 -47t25 -73.5t11.5 -121l14 -391h-291zM815 817q31 0 39 6t14 25q13 35 20 68.5t7 72.5q0 33 -6 62.5t-25.5 51t-57.5 35t-99 13.5h-117t-72 -2v-332h297zM785 1648q-33 -22 -63 -32.5t-68 -10.5h-283l309 273q35 31 63.5 38t67.5 7h355z
" />
    <glyph glyph-name="racute" unicode="&#x155;" horiz-adv-x="834" 
d="M205 0q-43 0 -67.5 5t-37 19.5t-15.5 37t-3 59.5v934h219q41 0 59.5 -12.5t28.5 -28.5q6 -10 13.5 -23.5t23.5 -13.5t33.5 11t29.5 20q35 22 91.5 45.5t148.5 23.5q12 0 24.5 -1t22.5 -3t23 -4v-350q-23 6 -49 14q-23 4 -54.5 9.5t-66.5 5.5q-70 0 -106 -13.5t-46 -21.5
q-8 -6 -8 -21v-692h-264zM504 1214q-33 -22 -63 -32.5t-68 -10.5h-283l309 273q35 31 63.5 38t67.5 7h355z" />
    <glyph glyph-name="Rcommaaccent" unicode="&#x156;" horiz-adv-x="1391" 
d="M1034 0q-43 0 -66.5 5t-35.5 19.5t-15.5 37t-5.5 59.5l-14 301q-4 55 -21.5 79.5t-76.5 24.5h-281v-526h-293q-43 0 -67.5 5t-36.5 19.5t-15.5 37t-3.5 59.5v1366q136 4 273 8t287 4q174 0 295.5 -19.5t198.5 -71.5t112 -141t35 -229q0 -219 -140 -290q-30 -17 -30 -39
q0 -21 26 -35q43 -23 70.5 -41.5t45 -47t25 -73.5t11.5 -121l14 -391h-291zM815 817q31 0 39 6t14 25q13 35 20 68.5t7 72.5q0 33 -6 62.5t-25.5 51t-57.5 35t-99 13.5h-117t-72 -2v-332h297zM571 -387q43 18 58.5 44t15.5 73h-86v168h272v-99q0 -104 -48 -170.5t-181 -89.5
z" />
    <glyph glyph-name="rcommaaccent" unicode="&#x157;" horiz-adv-x="834" 
d="M205 0q-43 0 -67.5 5t-37 19.5t-15.5 37t-3 59.5v934h219q41 0 59.5 -12.5t28.5 -28.5q6 -10 13.5 -23.5t23.5 -13.5t33.5 11t29.5 20q35 22 91.5 45.5t148.5 23.5q12 0 24.5 -1t22.5 -3t23 -4v-350q-23 6 -49 14q-23 4 -54.5 9.5t-66.5 5.5q-70 0 -106 -13.5t-46 -21.5
q-8 -6 -8 -21v-692h-264zM293 -387q43 18 58.5 44t15.5 73h-86v168h272v-99q0 -104 -48 -170.5t-181 -89.5z" />
    <glyph glyph-name="Rcaron" unicode="&#x158;" horiz-adv-x="1391" 
d="M1034 0q-43 0 -66.5 5t-35.5 19.5t-15.5 37t-5.5 59.5l-14 301q-4 55 -21.5 79.5t-76.5 24.5h-281v-526h-293q-43 0 -67.5 5t-36.5 19.5t-15.5 37t-3.5 59.5v1366q136 4 273 8t287 4q174 0 295.5 -19.5t198.5 -71.5t112 -141t35 -229q0 -219 -140 -290q-30 -17 -30 -39
q0 -21 26 -35q43 -23 70.5 -41.5t45 -47t25 -73.5t11.5 -121l14 -391h-291zM815 817q31 0 39 6t14 25q13 35 20 68.5t7 72.5q0 33 -6 62.5t-25.5 51t-57.5 35t-99 13.5h-117t-72 -2v-332h297zM794 1597h-124q-41 0 -68 8.5t-64 38.5l-321 271h299q41 0 72.5 -7.5t60.5 -35.5
l53 -54l54 54q28 28 60 35.5t73 7.5h284z" />
    <glyph glyph-name="rcaron" unicode="&#x159;" horiz-adv-x="834" 
d="M205 0q-43 0 -67.5 5t-37 19.5t-15.5 37t-3 59.5v934h219q41 0 59.5 -12.5t28.5 -28.5q6 -10 13.5 -23.5t23.5 -13.5t33.5 11t29.5 20q35 22 91.5 45.5t148.5 23.5q12 0 24.5 -1t22.5 -3t23 -4v-350q-23 6 -49 14q-23 4 -54.5 9.5t-66.5 5.5q-70 0 -106 -13.5t-46 -21.5
q-8 -6 -8 -21v-692h-264zM516 1163h-124q-41 0 -68 8.5t-64 38.5l-321 271h299q41 0 72.5 -7.5t60.5 -35.5l53 -54l54 54q28 28 60 35.5t73 7.5h284z" />
    <glyph glyph-name="Sacute" unicode="&#x15a;" horiz-adv-x="1194" 
d="M109 371q67 -17 139 -27q61 -10 137 -17.5t150 -7.5q114 0 154 44.5t40 103.5q0 65 -55.5 90t-145.5 41q-6 2 -40.5 8t-55.5 10q-184 37 -275 134.5t-91 277.5q0 78 23.5 164t87 156.5t172 116.5t278.5 46q104 0 191 -16t151.5 -36.5t102.5 -38t42 -19.5l-100 -297
q-19 -51 -56 -51q-18 0 -38.5 10t-53.5 33q-32 22 -92.5 50t-146.5 28q-76 0 -118 -40t-42 -108q0 -61 45 -87t152 -46l53 -10q223 -41 324.5 -136.5t101.5 -277.5q0 -94 -26.5 -183t-94.5 -158t-183.5 -111t-293.5 -42q-94 0 -181.5 10.5t-154.5 22.5q-80 15 -148 35z
M748 1648q-33 -22 -63 -32.5t-68 -10.5h-283l309 273q35 31 63.5 38t67.5 7h355z" />
    <glyph glyph-name="sacute" unicode="&#x15b;" horiz-adv-x="1022" 
d="M72 334q69 -17 172.5 -35t222.5 -18q72 0 99.5 14t27.5 49q0 18 -10.5 29.5t-32 17.5t-57 11.5t-86.5 13.5q-86 12 -156 30.5t-119 52t-75.5 86t-26.5 132.5q0 69 24.5 135t86 116t165 79.5t260.5 29.5q109 0 213.5 -22.5t192.5 -53.5l-92 -243q-21 -56 -64 -56
q-16 0 -32.5 7.5t-34.5 17.5q-37 23 -86.5 36t-102.5 13q-139 0 -139 -63q0 -35 31.5 -45.5t128.5 -22.5q106 -14 182 -35.5t125 -56.5t72.5 -89t23.5 -132q0 -355 -532 -355q-99 0 -201 13.5t-213 36.5zM621 1214q-33 -22 -63 -32.5t-68 -10.5h-283l309 273q35 31 63.5 38
t67.5 7h355z" />
    <glyph glyph-name="uni0218" unicode="&#x218;" horiz-adv-x="1194" 
d="M109 371q67 -17 139 -27q61 -10 137 -17.5t150 -7.5q114 0 154 44.5t40 103.5q0 65 -55.5 90t-145.5 41q-6 2 -40.5 8t-55.5 10q-184 37 -275 134.5t-91 277.5q0 78 23.5 164t87 156.5t172 116.5t278.5 46q104 0 191 -16t151.5 -36.5t102.5 -38t42 -19.5l-100 -297
q-19 -51 -56 -51q-18 0 -38.5 10t-53.5 33q-32 22 -92.5 50t-146.5 28q-76 0 -118 -40t-42 -108q0 -61 45 -87t152 -46l53 -10q223 -41 324.5 -136.5t101.5 -277.5q0 -94 -26.5 -183t-94.5 -158t-183.5 -111t-293.5 -42q-94 0 -181.5 10.5t-154.5 22.5q-80 15 -148 35z
M469 -387q43 18 58.5 44t15.5 73h-86v168h272v-99q0 -104 -48 -170.5t-181 -89.5z" />
    <glyph glyph-name="uni0219" unicode="&#x219;" horiz-adv-x="1022" 
d="M72 334q69 -17 172.5 -35t222.5 -18q72 0 99.5 14t27.5 49q0 18 -10.5 29.5t-32 17.5t-57 11.5t-86.5 13.5q-86 12 -156 30.5t-119 52t-75.5 86t-26.5 132.5q0 69 24.5 135t86 116t165 79.5t260.5 29.5q109 0 213.5 -22.5t192.5 -53.5l-92 -243q-21 -56 -64 -56
q-16 0 -32.5 7.5t-34.5 17.5q-37 23 -86.5 36t-102.5 13q-139 0 -139 -63q0 -35 31.5 -45.5t128.5 -22.5q106 -14 182 -35.5t125 -56.5t72.5 -89t23.5 -132q0 -355 -532 -355q-99 0 -201 13.5t-213 36.5zM387 -387q43 18 58.5 44t15.5 73h-86v168h272v-99q0 -104 -48 -170.5
t-181 -89.5z" />
    <glyph glyph-name="Tcommaaccent" unicode="&#x162;" horiz-adv-x="1366" 
d="M596 0q-43 0 -67.5 5t-37 19.5t-15.5 37t-3 59.5v1028h-453v340h1326v-340h-451v-1149h-299zM559 -387q43 18 58.5 44t15.5 73h-86v168h272v-99q0 -104 -48 -170.5t-181 -89.5z" />
    <glyph glyph-name="tcommaaccent" unicode="&#x163;" horiz-adv-x="942" 
d="M891 18q-64 -16 -133.5 -28.5t-167.5 -12.5q-107 0 -181.5 20.5t-121.5 66t-68.5 115t-21.5 167.5v434h-146v275h146v188l387 82v-270h264v-275h-264v-407q0 -37 24.5 -63.5t79.5 -26.5q37 0 68.5 3t56.5 7q27 6 51 12zM389 -387q43 18 58.5 44t15.5 73h-86v168h272v-99
q0 -104 -48 -170.5t-181 -89.5z" />
    <glyph glyph-name="Tcaron" unicode="&#x164;" horiz-adv-x="1366" 
d="M596 0q-43 0 -67.5 5t-37 19.5t-15.5 37t-3 59.5v1028h-453v340h1326v-340h-451v-1149h-299zM782 1597h-124q-41 0 -68 8.5t-64 38.5l-321 271h299q41 0 72.5 -7.5t60.5 -35.5l53 -54l54 54q28 28 60 35.5t73 7.5h284z" />
    <glyph glyph-name="tcaron" unicode="&#x165;" horiz-adv-x="942" 
d="M731 1208q62 39 82 123h-70v187h275v-78q0 -101 -36 -177.5t-136 -140.5zM891 18q-158 -41 -301 -41q-215 0 -304 86.5t-89 282.5v434h-146v275h146v188l387 82v-270h264v-275h-264v-407q0 -37 24.5 -63.5t99 -26.5t156.5 22z" />
    <glyph glyph-name="Umacron" unicode="&#x16a;" horiz-adv-x="1483" 
d="M1182 0q-54 0 -79.5 16.5t-47.5 38.5q-31 31 -54 31q-20 0 -69 -29q-55 -32 -116.5 -56t-162.5 -24q-149 0 -256.5 35t-177 111t-103.5 192.5t-34 280.5v893h293q43 0 67.5 -5t37 -19.5t15.5 -37t3 -59.5v-745q0 -80 9 -138.5t36.5 -96.5t76 -56.5t128.5 -18.5
q65 0 104 9.5t70 23.5q32 16 38.5 26.5t6.5 24.5v1092h290q43 0 68 -5t37 -19.5t15 -37t3 -59.5v-1368h-198zM406 1651v221h651v-221h-651z" />
    <glyph glyph-name="umacron" unicode="&#x16b;" horiz-adv-x="1198" 
d="M897 0q-41 0 -59.5 12.5t-28.5 28.5q-6 10 -13.5 23.5t-23.5 13.5t-33.5 -11.5t-29.5 -19.5q-35 -22 -96.5 -46t-153.5 -24q-74 0 -143.5 16.5t-124 62.5t-87 128t-32.5 213v658h264q43 0 67.5 -5.5t37 -19.5t15.5 -36.5t3 -59.5v-490q0 -84 34.5 -110.5t104.5 -26.5
q59 0 88 14.5t35 20.5t7 12t1 11v690h264q43 0 67.5 -5.5t37 -19.5t15.5 -36.5t3 -59.5v-934h-219zM269 1217v221h651v-221h-651z" />
    <glyph glyph-name="Uring" unicode="&#x16e;" horiz-adv-x="1483" 
d="M1182 0q-54 0 -79.5 16.5t-47.5 38.5q-31 31 -54 31q-20 0 -69 -29q-55 -32 -116.5 -56t-162.5 -24q-149 0 -256.5 35t-177 111t-103.5 192.5t-34 280.5v893h293q43 0 67.5 -5t37 -19.5t15.5 -37t3 -59.5v-745q0 -80 9 -138.5t36.5 -96.5t76 -56.5t128.5 -18.5
q65 0 104 9.5t70 23.5q32 16 38.5 26.5t6.5 24.5v1092h290q43 0 68 -5t37 -19.5t15 -37t3 -59.5v-1368h-198zM1067 1785q0 -117 -89 -181.5t-246 -64.5q-158 0 -247 64.5t-89 181.5q0 123 88 185t248 62q159 0 247 -62t88 -185zM842 1785q0 53 -31.5 76.5t-78.5 23.5
q-48 0 -79.5 -23.5t-31.5 -76.5q0 -52 34 -76.5t77 -24.5q45 0 77.5 24.5t32.5 76.5z" />
    <glyph glyph-name="uring" unicode="&#x16f;" horiz-adv-x="1198" 
d="M897 0q-41 0 -59.5 12.5t-28.5 28.5q-6 10 -13.5 23.5t-23.5 13.5t-33.5 -11.5t-29.5 -19.5q-35 -22 -96.5 -46t-153.5 -24q-74 0 -143.5 16.5t-124 62.5t-87 128t-32.5 213v658h264q43 0 67.5 -5.5t37 -19.5t15.5 -36.5t3 -59.5v-490q0 -84 34.5 -110.5t104.5 -26.5
q59 0 88 14.5t35 20.5t7 12t1 11v690h264q43 0 67.5 -5.5t37 -19.5t15.5 -36.5t3 -59.5v-934h-219zM930 1350q0 -117 -89 -181.5t-246 -64.5q-158 0 -247 64.5t-89 181.5q0 123 88 185t248 62q159 0 247 -62t88 -185zM705 1350q0 53 -31.5 76.5t-78.5 23.5
q-48 0 -79.5 -23.5t-31.5 -76.5q0 -52 34 -76.5t77 -24.5q45 0 77.5 24.5t32.5 76.5z" />
    <glyph glyph-name="Uhungarumlaut" unicode="&#x170;" horiz-adv-x="1483" 
d="M1182 0q-54 0 -79.5 16.5t-47.5 38.5q-31 31 -54 31q-20 0 -69 -29q-55 -32 -116.5 -56t-162.5 -24q-149 0 -256.5 35t-177 111t-103.5 192.5t-34 280.5v893h293q43 0 67.5 -5t37 -19.5t15.5 -37t3 -59.5v-745q0 -80 9 -138.5t36.5 -96.5t76 -56.5t128.5 -18.5
q65 0 104 9.5t70 23.5q32 16 38.5 26.5t6.5 24.5v1092h290q43 0 68 -5t37 -19.5t15 -37t3 -59.5v-1368h-198zM622 1653q-28 -27 -58 -37.5t-73 -10.5h-229l248 269q28 30 57 40.5t72 10.5h295zM1128 1653q-28 -27 -59 -37.5t-72 -10.5h-229l246 269q28 33 58 42t73 9h293z
" />
    <glyph glyph-name="uhungarumlaut" unicode="&#x171;" horiz-adv-x="1198" 
d="M897 0q-41 0 -59.5 12.5t-28.5 28.5q-6 10 -13.5 23.5t-23.5 13.5t-33.5 -11.5t-29.5 -19.5q-35 -22 -96.5 -46t-153.5 -24q-74 0 -143.5 16.5t-124 62.5t-87 128t-32.5 213v658h264q43 0 67.5 -5.5t37 -19.5t15.5 -36.5t3 -59.5v-490q0 -84 34.5 -110.5t104.5 -26.5
q59 0 88 14.5t35 20.5t7 12t1 11v690h264q43 0 67.5 -5.5t37 -19.5t15.5 -36.5t3 -59.5v-934h-219zM523 1219q-28 -27 -58 -37.5t-73 -10.5h-229l248 269q28 30 57 40.5t72 10.5h295zM1029 1219q-28 -27 -59 -37.5t-72 -10.5h-229l246 269q28 33 58 42t73 9h293z" />
    <glyph glyph-name="Uogonek" unicode="&#x172;" horiz-adv-x="1483" 
d="M1380 0q-42 -28 -66.5 -61.5t-37 -65t-16 -57.5t-3.5 -39q0 -25 15.5 -38t38.5 -13q11 0 31.5 4t37.5 4q37 0 51.5 -23.5t20.5 -58.5l14 -82q-24 -12 -54 -21.5t-61.5 -16t-61.5 -10t-54 -3.5q-42 0 -86.5 9t-82 32t-61.5 62.5t-24 101.5q0 44 9.5 81t28 69.5t44.5 61.5
t59 58q11 9 16 17t5 22q0 25 -25 40t-65 15q-41 0 -69.5 -9t-51.5 -22q-28 -15 -56 -29.5t-60.5 -26t-72 -18t-90.5 -6.5q-149 0 -257 35.5t-177.5 110.5t-103 192t-33.5 281v893h293q42 0 66.5 -5.5t37 -19t16 -37t3.5 -59.5v-745q0 -80 9.5 -138.5t36.5 -96.5t76 -56.5
t128 -18.5q64 0 103.5 9.5t70.5 23.5q16 8 25 14.5t13.5 12.5t5.5 11.5t1 12.5v1092h290q42 0 66.5 -5.5t37 -19t16 -37t3.5 -59.5v-1368z" />
    <glyph glyph-name="uogonek" unicode="&#x173;" horiz-adv-x="1198" 
d="M1116 0q-40 -25 -64.5 -55t-38.5 -60t-19 -58.5t-5 -49.5q0 -25 15 -38t38 -13q11 0 32 4t38 4q37 0 51.5 -23.5t20.5 -58.5l14 -82q-24 -12 -54 -21.5t-61.5 -16t-61.5 -10t-54 -3.5q-42 0 -86.5 9t-82 32t-61.5 62.5t-24 101.5q0 87 37 151.5t102 118.5q8 6 14 14t6 21
q0 17 -15 33t-52 16q-29 0 -52 -9.5t-44 -21.5q-17 -10 -41 -22.5t-55 -23t-69.5 -17.5t-84.5 -7q-49 0 -97 7t-91 24.5t-79.5 48t-63 77t-41.5 111.5t-15 152v658h264q42 0 66.5 -5.5t37 -19t16 -37t3.5 -59.5v-490q0 -42 9 -68.5t26 -42t43 -21t61 -5.5q30 0 52 4.5
t36.5 10t23 11.5t11.5 9q6 6 7 12.5t1 10.5v690h264q42 0 66.5 -5.5t37 -19t16 -37t3.5 -59.5v-934z" />
    <glyph glyph-name="Zacute" unicode="&#x179;" horiz-adv-x="1262" 
d="M61 0v174q0 47 16.5 86t37.5 72l503 817h-544v340h1089v-182q0 -47 -16.5 -86t-36.5 -70q-125 -205 -251 -402.5t-255 -402.5h578v-346h-1121zM781 1648q-33 -22 -63 -32.5t-68 -10.5h-283l309 273q35 31 63.5 38t67.5 7h355z" />
    <glyph glyph-name="zacute" unicode="&#x17a;" horiz-adv-x="1006" 
d="M61 0v158q0 45 14.5 83t39.5 68l331 432h-372v314h860v-166q0 -82 -55 -144l-332 -432h397v-313h-883zM654 1214q-33 -22 -63 -32.5t-68 -10.5h-283l309 273q35 31 63.5 38t67.5 7h355z" />
    <glyph glyph-name="Zdotaccent" unicode="&#x17b;" horiz-adv-x="1262" 
d="M61 0v174q0 47 16.5 86t37.5 72l503 817h-544v340h1089v-182q0 -47 -16.5 -86t-36.5 -70q-125 -205 -251 -402.5t-255 -402.5h578v-346h-1121zM455 1630v301h354v-301h-354z" />
    <glyph glyph-name="zdotaccent" unicode="&#x17c;" horiz-adv-x="1006" 
d="M61 0v158q0 45 14.5 83t39.5 68l331 432h-372v314h860v-166q0 -82 -55 -144l-332 -432h397v-313h-883zM326 1196v301h354v-301h-354z" />
    <glyph glyph-name="Tcedilla" unicode="&#x21a;" horiz-adv-x="1366" 
d="M596 0q-43 0 -67.5 5t-37 19.5t-15.5 37t-3 59.5v1028h-453v340h1326v-340h-451v-1149h-299zM559 -387q43 18 58.5 44t15.5 73h-86v168h272v-99q0 -104 -48 -170.5t-181 -89.5z" />
    <glyph glyph-name="tcedilla" unicode="&#x21b;" horiz-adv-x="942" 
d="M891 18q-64 -16 -133.5 -28.5t-167.5 -12.5q-107 0 -181.5 20.5t-121.5 66t-68.5 115t-21.5 167.5v434h-146v275h146v188l387 82v-270h264v-275h-264v-407q0 -37 24.5 -63.5t79.5 -26.5q37 0 68.5 3t56.5 7q27 6 51 12zM389 -387q43 18 58.5 44t15.5 73h-86v168h272v-99
q0 -104 -48 -170.5t-181 -89.5z" />
    <glyph glyph-name="afii10023" unicode="&#x401;" horiz-adv-x="1286" 
d="M225 0q-43 0 -67.5 5t-36.5 19.5t-15.5 37t-3.5 59.5v1368h1080v-340h-664v-221h617v-340h-617v-242h686v-346h-979zM244 1630v291h338v-291h-338zM705 1630v291h338v-291h-338z" />
    <glyph glyph-name="afii10051" unicode="&#x402;" horiz-adv-x="1790" 
d="M1278 68v387q0 107 -44 155.5t-147 48.5q-51 0 -100.5 -10.5t-70.5 -23t-21 -43.5v-582h-299q-81 0 -102 22.5t-21 98.5v1028h-453v340h1326v-340h-451v-178q0 -31 25 -31q3 0 59 10q154 31 276 31q224 0 331.5 -113.5t107.5 -386.5v-418q0 -260 -125 -377.5t-400 -117.5
q-114 0 -241 29l47 327q71 -16 145 -16q84 0 121 36t37 124z" />
    <glyph glyph-name="afii10052" unicode="&#x403;" horiz-adv-x="1126" 
d="M1106 1489v-340h-582v-1149h-299q-84 0 -103.5 21.5t-19.5 99.5v1368h1004zM791 1690q-33 -22 -63 -32.5t-68 -10.5h-283l309 273q35 31 63.5 38t67.5 7h355z" />
    <glyph glyph-name="afii10053" unicode="&#x404;" horiz-adv-x="1343" 
d="M1241 43q-247 -63 -477 -63q-354 0 -518 186t-164 584q0 248 79.5 420t233 260t369.5 88q276 0 522 -117l-99 -265q-10 -26 -26.5 -40.5t-38.5 -14.5q-24 0 -98 41q-116 66 -231 66q-128 0 -192.5 -66t-80.5 -207h563v-313h-567q12 -149 83.5 -212.5t250.5 -63.5
q177 0 342 41z" />
    <glyph glyph-name="afii10054" unicode="&#x405;" horiz-adv-x="1194" 
d="M109 371q67 -17 139 -27q61 -10 137 -17.5t150 -7.5q114 0 154 44.5t40 103.5q0 65 -55.5 90t-145.5 41q-6 2 -40.5 8t-55.5 10q-184 37 -275 134.5t-91 277.5q0 78 23.5 164t87 156.5t172 116.5t278.5 46q104 0 191 -16t151.5 -36.5t102.5 -38t42 -19.5l-100 -297
q-19 -51 -56 -51q-18 0 -38.5 10t-53.5 33q-32 22 -92.5 50t-146.5 28q-76 0 -118 -40t-42 -108q0 -61 45 -87t152 -46l53 -10q223 -41 324.5 -136.5t101.5 -277.5q0 -94 -26.5 -183t-94.5 -158t-183.5 -111t-293.5 -42q-94 0 -181.5 10.5t-154.5 22.5q-80 15 -148 35z" />
    <glyph glyph-name="afii10055" unicode="&#x406;" horiz-adv-x="627" 
d="M225 0q-43 0 -67.5 5t-36.5 19.5t-15.5 37t-3.5 59.5v1368h299q43 0 68 -5t37 -19.5t15 -37t3 -59.5v-1368h-299z" />
    <glyph glyph-name="afii10056" unicode="&#x407;" horiz-adv-x="627" 
d="M225 0q-43 0 -67.5 5t-36.5 19.5t-15.5 37t-3.5 59.5v1368h299q43 0 68 -5t37 -19.5t15 -37t3 -59.5v-1368h-299zM-86 1630v291h338v-291h-338zM375 1630v291h338v-291h-338z" />
    <glyph glyph-name="afii10057" unicode="&#x408;" horiz-adv-x="985" 
d="M883 436q0 -141 -35 -231t-97.5 -140.5t-146.5 -70t-182 -19.5q-86 0 -156.5 7.5t-120.5 17.5q-59 10 -104 27l47 327l74 -16q33 -6 71.5 -10t77.5 -4q84 0 117 35.5t33 111.5v1018h299q43 0 67.5 -5t37 -19.5t15.5 -37t3 -59.5v-932z" />
    <glyph glyph-name="afii10058" unicode="&#x409;" horiz-adv-x="2249" 
d="M1430 915h212q327 0 446.5 -94.5t119.5 -349.5q0 -184 -52.5 -286t-193.5 -149.5t-412 -47.5q-188 0 -340.5 8t-175 26t-22.5 99v1028h-295q-13 -269 -39 -561.5t-71 -400t-133 -159t-238 -51.5q-98 0 -230 27l41 305q58 -12 100 -12q45 0 70.5 16.5t49.5 81.5t46.5 284
t32.5 456.5t12 353.5h949q81 0 102 -22.5t21 -98.5v-453zM1430 309h137q109 0 161.5 14.5t69.5 46t17 93.5q0 95 -46.5 120t-173.5 25h-165v-299z" />
    <glyph glyph-name="afii10059" unicode="&#x40a;" horiz-adv-x="2265" 
d="M1446 915h213q326 0 445.5 -94.5t119.5 -349.5q0 -294 -154.5 -388.5t-523.5 -94.5q-127 0 -274.5 6t-185.5 13.5t-48 29.5t-10 84v467h-508v-588h-295q-81 0 -102 22.5t-21 98.5v1368h295q82 0 102.5 -22.5t20.5 -98.5v-440h508v561h295q73 0 98 -21.5t25 -99.5v-453z
M1446 309h137q110 0 162 14.5t69 46t17 93.5q0 95 -46.5 120t-172.5 25h-166v-299z" />
    <glyph glyph-name="afii10060" unicode="&#x40b;" horiz-adv-x="1767" 
d="M895 1149v-178q0 -31 25 -31q3 0 59 10q154 31 276 31q224 0 331.5 -113.5t107.5 -386.5v-481h-293q-82 0 -102.5 22.5t-20.5 98.5v334q0 107 -44 155.5t-147 48.5q-51 0 -100.5 -10.5t-70.5 -23t-21 -43.5v-582h-299q-81 0 -102 22.5t-21 98.5v1028h-453v340h1326v-340
h-451z" />
    <glyph glyph-name="afii10061" unicode="&#x40c;" horiz-adv-x="1509" 
d="M1116 0q-55 0 -85 19.5t-64 72.5l-320 520h-127v-612h-295q-43 0 -67.5 5t-36.5 19.5t-15.5 37t-3.5 59.5v1368h295q43 0 67.5 -5t37 -19.5t15.5 -37t3 -59.5v-436h131l264 465q17 28 30 45.5t29.5 28t37 14.5t51.5 4h393l-444 -696l518 -793h-414zM881 1659
q-33 -22 -63 -32.5t-68 -10.5h-283l309 273q35 31 63.5 38t67.5 7h355z" />
    <glyph glyph-name="afii10062" unicode="&#x40e;" horiz-adv-x="1458" 
d="M1470 1489l-569 -1163q-85 -173 -192.5 -262t-368.5 -89q-124 0 -258 27l61 328q98 -27 170 -27q153 0 209 127l-522 1059h354q37 0 61 -4.5t41.5 -15.5t30 -29.5t52.5 -114.5l202 -494q242 554 253 580t38 52t111 26h327zM1129 1909q-10 -68 -41 -126.5t-81 -101.5
t-116.5 -66.5t-148.5 -23.5q-174 0 -266.5 86t-108.5 232h192q48 0 72.5 -11.5t38.5 -42.5q14 -30 38 -39.5t42 -9.5t41.5 9.5t36.5 39.5q14 35 40.5 44.5t73.5 9.5h187z" />
    <glyph glyph-name="afii10145" unicode="&#x40f;" horiz-adv-x="1534" 
d="M948 -236h-235q-82 0 -103.5 22.5t-21.5 98.5v115h-359q-70 0 -98.5 15.5t-28.5 105.5v1368h293q82 0 103.5 -22.5t21.5 -98.5v-1022h494v1143h295q84 0 103.5 -21.5t19.5 -99.5v-1368h-482z" />
    <glyph glyph-name="afii10017" unicode="&#x410;" horiz-adv-x="1581" 
d="M797 1104l-154 -516h299zM1241 0q-53 0 -82 24.5t-47 71.5l-63 164h-517l-67 -164q-21 -47 -48.5 -71.5t-80.5 -24.5h-336l555 1489h408q53 0 81.5 -24.5t47.5 -71.5l501 -1393h-352z" />
    <glyph glyph-name="afii10018" unicode="&#x411;" horiz-adv-x="1370" 
d="M520 915h234q326 0 445.5 -94.5t119.5 -349.5q0 -294 -154.5 -388.5t-523.5 -94.5q-188 0 -340.5 8t-175.5 26t-23 99v1368h1055v-340h-637v-234zM520 309h158q109 0 161.5 14.5t69.5 46t17 93.5q0 95 -46.5 120t-172.5 25h-187v-299z" />
    <glyph glyph-name="afii10019" unicode="&#x412;" horiz-adv-x="1405" 
d="M102 1489q222 10 353 11t190 1q172 0 295 -19.5t201 -68.5t113.5 -134t35.5 -214q0 -53 -9 -90t-26.5 -64.5t-43 -50t-60.5 -45.5q-31 -18 -31 -39q0 -20 27 -35q43 -22 75.5 -46.5t55 -60.5t34 -86t11.5 -122q0 -131 -35 -215t-113.5 -133t-208.5 -68.5t-321 -19.5
q-41 0 -100.5 1t-119.5 2t-114.5 3t-85.5 4q-43 2 -67.5 8t-36.5 19.5t-15.5 35t-3.5 58.5v1368zM840 903q28 0 38.5 6t14.5 19q6 18 11 51t5 74q0 43 -9 67.5t-36.5 39t-77 18.5t-129.5 4h-95.5t-47.5 -2v-277h326zM514 616v-301h154q82 0 133 4.5t78.5 19.5t38 42t10.5 74
q0 53 -6.5 88t-10.5 49q-4 12 -16 18t-41 6h-340z" />
    <glyph glyph-name="afii10020" unicode="&#x413;" horiz-adv-x="1126" 
d="M1106 1489v-340h-582v-1149h-299q-84 0 -103.5 21.5t-19.5 99.5v1368h1004z" />
    <glyph glyph-name="afii10021" unicode="&#x414;" horiz-adv-x="1692" 
d="M1638 -236h-235q-82 0 -103.5 22.5t-21.5 98.5v115h-879v-236h-233q-82 0 -103.5 22.5t-21.5 98.5v461h143q138 211 241.5 526.5t125.5 616.5h792q82 0 102.5 -24t20.5 -101v-1018h45q70 0 98.5 -15.5t28.5 -105.5v-461zM1051 346v803h-191q-26 -185 -104.5 -419.5
t-163.5 -383.5h459z" />
    <glyph glyph-name="afii10022" unicode="&#x415;" horiz-adv-x="1286" 
d="M225 0q-43 0 -67.5 5t-36.5 19.5t-15.5 37t-3.5 59.5v1368h1080v-340h-664v-221h617v-340h-617v-242h686v-346h-979z" />
    <glyph glyph-name="afii10024" unicode="&#x416;" horiz-adv-x="2161" 
d="M801 920h76v569h286q82 0 101.5 -22t19.5 -99v-448h76l256 493q14 26 40.5 51t102.5 25h359l-402 -733l414 -756h-375q-112 0 -153 88l-240 512h-78v-600h-283q-84 0 -104 22t-20 99v479h-78l-236 -505q-24 -49 -60 -72t-97 -23h-375l413 756l-401 733h358q66 0 95 -19.5
t61 -80.5z" />
    <glyph glyph-name="afii10025" unicode="&#x417;" horiz-adv-x="1272" 
d="M98 1446q233 72 471 72q305 0 443.5 -93.5t138.5 -312.5q0 -94 -35.5 -161.5t-126.5 -121.5q-35 -20 -35 -43q0 -22 33 -36q135 -65 169 -143.5t34 -176.5q0 -239 -158 -347t-491 -108q-302 0 -500 66l76 334q178 -56 377 -56q151 0 209.5 28.5t58.5 117.5q0 85 -51 111
t-181 26h-290v313h249q158 0 197 32t39 100q0 74 -47 105.5t-160 31.5q-132 0 -239 -51q-49 -23 -78 -23q-43 0 -54 60z" />
    <glyph glyph-name="afii10026" unicode="&#x418;" horiz-adv-x="1546" 
d="M1444 0h-291q-82 0 -103.5 22.5t-21.5 98.5v713l-543 -834h-260q-84 0 -103.5 21.5t-19.5 99.5v1368h297q82 0 101.5 -22t19.5 -99v-735l553 856h252q81 0 100 -21.5t19 -99.5v-1368z" />
    <glyph glyph-name="afii10027" unicode="&#x419;" horiz-adv-x="1546" 
d="M1444 0h-291q-82 0 -103.5 22.5t-21.5 98.5v713l-543 -834h-260q-84 0 -103.5 21.5t-19.5 99.5v1368h297q82 0 101.5 -22t19.5 -99v-735l553 856h252q81 0 100 -21.5t19 -99.5v-1368zM1131 1923q-10 -68 -41 -126.5t-81 -101.5t-116.5 -66.5t-148.5 -23.5
q-174 0 -266.5 86t-108.5 232h192q48 0 72.5 -11.5t38.5 -42.5q14 -30 38 -39.5t42 -9.5t41.5 9.5t36.5 39.5q14 35 40.5 44.5t73.5 9.5h187z" />
    <glyph glyph-name="afii10028" unicode="&#x41a;" horiz-adv-x="1509" 
d="M1116 0q-55 0 -85 19.5t-64 72.5l-320 520h-127v-612h-295q-43 0 -67.5 5t-36.5 19.5t-15.5 37t-3.5 59.5v1368h295q43 0 67.5 -5t37 -19.5t15.5 -37t3 -59.5v-436h131l264 465q17 28 30 45.5t29.5 28t37 14.5t51.5 4h393l-444 -696l518 -793h-414z" />
    <glyph glyph-name="afii10029" unicode="&#x41b;" horiz-adv-x="1532" 
d="M358 1489h942q71 0 100.5 -19.5t29.5 -109.5v-1360h-291q-82 0 -103.5 24t-21.5 101v1024h-297q-13 -269 -39 -561.5t-71 -400t-133 -159t-238 -51.5q-98 0 -230 27l41 305q58 -12 100 -12q45 0 70.5 16.5t49.5 81.5t46.5 284t32.5 456.5t12 353.5z" />
    <glyph glyph-name="afii10030" unicode="&#x41c;" horiz-adv-x="2062" 
d="M1698 0q-45 0 -72 9t-41 27.5t-19 48.5t-10 71l-67 796l-205 -952h-403q-35 0 -56.5 10t-35 29.5t-21.5 48.5t-16 66l-181 800q-16 -202 -34.5 -399t-34.5 -399q-4 -43 -9.5 -73t-19.5 -48.5t-39.5 -26.5t-71.5 -8h-270l172 1489h455q35 0 56.5 -10.5t34.5 -29.5
t21.5 -48t18.5 -66l205 -891q6 31 18 92.5t28.5 140.5t36 170t38.5 181q45 211 98 461h416q39 0 63.5 -10.5t37.5 -31t19.5 -49t10.5 -65.5l149 -1333h-272z" />
    <glyph glyph-name="afii10031" unicode="&#x41d;" horiz-adv-x="1546" 
d="M1151 0q-43 0 -67.5 5t-37 19.5t-15.5 37t-3 59.5v467h-508v-588h-295q-43 0 -67.5 5t-36.5 19.5t-15.5 37t-3.5 59.5v1368h295q43 0 67.5 -5t37 -19.5t15.5 -37t3 -59.5v-440h508v561h293q43 0 67.5 -5t37 -19.5t15.5 -37t3 -59.5v-1368h-293z" />
    <glyph glyph-name="afii10032" unicode="&#x41e;" horiz-adv-x="1587" 
d="M797 -33q-367 0 -541 191.5t-174 582.5q0 394 174 585.5t541 191.5q364 0 536 -191.5t172 -585.5q0 -391 -172 -582.5t-536 -191.5zM795 309q77 0 131.5 21.5t88.5 72t49 133t15 207.5q0 123 -16 206t-51 134.5t-88.5 74t-128.5 22.5q-74 0 -127.5 -21.5t-88 -72
t-51 -134.5t-16.5 -209q0 -122 16.5 -205t51 -133.5t88 -73t127.5 -22.5z" />
    <glyph glyph-name="afii10033" unicode="&#x41f;" horiz-adv-x="1532" 
d="M1430 0h-289q-70 0 -98.5 15.5t-28.5 105.5v1028h-494v-1149h-295q-80 0 -101.5 22.5t-21.5 98.5v1368h1209q81 0 100 -21.5t19 -99.5v-1368z" />
    <glyph glyph-name="afii10034" unicode="&#x420;" horiz-adv-x="1323" 
d="M657 805q66 0 108 7t65.5 27.5t31.5 56.5t8 93q0 58 -8 93.5t-31.5 55t-65.5 26.5t-108 7h-69t-66 -4v-362h135zM225 0q-43 0 -67.5 5t-36.5 19.5t-15.5 37t-3.5 59.5v1374q56 2 113 3t120.5 2t136.5 1h161q180 0 305 -24.5t200.5 -83t109.5 -154.5t34 -240
q0 -147 -31.5 -247.5t-106.5 -160t-200 -85t-311 -25.5h-111v-481h-297z" />
    <glyph glyph-name="afii10035" unicode="&#x421;" horiz-adv-x="1337" 
d="M1268 49q-72 -20 -154 -35q-70 -14 -159 -24t-183 -10q-172 0 -301 40.5t-215 133t-130 239t-44 357.5q0 204 51 349.5t142.5 239t216 136.5t272.5 43q102 0 196.5 -17.5t166 -39t116.5 -41t49 -21.5l-114 -293q-23 -55 -64 -55q-27 0 -45 10t-47 33q-47 36 -108.5 55.5
t-149.5 19.5q-53 0 -100.5 -20.5t-81 -68.5t-53 -129t-19.5 -201q0 -123 15.5 -204t51 -129t92 -66.5t136.5 -18.5q76 0 150.5 7t134.5 17q69 11 133 25z" />
    <glyph glyph-name="afii10036" unicode="&#x422;" horiz-adv-x="1366" 
d="M596 0q-43 0 -67.5 5t-37 19.5t-15.5 37t-3 59.5v1028h-453v340h1326v-340h-451v-1149h-299z" />
    <glyph glyph-name="afii10037" unicode="&#x423;" horiz-adv-x="1458" 
d="M1470 1489l-569 -1163q-85 -173 -192.5 -262t-368.5 -89q-124 0 -258 27l61 328q98 -27 170 -27q153 0 209 127l-522 1059h354q37 0 61 -4.5t41.5 -15.5t30 -29.5t52.5 -114.5l202 -494q242 554 253 580t38 52t111 26h327z" />
    <glyph glyph-name="afii10038" unicode="&#x424;" horiz-adv-x="1903" 
d="M745 193h-22q-335 0 -494 136t-159 429q0 305 150 447.5t503 142.5h22v161h291q81 0 101 -22t20 -98v-41h23q354 0 503.5 -142t149.5 -446q0 -286 -155.5 -426.5t-497.5 -140.5h-23v-213h-287q-84 0 -104.5 21.5t-20.5 96.5v95zM1157 528q171 0 217.5 55.5t46.5 174.5
q0 126 -54.5 173.5t-209.5 47.5v-451zM745 979q-154 0 -209 -47.5t-55 -173.5q0 -141 59.5 -185.5t204.5 -44.5v451z" />
    <glyph glyph-name="afii10039" unicode="&#x425;" horiz-adv-x="1495" 
d="M1077 0q-53 0 -76.5 24.5t-52.5 71.5l-203 342l-200 -342q-29 -47 -52.5 -71.5t-76.5 -24.5h-416l492 743l-492 746h416q30 0 48.5 -6t32 -18.5t23.5 -31t25 -42.5l198 -336l193 336q14 24 24.5 42.5t23.5 31t31.5 18.5t49.5 6h416l-480 -741l494 -748h-418z" />
    <glyph glyph-name="afii10040" unicode="&#x426;" horiz-adv-x="1673" 
d="M1620 -236h-236q-82 0 -103 22.5t-21 98.5v115h-1033q-82 0 -103.5 22.5t-21.5 98.5v1368h291q70 0 98.5 -15.5t28.5 -105.5v-1020h494v1141h289q84 0 105.5 -22t21.5 -99v-1022h63q70 0 98.5 -15.5t28.5 -105.5v-461z" />
    <glyph glyph-name="afii10041" unicode="&#x427;" horiz-adv-x="1432" 
d="M1329 0h-319q-54 0 -74.5 20t-20.5 74v287q0 35 -32 35q-16 0 -68 -13q-138 -28 -237 -28q-496 0 -496 561v553h293q81 0 102 -22.5t21 -98.5v-405q0 -170 49 -220.5t162 -50.5q84 0 145 24t61 58v715h291q82 0 102.5 -22.5t20.5 -98.5v-1368z" />
    <glyph glyph-name="afii10042" unicode="&#x428;" horiz-adv-x="2335" 
d="M2232 0h-2005q-82 0 -103.5 22.5t-21.5 98.5v1368h287q77 0 104 -19t27 -102v-1022h438v1143h289q85 0 107 -22.5t22 -98.5v-1022h439v1143h286q86 0 108.5 -22.5t22.5 -98.5v-1368z" />
    <glyph glyph-name="afii10043" unicode="&#x429;" horiz-adv-x="2476" 
d="M2423 -236h-236q-82 0 -103.5 22.5t-21.5 98.5v115h-1833q-70 0 -98.5 15.5t-28.5 105.5v1368h291q70 0 98.5 -15.5t28.5 -105.5v-1022h438v1143h289q85 0 107 -22.5t22 -98.5v-1022h439v1143h288q85 0 107 -22.5t22 -98.5v-1022h64q70 0 98.5 -15.5t28.5 -105.5v-461z
" />
    <glyph glyph-name="afii10044" unicode="&#x42a;" horiz-adv-x="1694" 
d="M457 1149h-437v340h732q81 0 101.5 -22.5t20.5 -98.5v-453h213q327 0 446.5 -94.5t119.5 -349.5q0 -294 -155 -388.5t-523 -94.5q-127 0 -274.5 6t-185.5 13.5t-48 29.5t-10 84v1028zM874 309h138q109 0 161.5 14.5t69.5 46t17 93.5q0 95 -46.5 120t-173.5 25h-166v-299z
" />
    <glyph glyph-name="afii10045" unicode="&#x42b;" horiz-adv-x="1901" 
d="M520 915h213q327 0 446 -94.5t119 -349.5q0 -294 -154.5 -388.5t-522.5 -94.5q-128 0 -275 6t-185.5 13.5t-48.5 29.5t-10 84v1368h295q82 0 102.5 -22.5t20.5 -98.5v-453zM520 309h137q110 0 162.5 14.5t69 46t16.5 93.5q0 95 -46.5 120t-172.5 25h-166v-299zM1798 0
h-299q-81 0 -102 22.5t-21 98.5v1368h299q82 0 102.5 -22.5t20.5 -98.5v-1368z" />
    <glyph glyph-name="afii10046" unicode="&#x42c;" horiz-adv-x="1360" 
d="M520 915h234q326 0 445.5 -94.5t119.5 -349.5q0 -294 -154.5 -388.5t-523.5 -94.5q-188 0 -340.5 8t-175.5 26t-23 99v1368h295q82 0 102.5 -22.5t20.5 -98.5v-453zM520 309h158q109 0 161.5 14.5t69.5 46t17 93.5q0 95 -46.5 120t-172.5 25h-187v-299z" />
    <glyph glyph-name="afii10047" unicode="&#x42d;" horiz-adv-x="1329" 
d="M57 1411q230 109 518 109q327 0 499.5 -181t172.5 -536q0 -422 -187.5 -624t-572.5 -202q-132 0 -260.5 24.5t-167.5 43.5q45 247 60 336q0 -9 116 -33t230 -24q173 0 250.5 63.5t95.5 212.5h-586v315h584q-11 144 -79 209.5t-202 65.5t-235 -49q-74 -35 -94 -35
q-22 0 -42 13.5t-34 63.5z" />
    <glyph glyph-name="afii10048" unicode="&#x42e;" horiz-adv-x="2128" 
d="M700 928q68 590 670 590q345 0 510.5 -190t165.5 -587q0 -395 -165.5 -584.5t-510.5 -189.5q-615 0 -674 621h-176v-588h-295q-81 0 -102 22.5t-21 98.5v1368h295q82 0 102.5 -22.5t20.5 -98.5v-440h180zM1120 743q0 -228 55.5 -331t192.5 -103q146 0 199 99.5t53 334.5
q0 241 -58 339t-194 98q-141 0 -194.5 -102.5t-53.5 -334.5z" />
    <glyph glyph-name="afii10049" unicode="&#x42f;" horiz-adv-x="1409" 
d="M1307 0h-291q-82 0 -103.5 22.5t-21.5 98.5v405h-283q-40 0 -59.5 -9.5t-27 -33t-12.5 -130.5l-11 -232q-4 -74 -23 -97.5t-98 -23.5h-293q15 419 19 478.5t32 107.5t101 82q38 16 38 43q0 18 -30 37q-77 44 -107.5 112t-30.5 178q0 169 53.5 267.5t190 146t387.5 47.5
q467 0 518.5 -10t51.5 -115v-1374zM891 817v332q-54 2 -191 2q-101 0 -143.5 -36.5t-42.5 -125.5q0 -57 14 -105t25.5 -57.5t40.5 -9.5h297z" />
    <glyph glyph-name="afii10065" unicode="&#x430;" horiz-adv-x="1245" 
d="M944 0q-41 0 -59.5 12.5t-28.5 28.5q-6 10 -13 23.5t-24 13.5q-16 0 -33.5 -11.5t-29.5 -19.5q-35 -22 -98.5 -46t-155.5 -24q-90 0 -172 33t-143.5 99.5t-98.5 170t-37 244.5q0 144 37 248.5t99.5 172t144.5 100t170 32.5q92 0 155.5 -23.5t98.5 -45.5q12 -9 29.5 -20
t33.5 -11q17 0 24 13.5t13 23.5q10 16 28.5 28.5t59.5 12.5h219v-1055h-219zM776 694q0 15 -8 21q-10 8 -44 21.5t-75 13.5q-80 0 -135 -48.5t-55 -173.5q0 -108 41 -165.5t143 -57.5q59 0 89 15.5t36 19.5t7 11t1 11v332z" />
    <glyph glyph-name="afii10066" unicode="&#x431;" horiz-adv-x="1266" 
d="M438 870q118 121 344 121q211 0 321.5 -123.5t110.5 -357.5q0 -261 -151.5 -398t-435.5 -137q-297 0 -436.5 154t-139.5 479q0 296 81 461t201 231t292 101q76 15 110 30t41 58h320q41 0 41 -43q0 -155 -87.5 -239t-287.5 -113q-164 -24 -242.5 -76.5t-81.5 -147.5z
M631 291q87 0 132.5 53t45.5 150q0 192 -178 192q-172 0 -172 -192q0 -203 172 -203z" />
    <glyph glyph-name="afii10067" unicode="&#x432;" horiz-adv-x="1167" 
d="M82 1055q246 8 475 8q314 0 430.5 -64t116.5 -227q0 -68 -25 -111.5t-92 -80.5q-24 -13 -24 -31q0 -17 24 -29q83 -36 113 -86t30 -133q0 -181 -124 -245t-449 -64q-380 0 -427.5 19.5t-47.5 107.5v936zM465 645h203q33 0 43 26.5t10 63.5q0 55 -33.5 66.5t-128.5 11.5
q-82 0 -94 -2v-166zM465 246h100q100 0 134 12t34 72q0 56 -11.5 76t-43.5 20h-213v-180z" />
    <glyph glyph-name="afii10068" unicode="&#x433;" horiz-adv-x="842" 
d="M817 1055v-275h-348v-780h-258q-87 0 -108 24.5t-21 108.5v922h735z" />
    <glyph glyph-name="afii10069" unicode="&#x434;" horiz-adv-x="1405" 
d="M1364 -215h-244q-81 0 -102 22.5t-21 98.5v94h-596v-215h-245q-82 0 -102.5 22.5t-20.5 98.5v379h121q83 145 151 362.5t90 407.5h674q133 0 133 -113v-657h39q82 0 102.5 -23t20.5 -98v-379zM815 285v477h-139q-43 -253 -144 -477h283z" />
    <glyph glyph-name="afii10070" unicode="&#x435;" horiz-adv-x="1202" 
d="M1106 27q-115 -23 -217.5 -36.5t-218.5 -13.5q-152 0 -267.5 30t-193.5 95.5t-118 170t-40 253.5q0 129 42 232.5t117 174.5t181.5 108.5t235.5 37.5q110 0 204.5 -22.5t163 -71.5t107.5 -127t39 -186q0 -92 -29 -147.5t-76 -88.5q-30 -22 -75.5 -35.5t-101.5 -22.5
t-120.5 -12.5t-130.5 -3.5h-57t-49 3q-25 0 -47 2q8 -66 66.5 -87.5t189.5 -21.5q65 0 129.5 7t115.5 18q60 10 115 24zM446 584h76t66 2q59 2 98 7t59 21q17 13 26 29t9 45q0 47 -30.5 80t-106.5 33q-88 0 -142.5 -55.5t-54.5 -161.5z" />
    <glyph glyph-name="afii10072" unicode="&#x436;" horiz-adv-x="1792" 
d="M709 121v276h-88l-120 -275q-28 -64 -40.5 -80.5t-44 -29t-80.5 -12.5h-332l297 549l-276 506h321q43 0 83 -19t65 -74l133 -282h82v377h252q81 0 101.5 -23t20.5 -98v-256h82l139 294q20 41 57.5 61t84.5 20h321l-276 -506l297 -549h-332q-56 0 -93 18t-60 74l-132 305
h-88v-397h-249q-82 0 -103.5 23t-21.5 98z" />
    <glyph glyph-name="afii10073" unicode="&#x437;" horiz-adv-x="1047" 
d="M82 1034q193 51 397 51q260 0 379 -67t119 -223q0 -80 -30.5 -123.5t-94.5 -75.5q-31 -14 -31 -35q0 -18 29 -31q109 -42 134.5 -96.5t25.5 -126.5q0 -172 -135.5 -248.5t-419.5 -76.5q-260 0 -414 43l61 262q165 -31 306 -31q119 0 156.5 18.5t37.5 63.5
q0 41 -24.5 57.5t-94.5 16.5h-290v231h245q73 0 105 15.5t32 66.5q0 52 -35 69t-116 17q-85 0 -186 -31q-58 -16 -72 -16q-41 0 -48 48z" />
    <glyph glyph-name="afii10074" unicode="&#x438;" horiz-adv-x="1221" 
d="M1139 0h-236q-90 0 -111.5 24.5t-21.5 108.5v369q-50 -75 -181.5 -248t-185.5 -254h-194q-87 0 -107 23.5t-20 109.5v922h235q91 0 112.5 -25.5t21.5 -114.5v-415q49 80 197 278q146 196 196 277h166q88 0 108.5 -24.5t20.5 -108.5v-922z" />
    <glyph glyph-name="afii10075" unicode="&#x439;" horiz-adv-x="1221" 
d="M1139 0h-236q-90 0 -111.5 24.5t-21.5 108.5v369q-50 -75 -181.5 -248t-185.5 -254h-194q-87 0 -107 23.5t-20 109.5v922h235q91 0 112.5 -25.5t21.5 -114.5v-415q49 80 197 278q146 196 196 277h166q88 0 108.5 -24.5t20.5 -108.5v-922zM1010 1481q-10 -68 -41 -126.5
t-81 -101.5t-116.5 -66.5t-148.5 -23.5q-174 0 -266.5 86t-108.5 232h192q48 0 72.5 -11.5t38.5 -42.5q14 -30 38 -39.5t42 -9.5t41.5 9.5t36.5 39.5q14 35 40.5 44.5t73.5 9.5h187z" />
    <glyph glyph-name="afii10076" unicode="&#x43a;" horiz-adv-x="1206" 
d="M1206 0h-340q-52 0 -88.5 18t-64.5 73l-158 306h-86v-397h-262q-82 0 -103.5 23t-21.5 98v936h264q82 0 102.5 -23t20.5 -98v-256h80l152 292q22 43 60 63t83 20h330l-291 -500z" />
    <glyph glyph-name="afii10077" unicode="&#x43b;" horiz-adv-x="1237" 
d="M1155 0h-252q-91 0 -113 24.5t-22 108.5v629h-190q-6 -324 -28 -488.5t-94 -226t-233 -61.5q-112 0 -217 20l25 291q37 -8 67 -8q54 0 76.5 44.5t36.5 264.5t20 457h791q61 0 97 -29.5t36 -83.5v-942z" />
    <glyph glyph-name="afii10078" unicode="&#x43c;" horiz-adv-x="1595" 
d="M1565 0h-234q-59 0 -84.5 18t-33.5 55.5t-25 247.5l-33 400l-178 -721h-275q-46 0 -72.5 14t-40 46.5t-59.5 240.5l-94 420l-41 -413q-20 -203 -29.5 -237t-36.5 -52.5t-77 -18.5h-221l129 1055h399q51 0 76.5 -17t35 -44.5t51.5 -229.5l83 -406l168 697h344
q122 0 137 -125z" />
    <glyph glyph-name="afii10079" unicode="&#x43d;" horiz-adv-x="1229" 
d="M1147 0h-266q-87 0 -104 25.5t-17 95.5v278h-291v-399h-266q-87 0 -104 25.5t-17 95.5v934h262q74 0 99.5 -24t25.5 -116v-258h291v398h258q76 0 102.5 -25t26.5 -115v-915z" />
    <glyph glyph-name="afii10080" unicode="&#x43e;" horiz-adv-x="1278" 
d="M1227 526q0 -268 -153.5 -408.5t-434.5 -140.5q-135 0 -243.5 36t-185.5 106.5t-118 173t-41 237.5q0 269 153.5 409t434.5 140q135 0 244.5 -35.5t185.5 -106.5t117 -173t41 -238zM823 528q0 115 -42 174.5t-142 59.5t-142 -59.5t-42 -174.5q0 -114 42 -173.5t142 -59.5
t142 59.5t42 173.5z" />
    <glyph glyph-name="afii10081" unicode="&#x43f;" horiz-adv-x="1217" 
d="M1135 0h-256q-78 0 -104.5 23t-26.5 110v629h-279v-762h-264q-73 0 -98 19.5t-25 105.5v930h924q77 0 103 -28.5t26 -111.5v-915z" />
    <glyph glyph-name="afii10082" unicode="&#x440;" horiz-adv-x="1231" 
d="M205 -365q-45 0 -69.5 5.5t-37 19.5t-14.5 36.5t-2 59.5v1299h219q41 0 59.5 -12.5t28.5 -28.5q6 -10 13.5 -23.5t23.5 -13.5t33.5 11t29.5 20q35 22 98.5 45.5t155.5 23.5q91 0 172.5 -32.5t143 -99t98.5 -170t37 -245.5q0 -143 -38 -247.5t-100.5 -172t-144.5 -100.5
t-170 -33q-55 0 -113.5 19.5t-105.5 48.5q-22 12 -33 12q-20 0 -20 -43v-379h-264zM469 360q0 -14 8 -20q10 -8 44 -21.5t75 -13.5q80 0 135 48t55 173q0 109 -40.5 166.5t-143.5 57.5q-59 0 -89 -15.5t-36 -19.5t-7 -11.5t-1 -11.5v-332z" />
    <glyph glyph-name="afii10083" unicode="&#x441;" horiz-adv-x="1061" 
d="M1008 33q-74 -17 -128.5 -27t-99.5 -16t-87 -9.5t-91 -3.5q-129 0 -230.5 32t-173 98.5t-109.5 169t-38 243.5q0 144 42 247t118 171t180.5 100.5t229.5 32.5q77 0 149 -13.5t127 -29.5q66 -20 123 -43l-80 -215q-14 -35 -32.5 -58.5t-55.5 -23.5q-29 0 -54.5 14.5
t-43.5 22.5q-27 10 -59.5 18.5t-67.5 8.5q-80 0 -126 -52.5t-46 -177.5q0 -110 42 -169.5t150 -59.5q96 0 174 17.5t156 31.5z" />
    <glyph glyph-name="afii10084" unicode="&#x442;" horiz-adv-x="997" 
d="M981 1055v-275h-289v-780h-389v780h-287v275h965z" />
    <glyph glyph-name="afii10085" unicode="&#x443;" horiz-adv-x="1198" 
d="M731 14q0 43 -22 43q-13 0 -33 -12q-47 -29 -106.5 -48.5t-114.5 -19.5q-72 0 -141.5 16.5t-123 62.5t-86 128t-32.5 213v658h264q43 0 67.5 -5.5t37 -19.5t15.5 -36.5t3 -59.5v-490q0 -84 34.5 -110.5t104.5 -26.5q59 0 88 14.5t35 20.5t7 12t1 11v690h264
q43 0 67.5 -5.5t37 -19.5t15.5 -36.5t3 -59.5v-907q0 -250 -137 -369t-373 -119q-110 0 -193 25.5t-137 56.5q-65 37 -108 84l174 201q23 -23 59 -39q29 -17 74 -28t105 -11q69 0 110 34t41 101v51z" />
    <glyph glyph-name="afii10086" unicode="&#x444;" horiz-adv-x="1645" 
d="M1010 1049h22q286 0 423.5 -129.5t137.5 -399.5q0 -219 -145.5 -366.5t-413.5 -147.5h-24v-371h-250q-84 0 -104.5 22.5t-20.5 98.5v250h-25q-275 0 -417 131.5t-142 384.5q0 271 136 399t423 128h25v440h254q81 0 101 -22.5t20 -98.5v-319zM1010 313h10q108 0 145 53
t37 169q0 112 -37.5 161t-144.5 49h-10v-432zM635 745h-10q-109 0 -146 -49t-37 -161q0 -114 36.5 -166t146.5 -52h10v428z" />
    <glyph glyph-name="afii10087" unicode="&#x445;" horiz-adv-x="1198" 
d="M868 0q-41 0 -80.5 15.5t-64.5 64.5l-123 250l-123 -250q-24 -49 -64 -64.5t-81 -15.5h-330l309 526l-311 529h328q41 0 81 -15.5t64 -64.5l127 -248l121 248q24 49 64 64.5t81 15.5h328l-309 -529l313 -526h-330z" />
    <glyph glyph-name="afii10088" unicode="&#x446;" horiz-adv-x="1337" 
d="M1296 -215h-243q-82 0 -102.5 22.5t-20.5 98.5v94h-717q-79 0 -105 27t-26 112v916h254q76 0 104.5 -22.5t28.5 -108.5v-631h279v762h266q67 0 94 -18t27 -109v-635h39q81 0 101.5 -22.5t20.5 -98.5v-387z" />
    <glyph glyph-name="afii10089" unicode="&#x447;" horiz-adv-x="1176" 
d="M72 1055h254q89 0 111 -24.5t22 -108.5v-174q0 -102 31 -129t92 -27q58 0 91.5 17.5t33.5 35.5v410h258q87 0 108 -24.5t21 -108.5v-922h-263q-84 0 -104 23.5t-20 109.5v160q0 26 -19 26q-6 0 -31 -6q-120 -28 -213 -28q-372 0 -372 395v375z" />
    <glyph glyph-name="afii10090" unicode="&#x448;" horiz-adv-x="1845" 
d="M1763 0h-1552q-78 0 -103.5 24.5t-25.5 112.5v918h256q77 0 105 -21.5t28 -111.5v-629h258v762h260q77 0 103 -23.5t26 -109.5v-629h258v762h258q76 0 102.5 -22t26.5 -111v-922z" />
    <glyph glyph-name="afii10091" unicode="&#x449;" horiz-adv-x="1991" 
d="M1950 -215h-244q-81 0 -102 22.5t-21 98.5v94h-1372q-78 0 -103.5 24.5t-25.5 112.5v918h256q77 0 105 -21.5t28 -111.5v-629h258v762h260q77 0 103 -23.5t26 -109.5v-629h258v762h258q76 0 102.5 -22t26.5 -111v-629h64q81 0 102 -22.5t21 -98.5v-387z" />
    <glyph glyph-name="afii10092" unicode="&#x44a;" horiz-adv-x="1423" 
d="M338 780h-322v275h580q84 0 104.5 -26t20.5 -114v-264h252q236 0 324.5 -62t88.5 -249q0 -153 -64.5 -228t-180 -96.5t-320.5 -21.5q-293 0 -360 5t-95 28.5t-28 89.5v663zM721 246h131q86 0 111.5 18.5t25.5 73.5q0 53 -25.5 69.5t-99.5 16.5h-143v-178z" />
    <glyph glyph-name="afii10093" unicode="&#x44b;" horiz-adv-x="1626" 
d="M465 651h229q237 0 325.5 -62t88.5 -249q0 -153 -64.5 -228t-180.5 -96.5t-320 -21.5q-231 0 -314 3t-115 26.5t-32 93.5v938h258q84 0 104.5 -26t20.5 -114v-264zM465 246h108q87 0 112.5 18.5t25.5 73.5q0 51 -24 68.5t-101 17.5h-121v-178zM1544 0h-264
q-81 0 -102 22.5t-21 98.5v934h264q82 0 102.5 -23t20.5 -98v-934z" />
    <glyph glyph-name="afii10094" unicode="&#x44c;" horiz-adv-x="1167" 
d="M465 651h252q236 0 324.5 -62t88.5 -249q0 -153 -64.5 -228t-180 -96.5t-320.5 -21.5q-293 0 -360 5t-95 28.5t-28 89.5v938h258q84 0 104.5 -26t20.5 -114v-264zM465 246h131q86 0 111.5 18.5t25.5 73.5q0 53 -25.5 69.5t-99.5 16.5h-143v-178z" />
    <glyph glyph-name="afii10095" unicode="&#x44d;" horiz-adv-x="1094" 
d="M41 981q214 98 465 98q250 0 393 -138.5t143 -381.5q0 -281 -157.5 -432.5t-448.5 -151.5q-192 0 -375 48q24 103 56 276q175 -41 272 -41q112 0 173 34t81 122h-459v229h465q-21 158 -209 158q-92 0 -186 -37q-61 -25 -88 -25q-29 0 -45.5 15t-26.5 47z" />
    <glyph glyph-name="afii10096" unicode="&#x44e;" horiz-adv-x="1733" 
d="M571 657q35 207 177.5 314.5t373.5 107.5q265 0 412 -144.5t147 -408.5t-145 -406.5t-414 -142.5q-225 0 -368.5 108.5t-180.5 313.5h-104v-399h-266q-87 0 -104 25.5t-17 95.5v934h262q74 0 99.5 -24t25.5 -116v-258h102zM1122 295q158 0 158 233q0 234 -158 234
q-155 0 -155 -234q0 -233 155 -233z" />
    <glyph glyph-name="afii10097" unicode="&#x44f;" horiz-adv-x="1210" 
d="M741 332h-204q-42 0 -64.5 -22t-25.5 -66l-13 -166q-2 -40 -22 -59t-82 -19h-293q23 267 28 305t37.5 81.5t100.5 64.5q33 10 33 30q0 21 -33 33q-76 32 -106.5 88.5t-30.5 151.5q0 172 132 243.5t408 71.5q164 0 297 -5t164 -13t46 -31t15 -90v-930h-262q-75 0 -100 19
t-25 104v209zM741 575v218q-75 4 -131 4q-81 0 -118 -19.5t-37 -83.5q0 -46 9 -76t23 -36.5t56 -6.5h198z" />
    <glyph glyph-name="afii10071" unicode="&#x451;" horiz-adv-x="1202" 
d="M1106 27q-115 -23 -217.5 -36.5t-218.5 -13.5q-152 0 -267.5 30t-193.5 95.5t-118 170t-40 253.5q0 129 42 232.5t117 174.5t181.5 108.5t235.5 37.5q110 0 204.5 -22.5t163 -71.5t107.5 -127t39 -186q0 -92 -29 -147.5t-76 -88.5q-30 -22 -75.5 -35.5t-101.5 -22.5
t-120.5 -12.5t-130.5 -3.5h-57t-49 3q-25 0 -47 2q8 -66 66.5 -87.5t189.5 -21.5q65 0 129.5 7t115.5 18q60 10 115 24zM446 584h76t66 2q59 2 98 7t59 21q17 13 26 29t9 45q0 47 -30.5 80t-106.5 33q-88 0 -142.5 -55.5t-54.5 -161.5zM207 1196v291h338v-291h-338z
M668 1196v291h338v-291h-338z" />
    <glyph glyph-name="afii10099" unicode="&#x452;" horiz-adv-x="1206" 
d="M748 -37v576q0 72 -30 104.5t-114 32.5q-51 0 -82.5 -12.5t-42 -21t-10.5 -24.5v-618h-264q-82 0 -102.5 22.5t-20.5 98.5v960h-143v275h143v133h264q78 0 99.5 -27t23.5 -106h299v-275h-299v-114q0 -43 20 -43q12 0 33 12q111 68 254 68q359 0 359 -420v-557
q0 -249 -112 -366.5t-349 -117.5q-132 0 -258 45l78 256q62 -20 129 -20t96 32.5t29 106.5z" />
    <glyph glyph-name="afii10100" unicode="&#x453;" horiz-adv-x="842" 
d="M817 1055v-275h-348v-780h-258q-87 0 -108 24.5t-21 108.5v922h735zM545 1214q-33 -22 -63 -32.5t-68 -10.5h-283l309 273q35 31 63.5 38t67.5 7h355z" />
    <glyph glyph-name="afii10101" unicode="&#x454;" horiz-adv-x="1108" 
d="M989 293l21 -277q-153 -39 -377 -39q-582 0 -582 551q0 253 157.5 402t430.5 149q228 0 428 -84l-75 -211q-10 -28 -27.5 -42.5t-42.5 -14.5q-35 0 -72 18q-111 56 -205 56q-169 0 -199 -160h449v-229h-451q12 -154 256 -154q106 0 289 35z" />
    <glyph glyph-name="afii10102" unicode="&#x455;" horiz-adv-x="1022" 
d="M72 334q69 -17 172.5 -35t222.5 -18q72 0 99.5 14t27.5 49q0 18 -10.5 29.5t-32 17.5t-57 11.5t-86.5 13.5q-86 12 -156 30.5t-119 52t-75.5 86t-26.5 132.5q0 69 24.5 135t86 116t165 79.5t260.5 29.5q109 0 213.5 -22.5t192.5 -53.5l-92 -243q-21 -56 -64 -56
q-16 0 -32.5 7.5t-34.5 17.5q-37 23 -86.5 36t-102.5 13q-139 0 -139 -63q0 -35 31.5 -45.5t128.5 -22.5q106 -14 182 -35.5t125 -56.5t72.5 -89t23.5 -132q0 -355 -532 -355q-99 0 -201 13.5t-213 36.5z" />
    <glyph glyph-name="afii10103" unicode="&#x456;" horiz-adv-x="551" 
d="M80 1174v315h391v-315h-391zM205 0q-43 0 -67.5 5t-37 19.5t-15.5 37t-3 59.5v934h264q43 0 67.5 -5.5t37 -19.5t15.5 -36.5t3 -59.5v-934h-264z" />
    <glyph glyph-name="afii10104" unicode="&#x457;" horiz-adv-x="551" 
d="M205 0q-43 0 -67.5 5t-37 19.5t-15.5 37t-3 59.5v934h264q43 0 67.5 -5.5t37 -19.5t15.5 -36.5t3 -59.5v-934h-264zM-123 1196v291h338v-291h-338zM338 1196v291h338v-291h-338z" />
    <glyph glyph-name="afii10105" unicode="&#x458;" horiz-adv-x="578" 
d="M106 1174v315h392v-315h-392zM-78 -147q15 -3 33 -5q14 -2 32.5 -3t35.5 -1q49 0 67.5 27t18.5 66v1118h264q43 0 67.5 -5.5t36.5 -19.5t15.5 -36.5t3.5 -59.5v-1038q0 -177 -76 -267t-254 -90q-53 0 -102.5 4t-86.5 8q-43 7 -79 15z" />
    <glyph glyph-name="afii10106" unicode="&#x459;" horiz-adv-x="1835" 
d="M1155 651h229q237 0 325.5 -62t88.5 -249q0 -153 -64.5 -228t-180.5 -96.5t-320 -21.5q-231 0 -314 3t-115 26.5t-32 93.5v645h-194q-6 -324 -28 -488.5t-94 -226t-233 -61.5q-112 0 -217 20l25 291q37 -8 67 -8q54 0 76.5 44.5t36.5 264.5t20 457h791q61 0 97 -29.5
t36 -83.5v-291zM1155 246h109q86 0 111.5 18.5t25.5 73.5q0 53 -25.5 69.5t-99.5 16.5h-121v-178z" />
    <glyph glyph-name="afii10107" unicode="&#x45a;" horiz-adv-x="1817" 
d="M1137 651h229q237 0 325.5 -62t88.5 -249q0 -153 -64.5 -228t-180.5 -96.5t-321 -21.5q-274 0 -340.5 5t-95 29t-28.5 89v282h-281v-399h-266q-87 0 -104 25.5t-17 95.5v934h262q74 0 99.5 -24t25.5 -116v-258h281v398h258q76 0 102.5 -25t26.5 -115v-264zM1137 246h108
q87 0 112 18.5t25 73.5q0 51 -23.5 68.5t-101.5 17.5h-120v-178z" />
    <glyph glyph-name="afii10108" unicode="&#x45b;" horiz-adv-x="1206" 
d="M768 1356v-275h-299v-114q0 -43 20 -43q12 0 33 12q111 68 254 68q359 0 359 -420v-584h-265q-81 0 -101.5 22.5t-20.5 98.5v418q0 72 -30 104.5t-114 32.5q-51 0 -82.5 -12.5t-42 -21t-10.5 -24.5v-618h-264q-82 0 -102.5 22.5t-20.5 98.5v960h-143v275h143v133h264
q78 0 99.5 -27t23.5 -106h299z" />
    <glyph glyph-name="afii10109" unicode="&#x45c;" horiz-adv-x="1206" 
d="M1206 0h-340q-52 0 -88.5 18t-64.5 73l-158 306h-86v-397h-262q-82 0 -103.5 23t-21.5 98v936h264q82 0 102.5 -23t20.5 -98v-256h80l152 292q22 43 60 63t83 20h330l-291 -500zM717 1214q-33 -22 -63 -32.5t-68 -10.5h-283l309 273q35 31 63.5 38t67.5 7h355z" />
    <glyph glyph-name="afii10110" unicode="&#x45e;" horiz-adv-x="1198" 
d="M731 14q0 43 -22 43q-13 0 -33 -12q-47 -29 -106.5 -48.5t-114.5 -19.5q-72 0 -141.5 16.5t-123 62.5t-86 128t-32.5 213v658h264q43 0 67.5 -5.5t37 -19.5t15.5 -36.5t3 -59.5v-490q0 -84 34.5 -110.5t104.5 -26.5q59 0 88 14.5t35 20.5t7 12t1 11v690h264
q43 0 67.5 -5.5t37 -19.5t15.5 -36.5t3 -59.5v-907q0 -250 -137 -369t-373 -119q-110 0 -193 25.5t-137 56.5q-65 37 -108 84l174 201q23 -23 59 -39q29 -17 74 -28t105 -11q69 0 110 34t41 101v51zM971 1481q-10 -68 -41 -126.5t-81 -101.5t-116.5 -66.5t-148.5 -23.5
q-174 0 -266.5 86t-108.5 232h192q48 0 72.5 -11.5t38.5 -42.5q14 -30 38 -39.5t42 -9.5t41.5 9.5t36.5 39.5q14 35 40.5 44.5t73.5 9.5h187z" />
    <glyph glyph-name="afii10193" unicode="&#x45f;" horiz-adv-x="1217" 
d="M795 -215h-244q-82 0 -102.5 22.5t-20.5 98.5v94h-217q-81 0 -105 29.5t-24 113.5v912h254q81 0 107 -24t26 -107v-631h279v762h262q84 0 104.5 -26t20.5 -103v-926h-340v-215z" />
    <glyph glyph-name="afii10050" unicode="&#x490;" horiz-adv-x="1198" 
d="M1141 1149h-617v-1149h-299q-84 0 -103.5 21.5t-19.5 99.5v1368h682v242h234q81 0 102 -23t21 -98v-461z" />
    <glyph glyph-name="afii10098" unicode="&#x491;" horiz-adv-x="926" 
d="M518 1286h244q81 0 102 -22.5t21 -98.5v-385h-416v-780h-258q-87 0 -108 24.5t-21 108.5v922h436v231z" />
    <glyph glyph-name="afii61352" unicode="&#x2116;" horiz-adv-x="2550" 
d="M1399 0h-379q-112 0 -164 111l-407 868v-979h-248q-79 0 -100 22t-21 97v1370h385q117 0 166 -109l399 -893v1002h244q74 0 99.5 -21.5t25.5 -99.5v-1368zM2007 1448q243 0 378.5 -128t135.5 -359q0 -233 -134 -359.5t-380 -126.5q-240 0 -376 128.5t-136 359.5
q0 232 133.5 358.5t378.5 126.5zM2007 756q162 0 162 207q0 204 -162 204q-160 0 -160 -204q0 -207 160 -207zM2480 0h-946v332h946v-332z" />
    <glyph glyph-name="uni0492" unicode="&#x492;" horiz-adv-x="1126" 
d="M-41 588v321h143v580h1004v-340h-582v-240h236v-321h-236v-588h-299q-82 0 -102.5 22t-20.5 99v467h-143z" />
    <glyph glyph-name="uni0493" unicode="&#x493;" horiz-adv-x="842" 
d="M645 637v-238h-176v-399h-258q-86 0 -107.5 24.5t-21.5 108.5v266h-84v238h84v418h735v-275h-348v-143h176z" />
    <glyph glyph-name="uni049A" unicode="&#x49a;" horiz-adv-x="1509" 
d="M1368 346q70 0 98.5 -16t28.5 -105v-461h-235q-83 0 -104 22.5t-21 98.5v115h-19q-55 0 -85 19.5t-64 72.5l-320 520h-127v-612h-295q-76 0 -99.5 19t-23.5 102v1368h295q82 0 102.5 -22.5t20.5 -98.5v-436h131l264 465q27 48 54 70t94 22h393l-444 -696l293 -447h63z
" />
    <glyph glyph-name="uni049B" unicode="&#x49b;" horiz-adv-x="1206" 
d="M840 0q-82 0 -121 80l-164 317h-86v-397h-262q-83 0 -104 23t-21 98v936h264q82 0 102.5 -22.5t20.5 -98.5v-256h80l153 295q41 80 142 80h330l-291 -500l151 -262h39q82 0 102.5 -22.5t20.5 -98.5v-387h-233q-80 0 -101.5 20.5t-21.5 100.5v94z" />
    <glyph glyph-name="uni04B2" unicode="&#x4b2;" horiz-adv-x="1495" 
d="M1348 346q82 0 104.5 -22.5t22.5 -98.5v-461h-236q-82 0 -103.5 22.5t-21.5 98.5v115h-37q-41 0 -64.5 15t-64.5 81l-203 342l-200 -342q-32 -54 -56.5 -75t-72.5 -21h-416l492 743l-492 746h416q74 0 104 -55q10 -19 25 -43l198 -336l193 336q37 65 57 81.5t72 16.5h416
l-480 -741l265 -402h82z" />
    <glyph glyph-name="uni04B3" unicode="&#x4b3;" horiz-adv-x="1198" 
d="M1075 293q82 0 102.5 -22.5t20.5 -98.5v-387h-233q-80 0 -101.5 20.5t-21.5 100.5v94q-78 0 -119 80l-123 250l-123 -250q-39 -80 -145 -80h-330l309 526l-311 529h328q106 0 145 -80l127 -248l121 248q39 80 145 80h328l-309 -529l139 -233h51z" />
    <glyph glyph-name="Ckreska" horiz-adv-x="1337" 
d="M1268 49q-72 -20 -154 -35q-70 -14 -159 -24t-183 -10q-172 0 -301 40.5t-215 133t-130 239t-44 357.5q0 204 51 349.5t142.5 239t216 136.5t272.5 43q102 0 196.5 -17.5t166 -39t116.5 -41t49 -21.5l-114 -293q-23 -55 -64 -55q-27 0 -45 10t-47 33q-47 36 -108.5 55.5
t-149.5 19.5q-53 0 -100.5 -20.5t-81 -68.5t-53 -129t-19.5 -201q0 -123 15.5 -204t51 -129t92 -66.5t136.5 -18.5q76 0 150.5 7t134.5 17q69 11 133 25zM893 1648q-33 -22 -63 -32.5t-68 -10.5h-283l309 273q35 31 63.5 38t67.5 7h355z" />
    <glyph glyph-name="ckreska" horiz-adv-x="1061" 
d="M1008 33q-74 -17 -128.5 -27t-99.5 -16t-87 -9.5t-91 -3.5q-129 0 -230.5 32t-173 98.5t-109.5 169t-38 243.5q0 144 42 247t118 171t180.5 100.5t229.5 32.5q77 0 149 -13.5t127 -29.5q66 -20 123 -43l-80 -215q-14 -35 -32.5 -58.5t-55.5 -23.5q-29 0 -54.5 14.5
t-43.5 22.5q-27 10 -59.5 18.5t-67.5 8.5q-80 0 -126 -52.5t-46 -177.5q0 -110 42 -169.5t150 -59.5q96 0 174 17.5t156 31.5zM719 1225q-34 -54 -113 -54h-188l174 371q18 39 46.5 48t70.5 9h247z" />
    <glyph glyph-name="Nkreska" horiz-adv-x="1616" 
d="M1100 0q-113 0 -174 109q-31 55 -72 128.5t-84 157.5t-87 172t-82 169t-67.5 148.5t-44.5 112.5v-997h-264q-43 0 -67.5 5t-36.5 19.5t-15.5 37t-3.5 59.5v1368h433q63 0 101 -24.5t73 -80.5q14 -22 46.5 -84.5t74.5 -146.5t89.5 -181.5t89.5 -190.5t75.5 -173t48.5 -129
v1010h258q43 0 67.5 -5t36.5 -19.5t15 -37t3 -59.5v-1368h-413zM942 1648q-33 -22 -63 -32.5t-68 -10.5h-283l309 273q35 31 63.5 38t67.5 7h355z" />
    <glyph glyph-name="nkreska" horiz-adv-x="1206" 
d="M870 0q-43 0 -67.5 5t-36.5 19.5t-15 37t-3 59.5v491q0 84 -37 111t-107 27q-59 0 -90 -15.5t-37 -19.5t-7 -11.5t-1 -11.5v-692h-264q-43 0 -67.5 5t-37 19.5t-15.5 37t-3 59.5v934h219q41 0 59.5 -12.5t28.5 -28.5q6 -10 13.5 -23.5t23.5 -13.5t33.5 11t29.5 20
q35 22 98.5 45.5t155.5 23.5q76 0 147 -16.5t125 -62.5t87 -128t33 -213v-657h-265zM762 1225q-34 -54 -113 -54h-188l174 371q18 39 46.5 48t70.5 9h247z" />
    <glyph glyph-name="Okreska" horiz-adv-x="1587" 
d="M797 -33q-367 0 -541 191.5t-174 582.5q0 394 174 585.5t541 191.5q364 0 536 -191.5t172 -585.5q0 -391 -172 -582.5t-536 -191.5zM795 309q77 0 131.5 21.5t88.5 72t49 133t15 207.5q0 123 -16 206t-51 134.5t-88.5 74t-128.5 22.5q-74 0 -127.5 -21.5t-88 -72
t-51 -134.5t-16.5 -209q0 -122 16.5 -205t51 -133.5t88 -73t127.5 -22.5zM953 1648q-33 -22 -63 -32.5t-68 -10.5h-283l309 273q35 31 63.5 38t67.5 7h355z" />
    <glyph glyph-name="okreska" horiz-adv-x="1278" 
d="M1227 526q0 -268 -153.5 -408.5t-434.5 -140.5q-135 0 -243.5 36t-185.5 106.5t-118 173t-41 237.5q0 269 153.5 409t434.5 140q135 0 244.5 -35.5t185.5 -106.5t117 -173t41 -238zM823 528q0 115 -42 174.5t-142 59.5t-142 -59.5t-42 -174.5q0 -114 42 -173.5t142 -59.5
t142 59.5t42 173.5zM801 1225q-34 -54 -113 -54h-188l174 371q18 39 46.5 48t70.5 9h247z" />
    <glyph glyph-name="Skreska" horiz-adv-x="1194" 
d="M109 371q67 -17 139 -27q61 -10 137 -17.5t150 -7.5q114 0 154 44.5t40 103.5q0 65 -55.5 90t-145.5 41q-6 2 -40.5 8t-55.5 10q-184 37 -275 134.5t-91 277.5q0 78 23.5 164t87 156.5t172 116.5t278.5 46q104 0 191 -16t151.5 -36.5t102.5 -38t42 -19.5l-100 -297
q-19 -51 -56 -51q-18 0 -38.5 10t-53.5 33q-32 22 -92.5 50t-146.5 28q-76 0 -118 -40t-42 -108q0 -61 45 -87t152 -46l53 -10q223 -41 324.5 -136.5t101.5 -277.5q0 -94 -26.5 -183t-94.5 -158t-183.5 -111t-293.5 -42q-94 0 -181.5 10.5t-154.5 22.5q-80 15 -148 35z
M754 1648q-33 -22 -63 -32.5t-68 -10.5h-283l309 273q35 31 63.5 38t67.5 7h355z" />
    <glyph glyph-name="skreska" horiz-adv-x="1022" 
d="M72 334q69 -17 172.5 -35t222.5 -18q72 0 99.5 14t27.5 49q0 18 -10.5 29.5t-32 17.5t-57 11.5t-86.5 13.5q-86 12 -156 30.5t-119 52t-75.5 86t-26.5 132.5q0 69 24.5 135t86 116t165 79.5t260.5 29.5q109 0 213.5 -22.5t192.5 -53.5l-92 -243q-21 -56 -64 -56
q-16 0 -32.5 7.5t-34.5 17.5q-37 23 -86.5 36t-102.5 13q-139 0 -139 -63q0 -35 31.5 -45.5t128.5 -22.5q106 -14 182 -35.5t125 -56.5t72.5 -89t23.5 -132q0 -355 -532 -355q-99 0 -201 13.5t-213 36.5zM639 1225q-34 -54 -113 -54h-188l174 371q18 39 46.5 48t70.5 9h247z
" />
    <glyph glyph-name="Zkreska" horiz-adv-x="1262" 
d="M61 0v174q0 47 16.5 86t37.5 72l503 817h-544v340h1089v-182q0 -47 -16.5 -86t-36.5 -70q-125 -205 -251 -402.5t-255 -402.5h578v-346h-1121zM809 1648q-33 -22 -63 -32.5t-68 -10.5h-283l309 273q35 31 63.5 38t67.5 7h355z" />
    <glyph glyph-name="zkreska" horiz-adv-x="1006" 
d="M61 0v158q0 45 14.5 83t39.5 68l331 432h-372v314h860v-166q0 -82 -55 -144l-332 -432h397v-313h-883zM663 1225q-34 -54 -113 -54h-188l174 371q18 39 46.5 48t70.5 9h247z" />
    <glyph glyph-name="zero.tab" 
d="M8 743q0 409 141 592t447 183q303 0 443.5 -184t140.5 -591q0 -404 -139.5 -588t-444.5 -184q-308 0 -448 183.5t-140 588.5zM764 745q0 199 -11 280.5t-49 125t-110 43.5q-102 0 -136 -87t-34 -362q0 -303 42 -374.5t128 -71.5q74 0 111 41t48 117.5t11 287.5z" />
    <glyph glyph-name="one.tab" 
d="M154 0v348h280v801h-235v340h508q82 0 104.5 -23.5t22.5 -97.5v-1020h243v-348h-923z" />
    <glyph glyph-name="two.tab" 
d="M184 0q-81 0 -102 23t-21 98v252q0 127 51.5 205t150.5 132.5t276 142.5q87 43 125 80t38 99q0 144 -208 144q-155 0 -340 -62l-72 316q222 88 450 88q296 0 450.5 -113.5t154.5 -329.5q0 -227 -130 -333.5t-338 -197.5q-98 -43 -141 -75t-43 -82v-39h631v-348h-932z" />
    <glyph glyph-name="three.tab" 
d="M76 385q174 -59 344 -59q153 0 217.5 29.5t64.5 115.5q0 78 -85.5 108.5t-297.5 30.5h-22v303h37q154 0 242 23t88 121q0 117 -215 117q-143 0 -318 -56l-74 316q228 84 428 84q292 0 448.5 -102t156.5 -302q0 -196 -172 -287q-29 -17 -29 -41q0 -20 24 -32
q95 -49 131 -80.5t59 -88.5t23 -153q0 -214 -171 -334.5t-486 -120.5q-263 0 -467 89z" />
    <glyph glyph-name="four.tab" 
d="M844 0q-81 0 -102 23t-21 98v63h-567q-81 0 -102 23t-21 98v281q0 129 62.5 243t228.5 244q176 139 239.5 226t63.5 190h309q72 0 99.5 -13.5t27.5 -99.5q0 -105 -72.5 -200t-277.5 -244q-147 -108 -202.5 -185.5t-55.5 -156.5v-58h268v209h276q81 0 102 -23t21 -97v-621
h-276z" />
    <glyph glyph-name="five.tab" 
d="M104 385q194 -61 396 -61q229 0 229 188q0 137 -158 137q-75 0 -280 -20q-35 -4 -53 -4q-82 0 -101.5 21.5t-19.5 98.5v744h950v-340h-557v-178q108 14 154 14q233 0 356 -123t123 -338q0 -251 -155.5 -399t-457.5 -148q-298 0 -499 89z" />
    <glyph glyph-name="six.tab" 
d="M1028 1489v-340q-318 -2 -441 -60t-132 -215q97 87 270 87q181 0 316 -131t135 -355q0 -231 -151 -367.5t-413 -136.5q-284 0 -432.5 163.5t-148.5 461.5q0 321 78.5 512t276 286t642.5 95zM608 657q-157 0 -157 -170q0 -88 41.5 -140t115.5 -52q75 0 117.5 48.5
t42.5 135.5q0 178 -160 178z" />
    <glyph glyph-name="seven.tab" 
d="M319 0q-81 0 -101.5 23t-20.5 98v59q0 185 19.5 282t60 165.5t85.5 111t192 144.5q88 60 125.5 111t37.5 124v31h-670v340h1094v-356q0 -160 -76 -272t-281 -267q-101 -76 -132 -159t-31 -255v-180h-302z" />
    <glyph glyph-name="eight.tab" 
d="M596 -33q-285 0 -441.5 119t-156.5 340q0 215 207 328q22 12 22 34q0 25 -28 39q-160 84 -160 265q0 206 147 316t410 110q259 0 407 -110t148 -316q0 -177 -162 -265q-28 -14 -28 -39q0 -22 22 -34q207 -113 207 -328q0 -222 -155.5 -340.5t-438.5 -118.5zM596 1229
q-139 0 -139 -150q0 -72 30.5 -107.5t108.5 -35.5q76 0 104.5 36.5t28.5 108.5q0 148 -133 148zM596 641q-178 0 -178 -184q0 -174 178 -174q174 0 174 174q0 184 -174 184z" />
    <glyph glyph-name="nine.tab" 
d="M160 0v340q317 2 440.5 59.5t132.5 214.5q-96 -86 -270 -86q-181 0 -316 131t-135 355q0 230 150 367t413 137q284 0 433 -163t149 -462q0 -324 -80 -515t-278.5 -284.5t-638.5 -93.5zM580 1194q-75 0 -117.5 -48.5t-42.5 -135.5q0 -179 160 -179q157 0 157 170
q0 88 -41.5 140.5t-115.5 52.5z" />
    <glyph glyph-name="numbersign.tab" 
d="M1221 809h-197l-47 -252h131v-315h-197l-61 -285q-15 -70 -35.5 -92.5t-75.5 -22.5h-245l88 400h-150l-61 -285q-15 -72 -35 -93.5t-76 -21.5h-248l90 400h-135v315h207l49 252h-141v311h194l56 254q16 71 35.5 93t76.5 22h246l-80 -369h148l51 254q15 73 36.5 94
t76.5 21h254l-84 -369h129v-311zM694 809h-147l-51 -252h147z" />
    <glyph glyph-name="dollar.tab" 
d="M526 -229q-81 0 -102 22t-21 98v91q-194 16 -346 61l47 328q240 -52 422 -52q191 0 191 148q0 55 -39.5 81t-157.5 50q-459 89 -459 430q0 174 92 296.5t263 164.5v184h235q81 0 102 -23t21 -98v-51q171 -22 328 -100l-101 -297q-17 -51 -55 -51q-22 0 -48 19
q-140 102 -280 102q-74 0 -114.5 -40t-40.5 -108q0 -55 36.5 -82.5t155.5 -50.5q293 -59 384 -153t91 -271q0 -383 -368 -469v-229h-236z" />
    <glyph glyph-name="percent.tab" 
d="M315 797q-140 0 -218.5 94.5t-78.5 269.5q0 174 78 269.5t219 95.5q140 0 216.5 -95t76.5 -270q0 -176 -77 -270t-216 -94zM313 1358q-75 0 -75 -197q0 -196 75 -196q74 0 74 196q0 197 -74 197zM467 68l-17 -28q-24 -40 -69 -40h-176l596 1421q29 68 86 68h178zM965 -23
q-143 0 -221 95.5t-78 269.5t78 269.5t221 95.5q138 0 214 -94.5t76 -270.5t-76 -270.5t-214 -94.5zM961 537q-74 0 -74 -195q0 -199 74 -199q75 0 75 199q0 195 -75 195z" />
    <glyph glyph-name="plus.tab" 
d="M547 63q-82 0 -103.5 23t-21.5 98v203h-340v322h340v323h219q82 0 103.5 -23t21.5 -98v-202h340v-322h-340v-324h-219z" />
    <glyph glyph-name="hyphen.tab" 
d="M180 387v322h828v-322h-828z" />
    <glyph glyph-name="slash.tab" 
d="M35 -182l704 1757q38 96 131 96h283l-709 -1757q-22 -55 -51 -75.5t-80 -20.5h-278z" />
    <glyph glyph-name="less.tab" 
d="M117 418v272l954 363v-260q0 -55 -23.5 -79.5t-82.5 -39.5l-408 -115l410 -125q60 -18 82 -42t22 -83v-262z" />
    <glyph glyph-name="equal.tab" 
d="M115 623v317h958v-317h-958zM115 168v317h958v-317h-958z" />
    <glyph glyph-name="greater.tab" 
d="M117 27v260q0 55 22 77t86 42l406 114l-412 125q-50 15 -76 38.5t-26 86.5v262l954 -370v-273z" />
    <glyph glyph-name="underscore.tab" 
d="M-43 -281v238h1274v-238h-1274z" />
    <glyph glyph-name="cent.tab" 
d="M575 -229q-81 0 -102.5 22t-21.5 98v115q-361 101 -361 514q0 409 373 518v226h239q81 0 102 -23t21 -98v-82q128 -20 259 -67q23 -9 26 -9l-82 -215q-31 -82 -88 -82q-37 0 -107 32q-71 32 -133 32q-200 0 -200 -230q0 -121 54.5 -175t168.5 -54q98 0 260 34q41 8 84 15
l33 -309q-158 -34 -285 -47v-215h-240z" />
    <glyph glyph-name="sterling.tab" 
d="M37 0v322h172q20 119 20 219v9q-1 12 -2 42l-2 22h-155v320h125q-7 49 -7 100q0 484 523 484q262 0 436 -84l-105 -275q-19 -51 -57 -51q-22 0 -98 45q-78 47 -176 47q-140 0 -140 -170q0 -42 7 -96h344v-320h-320q4 -39 4 -106q0 -94 -18 -186h592v-322h-1143z" />
    <glyph glyph-name="yen.tab" 
d="M803 270v-270h-287q-79 0 -100 23t-21 98v149h-350v297h313l-55 138h-258v296h131l-182 488h336q78 0 110.5 -23t46.5 -73l119 -535l119 531q22 100 156 100h313l-182 -488h131v-296h-256l-56 -138h312v-297h-340z" />
    <glyph glyph-name="florin.tab" 
d="M35 -147q7 0 21 -1q70 -8 100 -8q123 0 123 93v843h-189v275h189v96q0 200 108.5 284.5t351.5 84.5q174 0 340 -41l-26 -287q-118 22 -217 22q-162 0 -162 -90v-69h354v-275h-344v-884q0 -188 -90 -272.5t-287 -84.5q-111 0 -263 23q-27 4 -36 4z" />
    <glyph glyph-name="section.tab" 
d="M989 383q88 -85 88 -233q0 -404 -547 -404q-190 0 -432 94l54 271q258 -72 378 -72q191 0 191 98q0 77 -158 109q-237 50 -330.5 135t-93.5 229q0 151 113 271q-82 96 -82 227q0 189 125.5 299.5t378.5 110.5q182 0 397 -80l-84 -221q-21 -56 -63 -56q-25 0 -70 25
q-89 49 -178 49q-150 0 -150 -107q0 -48 32.5 -70.5t135.5 -47.5q211 -54 303.5 -136.5t92.5 -230.5q0 -133 -101 -260zM539 748q-43 -39 -43 -101q0 -44 30.5 -70.5t155.5 -55.5q17 -4 25 -7q30 48 30 109q0 72 -129 104q-47 13 -69 21z" />
    <glyph glyph-name="currency.tab" 
d="M801 252q-96 -49 -207 -49q-99 0 -203 55l-137 -139l-184 194l133 133q-47 97 -47 207q0 118 45 211l-131 133l184 195l137 -143q109 55 203 55q111 0 205 -49l135 137l184 -197l-133 -135q47 -87 47 -207q0 -112 -51 -209l137 -131l-184 -194zM768 655q0 77 -52 129
t-120 52q-75 0 -125.5 -53t-50.5 -128t52 -129.5t122 -54.5q71 0 122.5 54.5t51.5 129.5z" />
    <glyph glyph-name="paragraph.tab" 
d="M860 -182q-39 0 -39 47v1509h-104v-1257q0 -174 -42 -242t-140 -68q-61 0 -136 15l9 100q41 -6 73 -6q66 0 92.5 42t26.5 136v588q-228 5 -326 99.5t-98 322.5q0 218 102.5 308.5t360.5 90.5q94 0 299 -6v-1679h-78z" />
    <glyph glyph-name="onehalf.tab" 
d="M20 -66l697 1520q31 68 104 68h164l-700 -1520q-31 -68 -105 -68h-160zM158 631q-38 0 -51 12t-13 53v629h-84v164h215q37 0 49.5 -10.5t12.5 -55.5v-792h-129zM756 0q-43 0 -54.5 13t-11.5 53v114q0 95 40.5 152t143.5 119q89 52 116.5 81.5t27.5 75.5q0 92 -109 92
q-74 0 -174 -45l-37 154q118 59 224 59q290 0 290 -245q0 -95 -38.5 -157t-147.5 -122q-95 -54 -118 -86.5t-23 -67.5v-22h321v-168h-450z" />
    <glyph glyph-name="plusminus.tab" 
d="M764 684v-231h-217q-81 0 -102 22t-21 98v111h-324v301h324v232h217q81 0 102 -23t21 -98v-111h323v-301h-323zM100 0v317h987v-317h-987z" />
    <glyph glyph-name="onequarter.tab" 
d="M20 -66l697 1520q31 68 104 68h164l-700 -1520q-31 -68 -105 -68h-160zM158 631q-38 0 -51 12t-13 53v629h-84v164h215q37 0 49.5 -10.5t12.5 -55.5v-792h-129zM950 0q-40 0 -51.5 13t-11.5 53v69h-291q-41 0 -53.5 13.5t-12.5 50.5v98q0 76 34.5 146.5t144.5 170.5
q85 79 115 128t30 116h133q39 0 52.5 -10t13.5 -51q0 -130 -181 -277q-153 -122 -153 -207v-18h168v145h125q42 0 51.5 -12t9.5 -51v-377h-123z" />
    <glyph glyph-name="divide.tab" 
d="M401 764v291h383v-291h-383zM88 377v301h1012v-301h-1012zM401 0v291h383v-291h-383z" />
    <glyph glyph-name="degree.tab" 
d="M596 805q-208 0 -319 91.5t-111 264.5q0 156 119.5 256.5t310.5 100.5q200 0 313 -92.5t113 -264.5q0 -160 -118 -258t-308 -98zM741 1161q0 119 -145 119q-147 0 -147 -119t147 -119q145 0 145 119z" />
    <glyph glyph-name="threequarters.tab" 
d="M190 -66l697 1520q31 68 104 68h164l-700 -1520q-31 -68 -105 -68h-160zM35 834q93 -39 182 -39q133 0 133 102q0 104 -166 104h-39v160h39q146 0 146 103q0 82 -99 82q-61 0 -165 -46l-37 158q120 51 211 51q134 0 210 -57t76 -166q0 -103 -77 -158q-23 -16 -23 -32
q0 -15 20 -25q54 -25 75.5 -68t21.5 -122q0 -117 -81 -184.5t-233 -67.5q-125 0 -231 51zM1120 0q-40 0 -51.5 13t-11.5 53v69h-291q-41 0 -53.5 13.5t-12.5 50.5v98q0 76 34.5 146.5t144.5 170.5q85 79 115 128t30 116h133q39 0 52.5 -10t13.5 -51q0 -130 -181 -277
q-153 -122 -153 -207v-18h168v145h125q42 0 51.5 -12t9.5 -51v-377h-123z" />
    <glyph glyph-name="minus.tab" 
d="M100 389v318h987v-318h-987z" />
    <glyph glyph-name="multiply.tab" 
d="M588 336l-258 -242l-209 205l258 244l-260 243l219 218l262 -244l258 244l209 -207l-258 -244l260 -244l-219 -217z" />
    <glyph glyph-name="Euro.tab" 
d="M1164 49q0 -9 -119 -40.5t-285 -31.5q-263 0 -416.5 123t-198.5 369h-151v236h129q-2 12 -2 24v21v17q0 9 1 17q0 9 1 17h-129v235h160q60 241 210 361.5t390 120.5q242 0 436 -91l-113 -294q-20 -52 -53 -52q-25 0 -92 43q-82 56 -178 56q-109 0 -168 -144h276v-235
h-319q-1 -8 -1 -16l-1 -17q-2 -29 4 -63h317v-236h-282q44 -147 211 -147q132 0 329 49z" />
    <glyph glyph-name="summation.tab" 
d="M20 -182v127q0 81 52 151l379 537l-345 555q-51 82 -51 151v150h1071v-315h-532l315 -539l-336 -492h590v-325h-1143z" />
    <glyph glyph-name="approxequal.tab" 
d="M1071 688q-136 -100 -285 -100q-83 0 -197 52q-118 52 -177 52q-163 0 -295 -102v315q138 101 309 101q80 0 198 -52q117 -53 179 -53q73 0 127.5 19t140.5 84v-316zM1071 236q-138 -101 -309 -101q-80 0 -197 53q-118 52 -178 52q-73 0 -129.5 -19.5t-140.5 -83.5v316
q136 100 284 100q81 0 199 -52q114 -52 178 -52q161 0 293 102v-315z" />
    <glyph glyph-name="notequal.tab" 
d="M580 168l-76 -168h-326l76 168h-137v297h264l76 178h-340v297h467l75 168h332l-80 -168h160v-297h-285l-79 -178h364v-297h-491z" />
    <glyph glyph-name="lessequal.tab" 
d="M117 766v272l954 363v-260q0 -55 -23.5 -79.5t-82.5 -39.5l-408 -115l410 -125q60 -18 82 -42t22 -83v-262zM115 0v317h958v-317h-958z" />
    <glyph glyph-name="greaterequal.tab" 
d="M117 395v260q0 56 23 79t85 40l406 115l-410 125q-60 18 -82 42t-22 83v262l954 -371v-272zM115 0v317h958v-317h-958z" />
    <glyph glyph-name="quotedbl.tab" 
d="M301 797q-115 0 -121 135l-26 557h245q129 0 129 -103v-10l-43 -579h-184zM811 797q-117 0 -123 135l-24 557h243q129 0 129 -103v-10l-43 -579h-182z" />
    <glyph glyph-name="space.tab" horiz-adv-x="594" 
 />
    <glyph glyph-name="comma.tab" horiz-adv-x="594" 
d="M86 -211q91 82 115 211h-101v354h408v-168q0 -346 -262 -540z" />
    <glyph glyph-name="period.tab" horiz-adv-x="594" 
d="M92 0v354h410v-354h-410z" />
    <glyph glyph-name="colon.tab" horiz-adv-x="594" 
d="M92 700v355h410v-355h-410zM92 0v354h410v-354h-410z" />
    <glyph glyph-name="semicolon.tab" horiz-adv-x="594" 
d="M92 700v355h412v-355h-412zM78 -211q93 85 117 211h-103v354h412v-168q0 -340 -264 -540z" />
    <glyph glyph-name="bar.tab" horiz-adv-x="594" 
d="M233 -365q-81 0 -101.5 23t-20.5 98v1938h249q81 0 102 -23t21 -98v-1938h-250z" />
    <glyph glyph-name="quotesingle.tab" horiz-adv-x="594" 
d="M256 797q-115 0 -121 135l-26 557h243q129 0 129 -103v-10l-41 -579h-184z" />
    <glyph glyph-name="periodcentered.tab" horiz-adv-x="594" 
d="M80 563v355h422v-355h-422z" />
    <glyph glyph-name="kreska" horiz-adv-x="877" 
d="M489 1225q-34 -54 -113 -54h-188l174 371q18 39 46.5 48t70.5 9h247z" />
    <glyph glyph-name="i.dot" horiz-adv-x="551" 
d="M80 1174v315h391v-315h-391zM205 0q-43 0 -67.5 5t-37 19.5t-15.5 37t-3 59.5v934h264q43 0 67.5 -5.5t37 -19.5t15.5 -36.5t3 -59.5v-934h-264z" />
    </font>
</defs>
</svg>
